<?xml version="1.0" standalone="no"?>
<svg>
<font id="Typeface" horiz-adv-x="29" >
<font-face units-per-em="100" ascent="80" descent="-20" />
<glyph unicode=" " horiz-adv-x="29" d="" />
<glyph unicode="!" horiz-adv-x="20" d="M-13.67803 35.63324 Q-13.67803 33.33382 -14.13766 29.12002 Q-14.59729 24.90623 -14.6983 22.28002 Q-14.73053 21.44208 -14.79555 21.19826 Q-14.86056 20.95443 -15.1419 15.53693 Q-15.14631 15.45201 -15.13026 13.62949 Q-15.1142 11.80697 -17.80347 11.54193 Q-18.37819 12.03398 -18.79219 12.27458 Q-19.20619 12.51517 -19.53349 15.13333 Q-19.59777 15.64752 -19.76525 16.10442 Q-19.93272 16.56133 -19.93272 26.71076 Q-19.93272 28.21019 -19.93272 29.34535 Q-19.93272 30.4805 -19.93272 36.02626 Q-19.93272 39.17568 -19.31747 39.76073 Q-18.70222 40.34578 -17.67039 40.55317 Q-17.06286 40.67528 -15.37045 40.37897 Q-13.67803 40.08267 -13.67803 35.63324 zM-13.91462 3.1175 Q-14.1376 2.1224 -14.26125 1.34421 Q-14.38491 0.56602 -17.80347 0.23026 Q-18.26867 0.18457 -18.88081 0.06418 Q-19.49295 -0.05621 -20.73119 2.22352 Q-20.78029 2.41986 -20.93828 3.42447 Q-21.09627 4.42908 -19.13425 6.74978 Q-14.95117 6.75394 -14.3319 5.38642 Q-13.71262 4.0189 -13.91462 3.1175 z" />
<glyph unicode="&#x22;" horiz-adv-x="27" d="M3.72349 43.14125 Q3.73584 43.04252 3.81519 42.54641 Q3.89455 42.0503 3.59151 38.258 Q3.58698 38.20131 3.18131 36.18547 Q2.77564 34.16962 0.81995 34.89198 Q0.22838 36.55283 0.24866 39.75945 Q0.26893 42.96607 0.39102 43.23957 Q0.98967 44.58066 2.29332 44.36704 Q3.59697 44.15342 3.72349 43.14125 zM-2.74348 41.72118 Q-2.74348 41.69847 -2.77089 41.40492 Q-2.7983 41.11138 -2.94145 38.35568 Q-3.04064 36.44625 -3.65017 35.3616 Q-4.2597 34.27696 -5.81199 35.08862 Q-6.1217 36.07962 -6.2385 36.86485 Q-6.35529 37.65008 -6.30691 41.5225 Q-6.29042 42.84238 -6.07208 43.37298 Q-5.85374 43.90359 -5.71301 44.09621 Q-5.58838 44.11889 -4.16593 44.23003 Q-2.74348 44.34116 -2.74348 41.72118 z" />
<glyph unicode="#" horiz-adv-x="41" d="M8.87667 35.917 Q8.31087 29.93492 8.23639 29.6875 Q8.16191 29.44008 8.16655 29.35791 Q10.5112 28.18868 11.43722 28.0913 Q12.36324 27.99392 13.05383 28.23652 Q13.16835 28.27675 14.25718 28.66764 Q15.34601 29.05854 16.36772 33.94967 Q16.4369 34.28085 16.68035 35.12589 Q16.9238 35.97092 18.56769 39.14618 Q20.39445 40.06197 21.07595 38.90056 Q21.75746 37.73914 21.70057 36.64401 Q21.68924 36.42589 21.41032 33.2307 Q21.13141 30.03551 22.78663 29.21008 Q23.51154 28.84858 24.63379 28.91906 Q25.75605 28.98954 25.46002 25.49593 Q24.50085 24.44627 22.63108 24.01282 Q20.7613 23.57938 19.57021 22.22998 Q18.84235 21.40538 18.3598 20.54298 Q17.87725 19.68058 18.56769 16.58948 Q20.70795 14.8801 21.55043 15.06964 Q22.39291 15.25917 23.83092 13.46354 Q23.2625 11.83873 22.97161 11.43303 Q22.68072 11.02733 20.12717 10.39541 Q19.2214 10.17126 17.94276 9.50909 Q16.66411 8.84692 16.01962 5.47487 Q15.58952 3.22455 14.49797 0.94714 Q13.40641 -1.33026 11.29943 -0.2123 Q11.28482 -0.18708 10.94688 -0.14714 Q10.60895 -0.1072 10.9931 5.7328 Q11.07286 6.94533 11.2728 7.1784 Q11.47275 7.41148 10.42222 9.93706 Q10.38571 9.95765 8.9417 10.37286 Q7.49769 10.78807 5.32608 9.63795 Q4.87647 9.39983 4.49791 9.25158 Q4.11934 9.10333 3.57167 6.87871 Q3.56376 6.84658 2.5972 3.94813 Q1.63063 1.04968 1.27423 0.15045 Q0.72133 -0.11165 -0.57826 -0.47996 Q-1.87785 -0.84826 -2.35991 1.14818 Q-2.48329 3.49229 -2.00809 5.43081 Q-1.53288 7.36933 -3.13965 9.01415 Q-3.24395 9.12092 -3.24926 9.21859 Q-3.25457 9.31627 -6.11936 11.54437 Q-5.79274 11.91224 -5.91378 12.51311 Q-6.03482 13.11399 -5.24215 14.05183 Q-4.23564 14.66425 -3.73283 14.63954 Q-3.23001 14.61483 -1.80295 15.25381 Q-1.19731 15.52499 -0.31487 16.12785 Q0.56757 16.73072 0.64765 19.57344 Q0.70389 21.56991 0.44698 22.39604 Q0.19007 23.22217 -1.80295 23.63599 Q-2.37887 23.75557 -2.71349 23.70233 Q-3.04811 23.64909 -4.74089 25.8321 Q-3.80517 27.70478 -2.16083 27.94795 Q-0.5165 28.19112 0.60588 28.88847 Q1.92662 29.70907 2.4085 30.21624 Q2.89037 30.7234 3.73875 34.7824 Q3.74659 34.81991 3.70501 35.55291 Q3.66342 36.2859 6.0362 39.25499 Q8.05043 39.42207 8.5463 38.54444 Q9.04217 37.6668 8.87667 35.917 zM8.5425 23.59392 Q5.95619 23.22104 5.81185 21.54893 Q5.6675 19.87682 5.66025 19.83067 Q5.23207 17.10533 5.35015 16.28753 Q5.46823 15.46973 6.0362 14.69326 Q10.84725 14.29867 11.16877 14.48716 Q11.49028 14.67564 12.05131 15.07712 Q13.24791 17.4719 13.228 17.83829 Q13.20808 18.20468 13.42978 18.83839 Q14.52457 21.9678 14.01846 22.60397 Q13.51236 23.24013 13.55509 23.47521 Q9.36742 24.02805 8.99037 23.81609 Q8.61333 23.60413 8.5425 23.59392 z" />
<glyph unicode="$" horiz-adv-x="36" d="M9.76497 36.49382 Q11.60886 35.52106 12.99817 34.603 Q14.38748 33.68494 14.30327 31.04632 Q13.67284 30.35238 13.08698 30.10637 Q12.50111 29.86036 10.6899 30.98196 Q7.94267 32.68319 7.39166 31.01741 Q6.84064 29.35163 6.76822 28.58657 Q6.76547 28.55752 6.42754 26.17668 Q6.08961 23.79584 8.06312 22.13774 Q9.15582 21.21968 10.93724 20.0936 Q12.71867 18.96753 13.78531 17.87502 Q15.75988 15.85256 16.02379 13.82726 Q16.28771 11.80195 16.02979 10.45265 Q15.48279 7.59098 14.85795 6.85816 Q14.23311 6.12533 13.21802 5.27098 Q10.78712 3.225 9.48354 2.95137 Q8.17996 2.67775 7.10119 1.39407 Q6.31159 0.45449 5.30633 -0.01344 Q4.30108 -0.48136 2.06961 1.48897 Q0.55027 2.83051 -1.26627 3.55388 Q-3.0828 4.27725 -3.10996 4.29687 Q-4.14643 5.04588 -5.13595 5.95698 Q-6.12547 6.86808 -5.34211 9.61043 Q-3.71143 11.05271 -2.56463 9.87417 Q-1.41784 8.69562 -0.27353 8.02335 Q1.78058 6.81658 2.50894 8.14616 Q3.23729 9.47574 3.35217 10.91181 Q3.45041 12.13987 3.17503 14.82465 Q2.89965 17.50942 0.1211 19.51736 Q-0.55063 20.00279 -2.16837 21.07215 Q-3.78611 22.14151 -4.63917 24.74271 Q-5.7915 28.25645 -4.22358 31.04837 Q-2.65566 33.84029 -1.4081 34.53698 Q2.37553 36.6499 3.17045 37.62554 Q3.96537 38.60118 5.424 39.58599 Q6.63149 39.29543 7.05781 38.49626 Q7.48413 37.69709 9.76497 36.49382 zM1.66264 33.13338 Q1.39185 33.04905 0.18673 31.72856 Q-1.01838 30.40807 -0.6805 27.70542 Q-0.59315 27.00673 0.12058 25.4602 Q0.83431 23.91367 2.9822 24.04545 Q4.1292 25.69512 3.97706 27.5584 Q3.82493 29.42168 3.8208 29.49696 Q3.78418 30.16521 4.09174 32.07543 Q4.39931 33.98565 1.66264 33.13338 zM6.97787 17.05601 Q6.03901 15.26042 6.28646 13.12022 Q6.53391 10.98002 6.53391 9.73029 Q6.53391 7.08056 7.30828 6.81259 Q8.08266 6.54461 8.53174 6.40205 Q10.90485 7.79977 11.6109 10.64258 Q12.31696 13.48539 9.8883 15.97294 Q8.47259 17.42298 8.18767 17.23984 Q7.90274 17.0567 6.97787 17.05601 z" />
<glyph unicode="%" horiz-adv-x="35" d="M-3.88475 37.29925 Q-1.30778 34.7879 -0.95429 33.64729 Q-0.6008 32.50667 -0.64081 29.30564 Q-0.69576 24.90901 -2.17607 23.20319 Q-3.65637 21.49736 -3.88475 21.30507 Q-4.64928 20.66135 -5.9789 19.68365 Q-7.30852 18.70595 -9.8522 18.83536 Q-13.73155 19.03273 -15.12732 20.27506 Q-16.52309 21.51739 -17.03397 22.88692 Q-17.89829 25.20395 -18.42478 25.56206 Q-18.95127 25.92017 -18.28298 29.7551 Q-18.28233 29.75883 -17.40306 33.14806 Q-16.52378 36.53729 -12.64511 38.17457 Q-9.54194 39.48449 -7.30438 38.96785 Q-5.06681 38.45122 -3.88475 37.29925 zM13.16762 34.09095 Q10.77071 29.29457 8.93555 26.29708 Q7.1004 23.29959 7.09607 23.29444 Q7.06426 23.25657 5.0994 19.97583 Q3.13455 16.6951 2.89803 16.24695 Q2.86999 16.19382 -0.79645 10.13471 Q-4.46289 4.07561 -4.52659 3.99182 Q-5.19281 3.1155 -5.27241 3.0108 Q-5.35201 2.90609 -6.95521 0.79731 Q-8.49898 -1.2333 -9.67513 0.0186 Q-10.85127 1.2705 -10.35528 2.32023 Q-9.45219 4.23156 -6.85256 8.49058 Q-4.25292 12.74959 -4.14495 12.97811 Q-2.98555 15.43194 -0.69119 19.12137 Q1.60317 22.8108 2.04802 23.65332 Q2.61302 24.72339 4.91275 28.4969 Q7.21248 32.27041 7.30424 32.45402 Q8.15892 34.16429 8.57348 34.74794 Q8.98804 35.3316 10.75635 37.43638 Q11.39925 38.20161 11.41722 38.21655 Q11.43518 38.2315 12.16147 38.84302 Q14.25593 39.05471 14.30426 37.75843 Q14.35258 36.46215 13.16762 34.09095 zM-11.43081 35.40031 Q-11.61488 35.3247 -12.71138 34.43183 Q-13.80788 33.53895 -13.91146 29.44754 Q-13.99501 26.14731 -13.67496 25.4149 Q-13.35491 24.68249 -11.74306 23.1875 Q-10.41473 21.95548 -8.13608 24.20217 Q-5.85742 26.44886 -6.00111 30.1846 Q-6.05918 31.69439 -7.2906 34.14468 Q-8.52202 36.59498 -11.43081 35.40031 zM19.10038 17.99905 Q19.10081 17.99872 20.45601 16.94824 Q21.8112 15.89776 22.25758 12.72886 Q22.30792 12.37149 22.65302 9.63339 Q22.99813 6.89529 20.99123 3.48141 Q20.20231 2.1394 19.65103 1.39773 Q19.09975 0.65607 16.25543 -0.21863 Q12.73674 -1.30071 11.23756 -0.52275 Q9.73839 0.25522 9.40326 0.48526 Q7.95841 1.47704 6.77449 2.65825 Q5.59057 3.83945 5.53482 7.8537 Q5.47424 12.21555 6.15411 13.7897 Q6.83397 15.36385 7.89405 16.56455 Q9.15089 17.98812 9.59375 18.44411 Q10.03662 18.90009 12.9421 19.48431 Q13.57843 19.61226 15.16296 19.69952 Q16.74748 19.78677 19.10038 17.99905 zM11.58901 15.99606 Q9.80021 15.09974 9.57571 12.45085 Q9.35122 9.80197 9.35122 9.80068 Q9.35122 6.80372 9.81666 5.96703 Q10.2821 5.13033 10.28797 5.11793 Q10.93088 3.75862 12.23427 3.24958 Q13.53766 2.74054 15.52684 4.25618 Q16.3229 4.86273 17.17676 6.37688 Q18.03062 7.89103 17.26157 13.34801 Q17.25238 13.41322 15.85 15.42082 Q14.44762 17.42843 11.58901 15.99606 z" />
<glyph unicode="&#x26;" horiz-adv-x="36" d="M14.12505 36.78673 Q14.53258 36.36955 14.9454 36.09524 Q15.35822 35.82092 16.08048 33.46509 Q16.24582 32.92579 16.52367 32.60744 Q16.80151 32.2891 15.98271 27.07721 Q15.79046 25.85349 14.65605 21.58526 Q13.52163 17.31703 14.27171 16.10822 Q15.21524 14.58765 17.19576 13.67576 Q19.17628 12.76386 21.00166 14.73205 Q21.02454 14.75672 22.33033 16.14738 Q23.63613 17.53803 26.0369 17.47633 Q26.04256 17.47128 26.65588 16.86541 Q27.2692 16.25954 26.55835 13.58245 Q26.18113 12.16183 25.0832 10.26156 Q23.98526 8.36129 24.57032 5.30181 Q25.09284 2.56936 26.35303 1.48257 Q27.61321 0.39577 27.79679 -1.73347 Q26.54042 -2.62325 24.72989 -2.37409 Q22.91937 -2.12494 21.49052 -2.1818 Q21.02288 -2.20041 20.24132 -2.22595 Q19.45977 -2.2515 14.49984 -3.11991 Q14.465 -3.12601 14.08893 -3.23415 Q13.71287 -3.3423 9.75792 -3.66394 Q2.77443 -4.23188 1.36615 -3.72928 Q-0.04213 -3.22669 -0.05184 -3.22068 Q-4.59261 -0.41143 -5.01373 0.34792 Q-5.43484 1.10728 -5.67371 1.70933 Q-6.09932 2.78205 -6.81154 4.47706 Q-7.52377 6.17207 -7.04251 8.12785 Q-6.8937 8.7326 -6.30447 11.02417 Q-5.71523 13.31573 -2.49613 16.78668 Q-2.26925 17.03131 -1.05499 18.48938 Q0.15928 19.94745 -0.26368 22.37892 Q-0.67246 24.72888 -1.33022 25.98564 Q-1.98799 27.2424 -2.00727 28.55251 Q-2.01429 29.02951 -1.96662 30.34918 Q-1.91896 31.66885 -0.31256 34.55142 Q1.46068 37.73338 6.40116 38.68471 Q11.34165 39.63603 14.12505 36.78673 zM6.92254 35.83205 Q5.60151 35.25594 4.6366 31.80274 Q3.6717 28.34954 6.44998 24.70175 Q7.26017 23.638 7.43145 23.38952 Q7.60272 23.14103 9.4646 23.46731 Q12.10385 27.61819 12.26648 28.24243 Q12.4291 28.86667 12.52811 31.37458 Q12.56541 32.31939 11.30376 34.75596 Q10.04212 37.19253 6.92254 35.83205 zM3.12574 15.71864 Q2.1542 15.3516 1.09334 13.69284 Q0.03248 12.03407 -0.37774 11.29798 Q-0.73258 10.66126 -0.86942 7.88308 Q-1.00625 5.10491 0.99106 2.95661 Q3.90749 -0.18029 6.05442 -0.0166 Q8.20134 0.14709 8.73131 0.14779 Q11.10712 0.15094 12.31989 1.47748 Q13.53266 2.80402 13.71767 3.08756 Q13.92527 5.16383 11.59196 7.97289 Q9.25866 10.78195 6.58034 14.12629 Q4.77752 16.37742 3.99143 16.06306 Q3.20533 15.74871 3.12574 15.71864 z" />
<glyph unicode="'" horiz-adv-x="56" d="M33.94782 41.22762 Q33.7401 39.906 33.64545 39.14356 Q33.5508 38.38112 32.77237 38.74391 Q32.59843 39.03553 32.50093 40.41721 Q32.40342 41.79889 32.72773 42.2703 Q33.20312 42.445 33.65567 42.34661 Q34.10822 42.24821 33.94782 41.22762 z" />
<glyph unicode="(" horiz-adv-x="42" d="M12.49 37.22977 Q12.48265 37.22058 11.39608 35.49904 Q10.30952 33.7775 9.86355 32.58119 Q8.36967 28.57385 8.31419 28.05938 Q8.25871 27.5449 8.07891 27.09137 Q6.65078 23.48901 6.8766 21.74598 Q7.10242 20.00295 7.10242 18.97566 Q7.10242 10.74838 7.4816 10.64826 Q7.86077 10.54814 8.17993 9.14407 Q8.49909 7.73999 8.49616 7.45481 Q8.49323 7.16962 10.03191 3.72408 Q10.32633 3.06479 10.42866 3.09816 Q10.53099 3.13153 11.54717 0.89663 Q11.673 0.0159 9.70828 -0.24268 Q7.74357 -0.50125 6.26061 1.76851 Q4.11971 5.04529 4.28467 5.21342 Q4.44962 5.38155 4.4423 5.40388 Q4.21479 6.09763 3.66848 7.48205 Q3.12216 8.86646 2.8148 11.04851 Q2.41711 13.87181 2.28485 13.94069 Q2.15258 14.00957 2.15258 19.0733 Q2.15258 19.35059 2.07423 19.70512 Q1.99588 20.05964 2.62399 24.05714 Q3.31455 28.45207 4.10547 30.39317 Q4.89639 32.33426 5.02595 32.56666 Q5.25341 32.97466 6.479 35.52008 Q7.70459 38.06549 10.34619 39.97822 Q10.68056 40.22033 10.87833 40.36005 Q11.0761 40.49978 11.43493 40.70853 Q13.09461 41.67407 13.31358 40.10387 Q13.53255 38.53367 12.49 37.22977 z" />
<glyph unicode=")" horiz-adv-x="5" d="M-17.73955 37.57437 Q-17.68711 37.48524 -16.15845 34.88208 Q-14.62979 32.27891 -13.8334 28.11356 Q-13.53518 26.55378 -13.01096 23.69917 Q-12.48674 20.84457 -13.79214 14.01569 Q-14.62543 9.65654 -15.63478 7.83619 Q-16.64412 6.01584 -16.77677 5.85803 Q-17.51526 4.97945 -18.41179 3.26384 Q-19.30832 1.54823 -22.47094 -0.21037 Q-23.16939 0.48772 -23.71111 0.84352 Q-24.25283 1.19932 -22.88356 3.2967 Q-19.84888 7.94508 -19.42034 9.74344 Q-18.99179 11.54179 -18.70233 12.48651 Q-18.62235 12.74754 -18.1947 13.88099 Q-17.76706 15.01444 -17.76706 18.23617 Q-17.76706 24.91469 -17.90938 25.72928 Q-18.05171 26.54386 -18.93615 30.43541 Q-18.9434 30.46731 -18.99265 31.17253 Q-19.0419 31.87775 -20.94424 35.11077 Q-22.23916 37.31148 -23.27561 38.12223 Q-24.31206 38.93298 -22.47094 41.13427 Q-21.16234 41.01597 -19.65332 39.6391 Q-18.14429 38.26223 -17.73955 37.57437 z" />
<glyph unicode="*" horiz-adv-x="7" d="M1.73986 28.06147 Q1.58669 27.77151 0.61255 26.06549 Q-0.36159 24.35947 -0.36159 22.46905 Q-0.36159 21.52863 -0.18494 20.40943 Q-0.00828 19.29024 1.8942 20.00003 Q4.55215 20.99168 4.69447 21.45072 Q4.83679 21.90975 7.24874 24.26339 Q9.94698 26.89639 11.11926 27.91229 Q12.29154 28.92818 13.69555 27.33973 Q16.22561 24.4773 15.45713 23.50773 Q14.68866 22.53816 14.45539 22.4009 Q11.07206 20.41 9.0297 20.35789 Q6.98733 20.30578 6.95192 20.28602 Q5.26933 19.3473 4.27423 19.44097 Q3.27914 19.53463 1.88233 17.23371 Q3.06228 15.30314 3.60229 15.62664 Q4.1423 15.95014 7.83049 14.20744 Q8.26498 14.00214 9.45292 13.8985 Q10.64086 13.79487 12.40144 13.00926 Q13.70916 12.42573 13.9117 12.48233 Q14.11425 12.53894 15.45269 10.50478 Q15.38208 9.17726 15.1101 8.37995 Q14.83812 7.58265 12.14024 5.90941 Q12.01714 5.96121 11.8881 5.89473 Q11.75905 5.82824 8.92277 8.46134 Q6.37964 10.82229 5.614 11.84429 Q4.84835 12.86628 2.80839 13.88584 Q-0.88517 15.73185 -0.48599 12.84193 Q-0.08682 9.95201 -0.00541 9.78921 Q0.99159 7.79541 2.26523 5.18925 Q3.53887 2.58308 2.99835 1.37218 Q2.69996 0.70371 2.33056 -0.0749 Q1.96116 -0.8535 -0.36159 -0.82495 Q-4.09877 -0.77901 -3.36052 2.48119 Q-2.62226 5.74139 -2.61738 6.13192 Q-2.59191 8.16923 -1.89315 9.70822 Q-1.19438 11.24721 -1.29952 12.12784 Q-1.32919 12.37635 -1.54601 13.77792 Q-1.76284 15.17949 -3.65029 14.43063 Q-6.5645 13.27439 -6.75072 12.30081 Q-6.93693 11.32722 -7.53262 10.61873 Q-7.67462 10.44984 -9.03756 8.95148 Q-10.40051 7.45312 -12.86341 6.43847 Q-13.11274 6.45623 -13.9252 6.65117 Q-14.73765 6.84611 -16.06901 9.10914 Q-16.06901 10.34955 -15.95231 10.87283 Q-15.83561 11.39611 -12.57847 13.31275 Q-11.1774 14.1372 -10.61293 13.86542 Q-10.04846 13.59365 -8.15 14.44157 Q-7.16202 14.88284 -5.97165 15.12879 Q-4.78128 15.37475 -4.10145 16.37764 Q-3.88091 16.92904 -3.82599 17.34547 Q-3.77108 17.7619 -6.34537 19.04851 Q-9.6364 20.69334 -10.39413 20.53114 Q-11.15186 20.36893 -12.23417 20.85191 Q-12.62868 21.02796 -14.28445 21.70263 Q-15.94022 22.37731 -16.06901 25.03026 Q-15.82706 25.65938 -14.82578 27.03539 Q-13.82449 28.4114 -12.03233 27.46498 Q-10.63704 26.72814 -9.68967 25.99489 Q-8.7423 25.26164 -8.09064 23.71407 Q-7.96119 23.40665 -7.0756 22.07434 Q-6.19 20.74202 -2.3918 19.47674 Q-0.9898 20.77889 -1.79765 23.4308 Q-2.6055 26.08271 -2.6055 26.63586 Q-2.6055 28.32628 -3.42303 30.237 Q-4.24056 32.14773 -3.69778 33.07057 Q-3.12711 34.04083 -2.76542 34.41235 Q-2.40372 34.78387 -1.75068 34.97059 Q2.18605 36.09619 2.53059 33.15341 Q2.87514 30.21063 1.73986 28.06147 z" />
<glyph unicode="+" horiz-adv-x="32" d="M27.76343 34.35576 Q29.41935 34.35316 29.42296 33.41664 Q29.42658 32.48013 29.42658 32.27421 Q29.42658 27.71829 29.42658 27.00054 Q29.42658 26.2828 29.42658 22.98828 Q29.43236 22.97672 29.7401 22.87806 Q30.04784 22.77939 33.65376 22.77375 Q35.90968 22.77022 38.48916 22.9358 Q41.06864 23.10138 41.06864 21.44546 Q41.06864 19.68954 41.06864 19.07343 Q41.06864 18.45732 41.06864 17.63407 Q32.93006 17.64684 31.19191 17.64956 Q29.45377 17.65229 29.42658 17.65233 Q29.43943 17.5624 29.433 17.40551 Q29.42658 17.24861 29.42658 15.64269 Q29.42658 8.93677 29.42658 7.55817 Q29.42658 6.17957 29.42658 6.01027 Q26.48404 6.01489 25.42593 6.10086 Q24.36783 6.18684 24.36783 7.54276 Q24.36783 13.74868 24.36783 14.28419 Q24.36783 14.8197 24.36783 17.66027 Q16.64657 17.67238 16.09033 17.67326 Q15.53409 17.67413 13.21085 17.67777 Q13.21085 19.81637 12.72631 21.31185 Q12.24177 22.80733 15.49769 22.80223 Q20.0536 22.79509 20.79043 22.79393 Q21.52726 22.79278 24.36783 22.78832 Q24.36783 33.95959 24.36783 34.14674 Q24.36783 34.33389 24.36783 34.36109 Q24.36783 34.3351 24.41267 34.34802 Q24.45751 34.36094 27.76343 34.35576 z" />
<glyph unicode="," horiz-adv-x="56" d="M29.07395 3.71158 Q28.57604 1.68836 27.42971 -0.58069 Q26.28337 -2.84973 23.99574 -3.65238 Q23.58506 -3.43577 22.88657 -3.03105 Q22.18807 -2.62632 23.31572 -0.60385 Q23.32221 -0.59221 23.95307 -0.00803 Q24.58394 0.57615 23.17314 4.60586 Q23.03295 5.00629 22.64494 6.30208 Q22.25692 7.59788 23.33766 8.65321 Q24.02246 9.32191 24.5651 9.53352 Q25.10774 9.74513 25.47643 9.77381 Q28.87343 10.03805 28.97899 6.89634 Q29.08455 3.75462 29.07395 3.71158 z" />
<glyph unicode="-" horiz-adv-x="32" d="M-2.09759 22.69059 Q4.5101 22.6804 6.15447 22.67787 Q7.79885 22.67534 9.25654 22.67309 Q18.91423 22.6582 19.15603 22.65782 Q19.39784 22.65745 20.47049 22.6558 Q20.47049 19.41306 20.6286 17.77513 Q20.78671 16.13721 19.27901 16.13953 Q12.67132 16.14971 11.02695 16.15225 Q9.38258 16.15478 7.92488 16.15703 Q1.3172 16.16722 -0.32717 16.16975 Q-1.97155 16.17228 -3.42924 16.17453 Q-7.73694 16.18117 -8.43 16.18224 Q-9.12306 16.18331 -12.82093 16.18901 Q-12.83651 16.19098 -12.96889 16.58898 Q-13.10128 16.98698 -13.10128 20.39467 Q-13.10128 22.05237 -13.10128 22.12739 Q-13.10128 22.20242 -13.10128 22.70755 Q-11.98119 22.70583 -11.79323 22.70554 Q-11.60527 22.70525 -2.09759 22.69059 z" />
<glyph unicode="." horiz-adv-x="13" d="M-18.67905 4.68617 Q-18.71277 1.98843 -19.83063 1.60398 Q-20.94849 1.21953 -21.56898 1.16029 Q-24.29054 0.90045 -24.68012 1.79095 Q-25.06969 2.68146 -25.1814 3.70066 Q-25.34828 5.22322 -24.99571 6.37767 Q-24.64315 7.53212 -23.18361 7.85069 Q-20.44824 8.44774 -19.55562 7.20885 Q-18.663 5.96997 -18.67905 4.68617 z" />
<glyph unicode="/" horiz-adv-x="56" d="M31.01695 36.53833 Q29.29885 32.20488 29.37876 32.14168 Q29.45867 32.07848 28.45824 29.02666 Q26.89565 24.25997 26.69206 23.44852 Q26.48848 22.63706 26.47964 22.61335 Q25.72401 20.58652 25.06914 19.36044 Q24.41428 18.13436 24.11775 16.58313 Q23.56775 13.70592 22.60917 11.44353 Q21.65058 9.18115 21.61084 9.01969 Q21.4738 8.46292 20.09055 5.19846 Q18.70731 1.93399 18.67919 1.88076 Q18.27976 1.12449 17.14986 0.20545 Q16.01995 -0.71359 15.126 0.49085 Q14.92614 2.68922 15.19132 2.75007 Q15.4565 2.81092 16.43126 5.99222 Q17.11033 8.20848 17.89225 9.86877 Q18.67416 11.52907 18.77243 12.04314 Q18.90936 12.75948 20.10053 16.01441 Q21.2917 19.26934 21.35186 19.5341 Q21.60122 20.63143 22.75672 23.76767 Q23.91222 26.9039 23.94165 27.01472 Q24.16536 27.85703 25.14427 30.71605 Q26.12318 33.57507 26.97688 35.72829 Q27.88414 38.01661 28.7233 38.90586 Q29.56245 39.79512 29.6081 39.81112 Q32.12277 40.69251 31.68121 38.89626 Q31.23965 37.10002 31.01695 36.53833 z" />
<glyph unicode="0" horiz-adv-x="28.58462" d="M3.41022 37.88591 Q4.69167 36.80663 4.84434 36.61921 Q4.99702 36.4318 6.0609 34.88293 Q7.23689 33.17085 7.83293 31.48657 Q8.42897 29.80229 9.09524 26.61295 Q9.23823 25.92848 9.32264 25.52508 Q9.40705 25.12168 9.64456 21.51139 Q9.76049 19.74916 9.74105 18.82855 Q9.72162 17.90793 9.29579 14.88514 Q9.15542 13.88871 9.31959 13.57978 Q9.48377 13.27084 7.88325 9.23687 Q7.42744 8.08804 7.17218 6.9085 Q6.91692 5.72896 4.17752 3.05976 Q4.08815 2.97268 3.08323 1.92335 Q2.07831 0.87403 -0.21704 0.39746 Q-1.44012 0.14352 -3.32166 0.16521 Q-5.2032 0.18689 -7.55874 2.60448 Q-7.92508 2.98047 -7.99472 2.99391 Q-8.06436 3.00736 -9.50316 4.90026 Q-10.0333 5.59772 -11.02734 7.24615 Q-12.02139 8.89458 -12.79036 12.91771 Q-12.8187 13.06598 -13.10099 14.06384 Q-13.38328 15.0617 -13.38328 19.38827 Q-13.38328 23.06484 -13.51957 23.14607 Q-13.65586 23.22729 -12.74676 27.22613 Q-11.97142 30.6366 -11.8505 31.33983 Q-11.72958 32.04305 -9.50316 35.27852 Q-8.72262 36.41281 -7.46003 37.81995 Q-6.19744 39.22709 -2.86772 39.77763 Q-1.66475 39.97653 -0.43736 40.03463 Q0.79003 40.09273 3.41022 37.88591 zM-4.89684 31.21541 Q-5.27223 31.15334 -5.75857 31.00005 Q-6.2449 30.84676 -7.48027 29.64313 Q-7.8925 29.24149 -8.90726 26.2402 Q-9.92201 23.23892 -8.88408 19.32998 Q-8.74476 18.80529 -7.74464 16.37483 Q-6.74451 13.94438 -4.92549 11.98302 Q-2.15453 8.99523 -1.69342 9.33133 Q-1.23232 9.66743 -0.27807 9.56159 Q1.97824 9.31133 3.3493 11.15839 Q4.72035 13.00546 5.07562 14.08856 Q5.5891 15.65399 5.62307 16.76763 Q5.65703 17.88126 5.2936 20.46212 Q4.85446 23.5806 3.94395 24.97331 Q3.03345 26.36603 2.91321 26.56012 Q1.95073 28.1138 1.76479 28.31623 Q1.57885 28.51866 0.29741 29.59793 Q-2.514 31.96579 -3.68749 31.59357 Q-4.86098 31.22134 -4.89684 31.21541 z" />
<glyph unicode="1" horiz-adv-x="26" d="M-0.61156 37.76538 Q-0.61156 36.74212 -0.61156 36.09327 Q-0.61156 35.44442 -0.61156 32.22116 Q-0.61156 31.1979 -0.61156 30.54905 Q-0.61156 29.9002 -0.61156 26.67694 Q-0.61156 25.65368 -0.61156 25.00483 Q-0.61156 24.35598 -0.61156 21.13272 Q-0.61156 20.10946 -0.61156 19.46061 Q-0.61156 18.81176 -0.61156 15.5885 Q-0.61156 14.56524 -0.61156 13.91639 Q-0.61156 13.26754 -0.61156 10.04428 Q-0.61156 7.87102 -0.48403 5.89086 Q-0.3565 3.91071 0.7146 3.05237 Q0.77184 3.0065 1.65309 2.37113 Q2.53434 1.73575 2.46856 0.72285 Q2.09374 0.45562 1.80821 0.35885 Q1.52267 0.26207 -1.15058 0.2656 Q-2.17384 0.26695 -2.82269 0.26781 Q-3.47155 0.26866 -6.6948 0.2729 Q-8.46806 0.27523 -8.89778 0.18453 Q-9.32749 0.09383 -10.92997 0.50948 Q-11.85508 1.77664 -10.16798 2.26088 Q-8.48087 2.74511 -8.26053 5.07482 Q-8.25027 5.1833 -8.16557 5.30656 Q-8.08086 5.42982 -8.08086 9.05307 Q-8.08086 10.07633 -8.08086 10.72519 Q-8.08086 11.37404 -8.08086 14.59729 Q-8.08086 15.62055 -8.08086 16.26941 Q-8.08086 16.91826 -8.08086 20.14151 Q-8.08086 21.16477 -8.08086 21.81363 Q-8.08086 22.46248 -8.08086 25.68573 Q-8.08086 26.65899 -8.09835 29.07278 Q-8.11585 31.48656 -8.69688 32.0008 Q-10.51119 33.60653 -11.08783 33.48047 Q-11.66447 33.35441 -11.39199 34.69945 Q-11.11486 34.90693 -11.07627 34.88644 Q-11.03767 34.86594 -8.37176 35.6794 Q-7.18703 36.0409 -6.88225 35.86371 Q-6.57747 35.68651 -3.98258 38.21472 Q-3.10701 39.06779 -2.89587 39.29802 Q-2.68473 39.52825 -2.57086 39.57325 Q-1.7958 39.87958 -1.20368 39.73411 Q-0.61156 39.58864 -0.61156 37.76538 z" />
<glyph unicode="2" horiz-adv-x="28" d="M8.3943 33.51537 Q9.01298 32.04518 9.23384 29.1815 Q9.45469 26.31783 8.00981 23.5848 Q7.52352 22.66497 7.53347 22.2991 Q7.54342 21.93323 4.56816 19.435 Q4.54159 19.41269 4.03048 18.9323 Q3.51938 18.45191 0.08557 16.32751 Q-3.2632 14.25572 -5.54403 12.28662 Q-7.82485 10.31752 -8.74832 8.29308 Q-8.30062 8.29249 -4.43073 8.2088 Q-0.56084 8.1251 0.04806 8.26266 Q0.10525 8.27558 1.22256 8.44268 Q2.33987 8.60978 3.52722 10.85569 Q4.29393 12.30595 4.62838 12.31191 Q4.96283 12.31786 5.59971 12.07206 Q6.12277 9.90442 5.83933 8.75694 Q5.55588 7.60945 7.77536 4.5388 Q7.82579 4.46903 9.39413 2.65438 Q10.96247 0.83973 8.13172 0.84348 Q4.14182 0.84877 3.81832 0.8492 Q3.49481 0.84963 2.05491 0.85154 Q-1.93499 0.85683 -2.2585 0.85726 Q-2.58201 0.85769 -4.02191 0.8596 Q-8.0118 0.86489 -8.33531 0.86532 Q-8.65882 0.86575 -10.09872 0.86766 Q-11.63862 0.8697 -13.62507 1.13414 Q-15.61153 1.39858 -14.75948 4.8594 Q-14.74588 4.91464 -14.40099 6.50514 Q-14.05609 8.09563 -12.61197 10.30505 Q-12.12661 11.04762 -12.13773 11.10279 Q-12.14885 11.15797 -10.03307 13.79955 Q-10.01118 13.82688 -10.02453 13.85824 Q-10.03788 13.8896 -7.07907 16.91844 Q-5.16844 18.87429 -4.93826 19.05136 Q-4.70809 19.22844 -4.00315 19.91525 Q-0.64806 23.18406 -0.61944 23.61317 Q-0.59083 24.04229 -0.57088 24.07444 Q1.37355 27.20803 0.86775 30.3391 Q0.36194 33.47016 0.31064 33.54485 Q-1.32372 35.92426 -3.85248 36.00921 Q-6.38123 36.09416 -7.59485 34.65254 Q-9.48485 32.40747 -8.66436 30.87514 Q-7.84387 29.34281 -7.6136 29.17593 Q-6.65321 28.47991 -5.89561 28.49869 Q-5.138 28.51748 -4.02191 31.07486 Q-2.77867 31.59668 -2.12947 30.43112 Q-1.48028 29.26557 -2.9247 26.93779 Q-3.9728 25.24871 -4.50037 24.92426 Q-5.02795 24.59982 -6.33822 24.27903 Q-6.87914 24.1466 -7.9788 23.74034 Q-9.07847 23.33407 -11.36472 24.75458 Q-13.5205 26.09402 -14.42602 28.19535 Q-15.33153 30.29668 -15.33153 31.42746 Q-15.33153 34.66736 -13.88983 36.66587 Q-12.44813 38.66438 -11.7961 38.50301 Q-11.44957 38.41725 -11.26899 38.22048 Q-11.0884 38.0237 -7.05094 39.17191 Q0.64737 41.36122 4.38603 37.75862 Q8.1247 34.15602 8.3943 33.51537 z" />
<glyph unicode="3" horiz-adv-x="10" d="M9.81421 37.18924 Q12.39984 34.78487 12.2207 31.92341 Q12.04157 29.06194 11.86663 28.71229 Q11.33524 27.6502 11.1667 27.206 Q10.99815 26.7618 8.29085 24.90408 Q8.18139 24.82897 6.57742 24.0209 Q4.97345 23.21282 6.51208 22.39792 Q7.42829 21.91267 8.93977 21.0418 Q10.45124 20.17093 11.62034 18.63293 Q11.63964 18.60754 12.85938 17.01734 Q14.07911 15.42715 13.61803 10.53917 Q13.6162 10.51977 13.64621 9.24825 Q13.67621 7.97673 11.56561 5.20559 Q9.91043 3.0324 7.59583 1.88958 Q5.28123 0.74676 4.39581 0.56292 Q3.36181 0.34823 0.71066 0.14016 Q-1.94049 -0.06792 -4.83554 0.88529 Q-4.87967 0.89982 -6.03364 1.16875 Q-7.18762 1.43768 -9.5698 3.54603 Q-12.55088 6.18443 -12.09609 9.65306 Q-11.64131 13.12169 -11.62223 13.1541 Q-11.60455 13.18414 -10.83207 14.93317 Q-10.0596 16.6822 -6.28592 16.6772 Q-3.60121 16.67364 -3.20584 16.36045 Q-2.81047 16.04727 -1.91654 15.12981 Q-0.3947 13.56792 -0.41239 11.58319 Q-0.43009 9.59845 -1.93478 9.4469 Q-2.32242 9.7243 -2.59137 10.04129 Q-2.86032 10.35827 -4.2335 10.27092 Q-6.16762 9.18028 -5.13021 6.62656 Q-4.09281 4.07284 -1.66113 3.72712 Q-0.26166 3.52815 1.32707 4.12985 Q2.91579 4.73156 4.04917 6.6568 Q5.56343 9.22903 5.05172 11.93655 Q4.54001 14.64408 4.3502 14.98468 Q3.1401 17.15612 1.07295 18.05605 Q-0.99421 18.95598 -1.88917 19.0978 Q-3.48094 19.35004 -4.57646 19.5579 Q-5.67198 19.76575 -5.30076 21.27333 Q-3.61348 22.3172 -3.2847 22.28416 Q-2.95591 22.25112 -0.34758 23.70231 Q2.56735 25.32408 4.2963 27.83391 Q6.02526 30.34375 5.5178 32.40594 Q4.97952 34.59339 4.57557 34.96873 Q4.17161 35.34407 3.04577 35.84817 Q0.54507 36.96786 -1.02077 36.03199 Q-2.5866 35.09611 -3.02941 34.10481 Q-4.06527 31.78587 -3.08056 30.71595 Q-2.09586 29.64602 -0.94962 29.72355 Q0.22374 30.49395 0.52068 31.51023 Q0.81762 32.52652 2.00587 31.68997 Q2.79874 29.34203 0.92129 27.8782 Q-0.95615 26.41436 -1.18679 26.34877 Q-3.7832 25.61038 -5.89296 26.7767 Q-8.00271 27.94303 -8.5664 28.68462 Q-10.46162 31.178 -10.36376 33.23218 Q-10.26589 35.28636 -10.19921 35.53732 Q-10.0834 35.97316 -9.74514 37.33144 Q-9.40688 38.68972 -7.49913 38.28856 Q-6.56346 38.09181 -6.48656 37.91309 Q-6.40966 37.73438 -3.75004 38.60286 Q-2.47021 39.02078 -1.45862 39.38038 Q-0.44704 39.73998 0.85651 39.90119 Q2.21163 40.06878 4.77488 39.78026 Q7.33813 39.49174 9.81421 37.18924 z" />
<glyph unicode="4" horiz-adv-x="33" d="M30.38714 32.55284 Q30.0381 31.67311 29.61242 30.48307 Q29.18675 29.29303 27.40037 26.41418 Q26.9585 25.70208 26.74616 25.27187 Q26.53382 24.84165 24.30089 21.90994 Q24.18841 21.76226 23.63977 20.93617 Q23.09114 20.11007 16.86214 13.8893 Q23.89252 13.88001 25.10033 13.64814 Q26.30813 13.41626 26.24511 15.90566 Q26.19233 17.99055 25.31672 18.40373 Q24.44111 18.8169 24.04729 19.71246 Q24.32991 20.58562 24.75852 20.80661 Q25.18712 21.0276 26.88379 23.04301 Q28.38751 24.82923 29.49824 26.53915 Q30.60898 28.24906 30.68769 28.36345 Q31.02027 28.84677 31.99452 29.47635 Q32.96878 30.10593 33.05457 28.45425 Q33.15474 26.52579 33.12344 25.13919 Q33.09214 23.75259 33.09214 19.3624 Q33.09214 19.2222 33.09214 19.02646 Q33.09214 18.83072 33.09214 14.12146 Q33.15092 14.09199 33.24445 14.0619 Q33.33798 14.03181 37.3187 13.77776 Q37.32809 13.766 37.78091 12.20743 Q38.23374 10.64887 35.54354 10.65244 Q34.90335 10.65329 33.99775 10.61669 Q33.09214 10.5801 33.09214 7.1899 Q33.09214 4.6997 33.33194 4.18669 Q33.57173 3.67367 34.70762 2.717 Q36.34067 1.34161 36.15343 1.09317 Q35.9662 0.84474 35.9662 0.42361 Q35.74835 0.39485 35.57721 0.32501 Q35.40608 0.25518 32.41589 0.25923 Q32.27569 0.25942 31.90854 0.2599 Q31.54139 0.26038 27.8512 0.26526 Q25.36101 0.26855 23.57872 0.14711 Q21.79643 0.02567 21.59589 1.37242 Q21.90274 1.74149 23.68949 2.74483 Q25.47625 3.74817 25.83184 4.99228 Q26.1077 5.95743 26.41072 8.3108 Q26.71374 10.66417 24.72354 10.66673 Q24.58335 10.66691 24.2162 10.66747 Q23.84905 10.66802 20.15886 10.67276 Q20.01866 10.67294 19.65151 10.67342 Q19.28436 10.6739 15.59417 10.67878 Q14.20398 10.68062 13.00364 10.85701 Q11.80329 11.03341 12.21292 13.38825 Q12.29251 13.84579 12.33727 13.9508 Q12.38203 14.05581 14.22289 15.94031 Q14.45657 16.17953 15.57606 17.47539 Q16.69555 18.77124 18.11132 21.17612 Q18.41006 21.68357 18.76635 21.78851 Q19.12263 21.89345 20.3561 26.53619 Q20.40885 26.73474 20.96565 28.72206 Q21.52245 30.70937 21.07931 34.75355 Q20.85357 36.81368 22.17713 36.99407 Q23.50069 37.17446 24.46995 37.2944 Q24.53977 37.30304 25.85793 37.38374 Q27.1761 37.46444 28.99707 38.84756 Q32.68859 41.65145 31.5933 37.24189 Q30.49802 32.83232 30.38714 32.55284 z" />
<glyph unicode="5" horiz-adv-x="56" d="M32.05026 33.9783 Q30.47132 32.19368 27.86145 31.30517 Q25.25158 30.41666 21.96001 31.29533 Q20.26589 31.74757 19.92924 31.4132 Q19.59258 31.07884 19.51389 30.52025 Q19.4698 30.20728 19.41188 30.02017 Q19.35397 29.83307 18.93015 25.93454 Q20.25138 27.13391 22.51728 27.5576 Q24.78318 27.98128 25.26783 27.92754 Q25.33754 27.91981 26.89256 27.86881 Q28.44757 27.81781 30.94766 26.09472 Q30.97649 26.07485 32.72238 25.01913 Q34.46827 23.9634 35.60826 20.24196 Q36.16484 18.42503 36.65855 17.73859 Q37.15227 17.05215 36.23832 12.2727 Q35.71048 9.51238 35.55005 9.07078 Q35.38963 8.62918 34.23695 6.77156 Q32.26703 3.59689 29.3508 2.09768 Q26.43457 0.59847 25.53654 0.47317 Q22.79702 0.09094 22.64515 -0.14382 Q22.49328 -0.37858 18.8375 0.82485 Q18.0313 1.09024 17.20783 1.20233 Q16.38435 1.31441 14.18616 3.6848 Q14.16382 3.70889 13.08628 4.66884 Q12.00874 5.6288 12.00874 10.51643 Q12.00874 12.60406 11.78385 12.92454 Q11.55896 13.24501 13.44491 15.08248 Q15.29471 16.88472 16.81244 17.25647 Q18.33018 17.62822 20.00496 16.83429 Q22.93356 15.44599 22.7128 12.92015 Q22.49203 10.39431 20.79254 10.7828 Q18.54372 11.29686 18.20282 8.82317 Q17.86192 6.34949 19.95864 5.11335 Q22.44572 3.64707 24.46434 4.87658 Q26.48297 6.10608 27.0283 6.98493 Q28.68186 9.64978 28.40031 13.25747 Q28.11876 16.86515 28.10311 16.91625 Q27.45867 19.02002 25.27544 21.14528 Q23.0922 23.27054 20.27367 22.08753 Q19.40398 21.7225 19.42348 21.63306 Q19.44297 21.54363 16.92878 19.43272 Q16.29076 18.89704 15.86036 18.64698 Q15.42995 18.39693 14.26028 19.76981 Q14.22943 19.90868 14.13686 20.54223 Q14.0443 21.17577 14.51046 23.85561 Q15.0781 27.1188 14.98348 27.1345 Q14.88886 27.15019 15.61306 31.75773 Q15.96461 33.99437 16.18174 36.73316 Q16.39888 39.47196 17.5959 40.11269 Q19.16837 39.82982 20.47881 39.02089 Q21.78924 38.21195 23.11821 37.95578 Q23.12843 37.95381 24.97634 37.54941 Q26.82425 37.14501 30.57703 39.12266 Q32.38068 40.07315 32.42517 40.12754 Q32.46965 40.18193 32.50428 40.19492 Q34.14759 40.81141 34.33568 38.7927 Q34.52376 36.77399 32.05026 33.9783 z" />
<glyph unicode="6" horiz-adv-x="25" d="M3.98019 39.18523 Q4.00989 39.15761 5.16524 38.25233 Q6.32059 37.34704 5.48004 34.6053 Q4.73001 32.15882 2.73529 31.55094 Q0.74056 30.94306 -0.30369 31.20148 Q-3.90903 32.09368 -3.00453 33.73331 Q-2.10003 35.37294 -2.32309 36.33106 Q-4.09891 37.75405 -6.15884 35.43261 Q-8.21878 33.11117 -8.46952 32.51599 Q-9.34364 30.44111 -9.51512 30.00641 Q-9.68661 29.57172 -10.29286 26.40137 Q-11.00088 22.69883 -10.0875 18.02442 Q-9.17412 13.35002 -8.83223 12.62634 Q-8.44814 11.81334 -8.28555 10.84534 Q-8.12296 9.87734 -5.41101 8.1027 Q-3.11533 6.60046 -1.61514 7.10652 Q-0.11496 7.61258 0.52956 8.15371 Q2.55204 9.85177 2.59372 12.80858 Q2.63539 15.76539 2.38231 16.59159 Q2.11608 17.46071 1.35087 18.99315 Q0.58565 20.52558 -0.72521 21.42852 Q-2.61345 22.72916 -3.60747 22.64594 Q-4.6015 22.56272 -5.3914 21.66992 Q-6.27969 20.66592 -6.65193 19.52471 Q-7.02418 18.3835 -6.64618 16.57405 Q-6.4994 15.87142 -6.43253 14.72594 Q-6.36566 13.58046 -7.79312 14.3699 Q-7.79688 14.37551 -8.83179 15.46194 Q-9.86671 16.54836 -9.37139 21.06737 Q-9.12298 23.33374 -9.47263 23.6946 Q-9.82227 24.05546 -7.42061 27.05439 Q-5.20706 29.81842 -2.21135 29.29155 Q0.78437 28.76469 1.51966 28.25821 Q3.73731 26.73066 5.06773 23.64463 Q6.39815 20.5586 6.42112 20.44864 Q7.23247 16.56469 6.63966 13.05624 Q6.04684 9.5478 5.95058 9.25432 Q4.67046 5.35164 1.77345 3.00099 Q-1.12356 0.65034 -1.26437 0.59802 Q-3.56495 -0.2568 -4.29058 -0.26754 Q-5.01621 -0.27828 -6.75401 0.05626 Q-7.16615 0.1356 -7.95423 0.06701 Q-8.74231 -0.00158 -11.14572 2.02262 Q-11.52125 2.3389 -12.03366 2.25979 Q-12.54608 2.18068 -14.83162 6.28193 Q-15.60854 7.67606 -16.24391 9.12744 Q-16.87927 10.57883 -17.40979 14.82366 Q-17.62407 16.53818 -17.56971 19.73112 Q-17.51534 22.92406 -16.50792 26.44874 Q-16.16151 27.66073 -16.34982 27.76348 Q-16.53813 27.86623 -14.27285 32.15111 Q-11.91409 36.6128 -11.50414 36.66153 Q-11.09419 36.71025 -10.99867 36.813 Q-9.77962 38.12423 -9.65513 38.54888 Q-9.53064 38.97354 -6.3913 40.13994 Q-6.15297 40.22849 -5.85819 40.33998 Q-5.5634 40.45147 -5.41101 40.48175 Q-4.12373 40.73752 -1.11214 40.9288 Q1.89945 41.12008 3.98019 39.18523 z" />
<glyph unicode="7" horiz-adv-x="31.07692" d="M-3.56081 38.53151 Q-3.32482 38.45382 -1.17987 37.7448 Q0.96509 37.03577 4.07649 37.98517 Q7.04137 38.88986 7.61601 39.36233 Q8.19065 39.8348 9.80908 39.90082 Q10.34433 39.52399 10.72938 38.78213 Q11.11444 38.04027 9.45773 36.25831 Q7.97174 34.65997 7.75788 34.475 Q7.54403 34.29003 5.52813 31.20585 Q3.5666 28.20485 2.28244 24.41192 Q0.99828 20.61899 0.64618 18.11978 Q0.58121 17.65862 0.40963 17.47073 Q0.23805 17.28283 0.48899 12.45211 Q0.62274 9.87734 1.3618 7.57128 Q2.10087 5.26523 5.0011 1.97956 Q5.65144 1.24279 5.22849 0.68669 Q4.80554 0.13059 3.3183 0.13255 Q-1.66893 0.13912 -4.01069 0.12693 Q-6.35245 0.11475 -7.0466 1.76427 Q-7.85843 3.69344 -7.81378 3.77908 Q-7.76912 3.86472 -8.08216 6.72156 Q-8.27493 8.48081 -8.25292 8.62877 Q-8.23092 8.77672 -7.79553 12.25961 Q-7.74992 12.62447 -7.8121 12.6463 Q-7.87428 12.66812 -7.00037 15.95701 Q-6.78131 16.78142 -6.72131 17.33215 Q-6.66131 17.88288 -4.91999 21.36325 Q-4.20878 22.78474 -3.65635 23.86773 Q-3.10392 24.95072 -0.9719 27.89506 Q-0.83466 28.08459 -0.79447 28.15408 Q-0.75428 28.22357 1.59853 31.31274 Q1.8915 31.6974 1.97957 31.71082 Q2.06763 31.72425 3.15187 33.25238 Q3.09871 33.23858 3.07281 33.24028 Q3.04691 33.24198 0.46125 31.95222 Q0.38118 31.91228 -1.28409 30.96365 Q-2.94936 30.01501 -6.58429 30.01981 Q-8.22152 30.02197 -8.99355 29.68857 Q-9.76559 29.35518 -12.07649 31.94099 Q-12.13747 32.25471 -12.22059 32.32844 Q-12.30371 32.40216 -10.96695 35.07396 Q-10.23337 36.54017 -9.65186 38.40471 Q-9.07035 40.26925 -8.91431 40.50798 Q-7.46051 40.61296 -6.86149 40.01691 Q-6.26248 39.42086 -3.56081 38.53151 z" />
<glyph unicode="8" horiz-adv-x="23.6" d="M-0.79733 40.22671 Q2.74637 39.34975 4.30769 36.16751 Q5.86902 32.98527 5.92284 32.36417 Q5.92334 32.3584 6.26959 30.91366 Q6.61583 29.46893 4.1236 27.04078 Q2.0975 25.06678 -0.10125 25.08904 Q-2.3 25.1113 -3.30727 25.73713 Q-5.79804 27.28469 -6.14882 27.97791 Q-6.49959 28.67114 -5.89818 29.95077 Q-5.48385 30.006 -3.96566 29.43057 Q-2.44747 28.85513 -1.55301 29.97203 Q0.05945 31.98547 -0.05969 32.51276 Q-0.17882 33.04006 -0.78833 34.40616 Q-2.1484 37.4545 -5.15948 36.62002 Q-8.17056 35.78554 -8.30916 35.60356 Q-9.56939 33.94892 -9.71496 33.29658 Q-9.86052 32.64424 -9.55064 31.16107 Q-9.5396 31.10823 -9.34569 29.80406 Q-9.15177 28.4999 -6.69884 26.72219 Q-5.62147 25.94139 -5.65249 25.80425 Q-5.68352 25.66711 -2.01181 24.11611 Q-1.88362 24.06196 -1.72391 24.19283 Q-1.5642 24.32371 1.95551 22.24866 Q5.34368 20.25116 5.71131 19.72106 Q6.07894 19.19095 6.12975 19.13047 Q7.66013 17.30855 7.60114 16.94741 Q7.54216 16.58626 7.54216 13.25409 Q7.54216 11.57192 7.62934 9.4977 Q7.71653 7.42348 7.09235 6.41756 Q6.57447 5.58295 6.33061 4.70362 Q6.08675 3.82429 2.65722 2.11422 Q2.58051 2.07597 0.21957 1.24638 Q-2.14136 0.41678 -2.84846 0.34023 Q-3.41032 0.2794 -4.54911 -0.037 Q-5.6879 -0.3534 -9.46067 0.80775 Q-10.36472 1.08599 -11.02604 1.05949 Q-11.68736 1.03298 -14.25565 3.30602 Q-15.13864 4.0875 -15.68647 4.18331 Q-16.2343 4.27912 -17.30537 7.54725 Q-17.42821 7.92207 -17.76043 10.5634 Q-18.09265 13.20474 -16.10887 15.56129 Q-15.92905 15.7749 -14.05815 17.37138 Q-12.18726 18.96785 -8.9299 18.34066 Q-8.87516 18.33012 -7.79761 18.216 Q-6.72007 18.10188 -6.38397 16.67301 Q-7.50974 15.52575 -8.319 15.39559 Q-9.12826 15.26542 -10.06342 12.90844 Q-11.12933 10.22191 -10.07273 8.06527 Q-9.01614 5.90863 -8.40812 5.42142 Q-6.35599 3.77701 -3.95392 4.36004 Q-1.55185 4.94307 -0.83331 5.60935 Q1.05767 7.36278 1.12979 9.44508 Q1.20191 11.52738 1.0469 12.11113 Q0.91884 12.5934 0.76441 13.56044 Q0.60999 14.52748 -3.17232 16.64179 Q-3.50749 16.82915 -6.11931 18.10438 Q-8.73114 19.37961 -9.02886 19.53729 Q-13.25732 21.77676 -13.28386 22.14213 Q-13.3104 22.5075 -13.32904 22.52969 Q-13.34794 22.55219 -14.57246 23.75119 Q-15.79698 24.9502 -16.22582 28.38105 Q-16.27707 28.79107 -16.43366 30.43813 Q-16.59024 32.08519 -15.39817 34.60533 Q-14.86934 35.72332 -13.12195 37.70356 Q-11.37455 39.68379 -9.34501 40.12231 Q-9.26087 40.14049 -5.36019 40.26554 Q-1.45952 40.39059 -0.79733 40.22671 z" />
<glyph unicode="9" horiz-adv-x="31.07692" d="M6.56683 37.71297 Q6.97873 37.3829 8.32657 36.30628 Q9.67441 35.22967 11.0536 32.13846 Q12.71845 28.407 12.73413 26.93181 Q12.74982 25.45663 12.9157 22.59495 Q13.15026 18.54851 13.06048 16.67971 Q12.97071 14.8109 11.7009 11.18454 Q10.72899 8.40893 10.93504 8.17628 Q11.14109 7.94363 8.20725 4.62749 Q8.15614 4.56972 6.8996 3.01411 Q5.64305 1.45851 2.284 0.50324 Q1.85578 0.38146 -0.24609 0.09644 Q-2.34797 -0.18859 -4.17128 0.33445 Q-4.21482 0.34694 -5.91442 0.77988 Q-7.61403 1.21281 -8.99501 4.13597 Q-9.62931 5.47861 -9.52433 7.78257 Q-9.41934 10.08652 -7.53193 11.44942 Q-7.30613 11.61247 -6.6715 12.4964 Q-6.03686 13.38034 -3.01855 12.17942 Q0.26915 10.87132 -0.04181 9.88459 Q-0.35277 8.89787 -0.78403 8.68281 Q-2.73829 7.70827 -1.27951 6.21418 Q0.17927 4.72009 1.61896 5.15937 Q2.33028 5.37641 3.53303 5.87034 Q4.73578 6.36427 5.90179 9.48973 Q7.08655 12.66546 7.15976 15.73942 Q7.23296 18.81337 7.16979 19.48132 Q6.98008 21.48717 7.0378 22.30321 Q7.09552 23.11924 5.52051 26.45308 Q4.26682 29.10677 4.37571 29.36369 Q4.48461 29.62061 1.86724 31.42352 Q-0.54505 33.08517 -2.68991 32.58532 Q-4.83476 32.08546 -5.46588 31.40663 Q-7.59504 29.11651 -6.63268 26.04791 Q-5.67032 22.97931 -5.65209 22.95649 Q-3.38727 20.12246 -1.0735 21.49629 Q1.24027 22.87013 1.37068 23.44375 Q1.79188 25.29647 0.93595 26.76658 Q0.08003 28.23669 0.26229 28.78323 Q0.61599 28.87119 1.22288 29.10883 Q1.82978 29.34648 3.72048 26.73035 Q5.28951 24.55931 5.37968 21.48611 Q5.46986 18.4129 4.38551 16.75393 Q2.70057 14.17609 0.2045 13.75233 Q-2.29158 13.32857 -3.51511 13.75843 Q-3.64812 13.80516 -5.29389 14.2406 Q-6.93967 14.67604 -9.05708 18.27914 Q-9.09824 18.34918 -10.24369 20.31995 Q-11.38914 22.29072 -11.38914 26.00551 Q-11.38914 29.43507 -11.27236 29.98759 Q-11.15559 30.54012 -10.44035 32.23786 Q-9.74655 33.88471 -9.7835 33.98698 Q-9.82046 34.08926 -8.36544 35.90611 Q-7.72305 36.70825 -7.66469 37.11741 Q-7.60632 37.52657 -4.28655 39.00421 Q-2.38092 39.85241 -2.31842 39.70252 Q-2.25592 39.55263 -1.01458 39.79792 Q-1.01291 39.79825 1.32165 39.92178 Q3.65621 40.04531 6.56683 37.71297 z" />
<glyph unicode=":" horiz-adv-x="56" d="M25.41421 16.69588 Q25.14362 16.42528 24.76315 16.26769 Q24.38268 16.11009 24 16.11009 Q23.61732 16.11009 23.23685 16.26769 Q22.85639 16.42528 22.58579 16.69588 Q22.31519 16.96648 22.1576 17.34695 Q22 17.72741 22 18.11009 Q22 18.49278 22.1576 18.87324 Q22.31519 19.25371 22.58579 19.52431 Q22.85638 19.7949 23.23685 19.95249 Q23.61732 20.11009 24 20.11009 Q24.38268 20.11009 24.76315 19.95249 Q25.14362 19.7949 25.41421 19.52431 Q25.68481 19.25371 25.8424 18.87324 Q26 18.49278 26 18.11009 Q26 17.72741 25.8424 17.34695 Q25.68481 16.96648 25.41421 16.69588 zM25.57935 6.62248 Q25.30875 6.35189 24.92828 6.1943 Q24.54782 6.0367 24.16514 6.0367 Q23.78245 6.0367 23.40198 6.19429 Q23.02151 6.35188 22.75092 6.62248 Q22.48033 6.89308 22.32273 7.27355 Q22.16514 7.65401 22.16514 8.0367 Q22.16514 8.41938 22.32273 8.79985 Q22.48032 9.18031 22.75092 9.45091 Q23.02152 9.72151 23.40198 9.8791 Q23.78245 10.0367 24.16514 10.0367 Q24.54782 10.0367 24.92828 9.8791 Q25.30875 9.72151 25.57935 9.45091 Q25.84995 9.18031 26.00755 8.79985 Q26.16514 8.41938 26.16514 8.0367 Q26.16514 7.65401 26.00755 7.27355 Q25.84995 6.89308 25.57935 6.62248 z" />
<glyph unicode=";" horiz-adv-x="56" d="M28.77741 -1.48603 Q28.6262 -2.20971 28.38192 -3.22268 Q28.13765 -4.23566 26.55491 -5.85822 Q26.50841 -5.90589 26.49632 -6.01268 Q26.48423 -6.11947 24.63363 -7.01465 Q24.59021 -6.82361 24.18804 -6.40159 Q23.78586 -5.97956 24.58479 -4.62121 Q25.81188 -2.53488 25.21228 -2.08209 Q24.61267 -1.6293 24.31613 -0.59146 Q23.66134 1.70017 24.63353 2.2349 Q25.60571 2.76964 25.61753 2.77221 Q28.32731 3.36187 28.6648 1.47604 Q29.00228 -0.4098 28.77741 -1.48603 zM27.54265 5.46652 Q27.27206 5.19592 26.89159 5.03832 Q26.51112 4.88073 26.12844 4.88073 Q25.74576 4.88073 25.36529 5.03832 Q24.98483 5.19592 24.71423 5.46652 Q24.44363 5.73712 24.28603 6.11759 Q24.12844 6.49805 24.12844 6.88073 Q24.12844 7.26342 24.28604 7.64388 Q24.44363 8.02434 24.71423 8.29495 Q24.98482 8.56555 25.36529 8.72314 Q25.74576 8.88073 26.12844 8.88073 Q26.51112 8.88073 26.89158 8.72314 Q27.27205 8.56555 27.54265 8.29495 Q27.81325 8.02435 27.97085 7.64389 Q28.12844 7.26342 28.12844 6.88073 Q28.12844 6.49805 27.97085 6.11759 Q27.81325 5.73712 27.54265 5.46652 z" />
<glyph unicode="&#x3c;" horiz-adv-x="56" d="M46.59701 31.00092 Q46.42038 29.58812 46.23681 28.93426 Q46.05324 28.2804 42.16991 26.12066 Q37.93785 23.76697 34.13085 21.69196 Q30.32385 19.61696 30.1535 19.52722 Q29.31872 19.08749 28.08128 18.51098 Q26.84384 17.93447 28.01661 17.27862 Q35.77812 12.93817 37.53282 12.04349 Q39.28753 11.1488 41.04876 10.11008 Q45.56385 7.44721 45.74467 7.22292 Q45.9255 6.99862 46.27121 6.01034 Q46.86633 4.30907 46.05492 1.97838 Q45.2435 -0.35232 40.56006 -0.037 Q39.67957 0.02228 38.94024 0.42838 Q38.2009 0.83448 36.28627 1.90522 Q36.03078 2.0481 35.85804 2.1074 Q35.68529 2.16671 27.26917 6.87321 Q26.88276 7.0893 26.68392 7.17811 Q26.48508 7.26691 22.25754 9.63108 Q21.56566 10.018 20.97504 10.27797 Q20.38442 10.53794 17.24591 12.38895 Q16.77919 12.66421 14.91399 13.7292 Q13.04879 14.79418 13.04879 15.96008 Q13.04879 16.00412 12.93416 18.41853 Q12.81952 20.83293 14.82155 21.94639 Q15.60157 22.38021 15.83013 22.47002 Q16.05869 22.55984 24.83523 27.44093 Q25.44046 27.77753 27.13724 28.67641 Q28.83402 29.5753 34.85849 32.92586 Q37.0805 34.16165 38.60131 35.00767 Q40.12213 35.85368 41.00359 35.99924 Q43.81535 36.46355 45.28335 34.34945 Q46.75134 32.23535 46.59701 31.00092 z" />
<glyph unicode="=" horiz-adv-x="56" d="M18.00145 26.5916 Q36.46785 26.56311 37.87753 26.56094 Q39.28722 26.55877 39.30365 26.55874 Q43.57007 26.55216 44.43248 26.5105 Q45.29489 26.46884 45.29489 24.55241 Q45.29489 24.43599 45.51861 22.27488 Q45.74233 20.11377 43.07591 20.11788 Q24.60951 20.14637 23.19983 20.14854 Q21.79014 20.15071 21.77372 20.15074 Q14.6573 20.16172 13.85151 20.21631 Q13.04573 20.2709 13.04573 22.08732 Q13.04573 26.55375 14.44038 26.57434 Q15.83503 26.59494 18.00145 26.5916 zM18.00145 15.9405 Q36.46785 15.91201 37.87753 15.90984 Q39.28722 15.90767 39.30365 15.90764 Q43.57007 15.90106 44.43248 15.8594 Q45.29489 15.81774 45.29489 13.90131 Q45.29489 13.78489 45.51861 11.62378 Q45.74233 9.46267 43.07591 9.46678 Q24.60951 9.49527 23.19983 9.49745 Q21.79014 9.49962 21.77372 9.49965 Q14.6573 9.51062 13.85151 9.56521 Q13.04573 9.6198 13.04573 11.43623 Q13.04573 15.90265 14.44038 15.92325 Q15.83503 15.94385 18.00145 15.9405 z" />
<glyph unicode="&#x3e;" horiz-adv-x="56" d="M15.98585 35.13196 Q20.49667 33.44286 21.09165 33.21911 Q21.68664 32.99537 24.67519 31.80553 Q25.61837 31.43002 26.42531 31.03968 Q27.23225 30.64934 32.10505 28.93618 Q36.03738 27.55367 36.32202 27.33216 Q36.60666 27.11065 39.54549 26.07741 Q40.69481 25.67333 46.19002 23.54369 Q51.68522 21.41404 51.88625 21.2529 Q54.77527 18.93713 51.68028 16.78117 Q48.58528 14.62521 47.84322 14.2951 Q47.00979 13.92435 45.56469 13.28708 Q44.11959 12.64981 43.11224 12.1752 Q42.37871 11.8296 41.82186 11.56073 Q41.26501 11.29185 33.67146 7.9142 Q33.4776 7.82797 33.31486 7.74791 Q33.15211 7.66785 30.12587 6.32163 Q29.29244 5.95088 27.84735 5.31358 Q26.40226 4.67629 25.39489 4.20173 Q25.29459 4.15448 25.02124 4.01889 Q24.74789 3.88329 21.85989 2.59856 Q16.32104 0.13459 15.66445 -0.2209 Q15.00787 -0.5764 13.04355 -0.57329 Q11.77922 -0.57129 11.47896 -0.76267 Q11.1787 -0.95405 9.80489 0.76538 Q9.7134 2.0464 9.67256 2.83921 Q9.63173 3.63201 13.80558 5.71232 Q14.35121 5.98427 14.40192 6.00746 Q14.45262 6.03065 17.34059 7.31549 Q17.39739 7.34076 17.62866 7.45129 Q17.85993 7.56183 20.88617 8.90806 Q22.67896 9.70559 23.87116 10.23632 Q25.06337 10.76704 25.61715 11.02796 Q27.84331 12.07682 29.19304 12.72084 Q30.54277 13.36486 33.87255 14.76163 Q36.19043 15.73393 39.30432 17.08818 Q42.41821 18.44243 40.8473 18.99476 Q40.5942 19.08375 39.30205 19.60681 Q38.0099 20.12987 33.40686 21.85354 Q32.7825 22.08734 32.62564 22.16784 Q32.46879 22.24833 29.69193 23.28821 Q29.44217 23.38174 29.25662 23.46574 Q29.07106 23.54974 25.96642 24.71232 Q25.34206 24.94612 25.1852 25.02662 Q25.02835 25.10711 22.25149 26.14699 Q22.18903 26.17038 21.76684 26.30225 Q21.34466 26.43412 17.28767 28.04932 Q14.81151 29.03515 12.29294 29.91025 Q9.77437 30.78534 9.7308 32.50644 Q9.68375 34.36495 10.32843 35.04446 Q10.97311 35.72396 11.45597 35.87997 Q12.03698 36.06769 12.45909 36.18111 Q12.8812 36.29452 15.98585 35.13196 z" />
<glyph unicode="?" horiz-adv-x="56" d="M28.2333 40.17804 Q28.92789 39.74824 30.42115 38.7639 Q31.91442 37.77956 32.64349 35.03573 Q33.14274 33.15682 33.3815 32.49194 Q33.62027 31.82706 33.01224 29.15101 Q32.7686 28.0787 31.9696 26.04208 Q31.17061 24.00545 28.72004 21.49063 Q26.23459 18.94001 25.51079 18.53657 Q24.78699 18.13314 23.23312 15.02353 Q22.41836 13.39303 22.36161 12.74048 Q22.30486 12.08793 21.25664 10.36018 Q20.83996 10.37442 19.75915 10.49917 Q18.67834 10.62392 18.10019 12.50981 Q17.83961 13.3598 17.43269 13.7461 Q17.02578 14.13239 18.58693 18.07107 Q18.74544 18.47098 18.74593 18.53674 Q18.74642 18.6025 21.62539 22.20472 Q23.63111 24.71432 24.25862 25.16429 Q24.88614 25.61426 25.81433 27.57876 Q25.88885 27.73648 26.75692 29.66667 Q27.62499 31.59687 25.50459 34.52554 Q25.49651 34.5367 24.96739 35.75249 Q24.43826 36.96828 20.22416 36.08258 Q19.43886 35.91753 16.61304 34.45076 Q13.78723 32.98398 13.76374 32.97724 Q11.46483 32.31761 11.22478 34.61983 Q10.98472 36.92206 12.11177 38.07866 Q13.44569 39.44756 15.94029 40.52039 Q18.43489 41.59322 20.46015 41.68779 Q20.60364 41.69449 23.40972 41.56046 Q26.21579 41.42643 28.2333 40.17804 zM23.77886 2.79661 Q23.95521 -1.20048 21.12656 -1.5312 Q18.2979 -1.86193 17.64294 -0.95732 Q17.28299 -0.46017 16.7691 0.79474 Q16.25521 2.04965 17.40695 5.04556 Q17.8494 5.44198 20.73572 5.89666 Q23.62203 6.35135 23.77886 2.79661 z" />
<glyph unicode="@" horiz-adv-x="22" d="M3.74053 37.2993 Q4.84704 36.61408 6.90122 35.53971 Q8.9554 34.46534 10.53153 30.23962 Q11.0275 28.90989 11.60779 28.16643 Q12.18808 27.42297 12.13948 23.53533 Q12.08833 19.4435 11.02207 17.14535 Q9.95582 14.8472 9.8473 14.74125 Q9.028 13.94133 8.39595 13.14558 Q7.76391 12.34982 5.10899 11.16263 Q2.31343 9.91255 0.02778 10.8456 Q-2.25786 11.77864 -4.50447 11.22396 Q-5.75329 10.91563 -7.5825 10.61053 Q-9.4117 10.30543 -11.14153 11.32169 Q-11.87696 11.75375 -12.95469 12.83306 Q-14.03241 13.91237 -14.03241 16.74209 Q-14.03241 16.98849 -14.14859 18.72364 Q-14.26478 20.45879 -12.59552 23.61969 Q-10.81801 26.98558 -9.05308 27.8386 Q-7.28815 28.69161 -6.45454 28.56781 Q-4.88212 28.33428 -3.28291 28.41787 Q-1.6837 28.50146 0.1312 27.68317 Q1.50464 24.75816 1.41114 23.84774 Q1.31765 22.93732 1.48256 20.87606 Q1.55607 19.95725 1.45599 18.05198 Q1.3559 16.14671 4.28791 15.37006 Q7.2022 17.48042 7.49393 20.98415 Q7.78567 24.48789 7.31564 25.48183 Q6.49907 27.20858 6.43601 28.38095 Q6.37294 29.55331 2.85102 32.09848 Q2.56898 32.3023 0.04318 33.67847 Q-2.48262 35.05463 -5.56503 34.76077 Q-9.21637 34.41267 -9.50579 34.64703 Q-9.79521 34.88139 -13.84425 31.9493 Q-17.64947 29.19377 -17.7175 28.23486 Q-17.78553 27.27595 -18.66809 25.68501 Q-18.67037 25.6809 -19.35346 24.85816 Q-20.03655 24.03543 -20.03655 18.73904 Q-20.03655 15.19264 -20.03823 14.89126 Q-20.0399 14.58988 -18.75361 11.7095 Q-18.03506 10.10046 -16.72743 8.54607 Q-15.41981 6.99168 -13.3995 5.98301 Q-12.54228 5.55503 -10.98462 4.72049 Q-9.42696 3.88594 -7.2414 3.83222 Q-6.75361 3.82023 -6.65085 3.73145 Q-6.5481 3.64268 1.36282 3.97543 Q2.67706 2.13645 0.00291 1.25971 Q-2.67125 0.38297 -4.07683 0.32787 Q-7.20824 0.20512 -8.12162 0.21436 Q-9.03501 0.2236 -11.80866 0.80112 Q-14.59164 1.38058 -16.69673 2.6409 Q-18.80183 3.90121 -19.301 4.3878 Q-19.33313 4.41912 -20.23372 5.18643 Q-21.13432 5.95373 -22.89322 9.10635 Q-23.57754 10.33291 -24.56597 13.14951 Q-25.55441 15.96611 -25.27093 20.27469 Q-25.22985 20.89907 -25.29793 21.22291 Q-25.36601 21.54674 -24.44985 24.9965 Q-23.10661 30.05441 -19.68063 33.06045 Q-16.25464 36.06648 -16.17064 36.1214 Q-15.2915 36.69618 -13.29879 37.60434 Q-11.30609 38.51251 -7.99406 39.03542 Q-3.59548 39.72988 -0.14615 38.65 Q3.30318 37.57013 3.74053 37.2993 zM-5.87294 25.98526 Q-6.33166 25.90847 -6.91911 25.60333 Q-7.50656 25.2982 -7.60063 25.24843 Q-8.17277 24.94575 -9.97773 22.87729 Q-11.78269 20.80884 -11.19285 15.42704 Q-10.9042 12.79335 -9.08155 12.39921 Q-7.25889 12.00506 -4.8808 13.90929 Q-1.80123 16.37522 -1.98549 18.70485 Q-2.16974 21.03447 -2.09256 22.20767 Q-1.84444 25.97926 -3.42269 26.05525 Q-5.00093 26.13124 -5.87294 25.98526 z" />
<glyph unicode="A" horiz-adv-x="24" d="M-3.89996 43.95456 Q-3.63427 43.56782 -3.65741 43.48826 Q-3.68055 43.40869 -2.86635 41.22428 Q-1.85948 38.52294 -1.04844 35.76978 Q-0.2374 33.01663 0.90804 29.94353 Q1.84506 27.4296 3.22765 23.03501 Q4.61023 18.64042 4.62436 18.60478 Q5.66764 15.97279 6.08553 14.48547 Q6.50342 12.99815 6.51737 12.97021 Q6.5287 12.94752 7.93493 9.19198 Q9.34115 5.43644 9.57172 4.73297 Q10.1904 2.84534 11.45491 2.68833 Q12.71941 2.53132 12.37058 0.5259 Q8.87269 -0.16995 8.16488 0.07604 Q7.45706 0.32203 6.62189 0.32298 Q6.58671 0.32302 6.33423 0.28145 Q6.08175 0.23987 2.23198 0.32766 Q2.23198 2.05379 3.07877 1.95088 Q3.92556 1.84797 4.46177 2.27636 Q4.98306 2.69283 5.49366 3.29124 Q6.00426 3.88966 4.97277 6.20118 Q4.85943 6.45517 3.55732 10.30146 Q2.25521 14.14775 1.79067 16.19219 Q1.09348 19.26054 0.80953 19.62738 Q0.52558 19.99422 -0.02104 21.90797 Q-1.268 26.27367 -1.65899 27.17219 Q-2.04997 28.07071 -3.15669 31.94539 Q-4.88428 37.99379 -5.78245 40.70466 Q-6.68062 43.41552 -6.75688 43.71372 Q-6.21366 45.6144 -5.09036 44.83331 Q-3.96706 44.05223 -3.89996 43.95456 zM-6.54784 38.80098 Q-6.53698 38.76009 -6.3226 38.56205 Q-6.10822 38.36401 -7.59305 34.62123 Q-8.95049 31.19957 -9.12874 30.61307 Q-9.30699 30.02658 -9.63703 29.14183 Q-10.13779 27.79943 -10.95992 25.85683 Q-11.78204 23.91424 -10.65902 22.36063 Q-8.97858 20.03588 -7.41351 18.91144 Q-5.84844 17.787 -5.8278 17.77975 Q-5.04029 17.50329 -4.99465 17.33175 Q-4.94901 17.1602 -0.79915 16.74079 Q0.29984 14.54165 -1.17489 14.38795 Q-2.64962 14.23424 -3.9348 14.23561 Q-4.16997 14.23586 -5.79569 14.28368 Q-7.42141 14.3315 -9.85769 15.84459 Q-10.85235 16.46234 -12.37972 17.82846 Q-13.9071 19.19459 -14.60762 16.55808 Q-14.87525 15.55082 -16.35181 12.45599 Q-17.82837 9.36116 -18.40524 7.19002 Q-19.28916 3.86324 -17.25081 2.90252 Q-15.21245 1.9418 -15.01409 1.80935 Q-15.0237 1.72008 -15.12945 1.03318 Q-15.2352 0.34629 -17.20904 0.34839 Q-23.89421 0.35551 -25.26648 0.33582 Q-26.63876 0.31614 -27.03408 1.19503 Q-26.01045 2.11664 -25.25373 2.10348 Q-24.49701 2.09031 -23.23646 3.66466 Q-21.13187 6.29315 -20.03026 8.66689 Q-18.92865 11.04063 -18.05683 13.53063 Q-16.60793 17.66881 -15.84313 18.94573 Q-15.07833 20.22265 -16.02446 21.59985 Q-18.38526 25.03626 -20.08921 25.45341 Q-21.79316 25.87057 -23.02741 25.61398 Q-24.98426 25.20717 -25.66489 23.5462 Q-26.34551 21.88524 -25.04817 19.37968 Q-25.27768 17.95692 -26.81277 18.81558 Q-28.34787 19.67424 -28.18381 22.83223 Q-28.14885 23.50518 -28.1155 24.30214 Q-28.08215 25.09909 -26.38372 26.67439 Q-24.5388 28.38556 -23.20579 28.60205 Q-21.87279 28.81853 -20.92537 28.61964 Q-20.87764 28.60962 -18.57417 27.89569 Q-16.2707 27.18176 -14.38696 25.43057 Q-14.2888 25.43624 -13.79357 25.31938 Q-13.29833 25.20251 -12.25007 28.62201 Q-12.07767 29.18439 -10.00403 34.84463 Q-7.93039 40.50487 -7.69758 40.89264 Q-7.65949 40.88498 -7.35193 40.77789 Q-7.04437 40.6708 -6.54784 38.80098 z" />
<glyph unicode="B" horiz-adv-x="33.56923" d="M11.04931 37.53141 Q13.52368 35.73864 14.10072 33.09457 Q14.67776 30.4505 14.08359 29.32578 Q14.07864 29.31641 13.37856 27.72887 Q12.67848 26.14133 10.20229 24.5268 Q10.1966 24.52309 10.19594 24.51802 Q10.19528 24.51295 7.59688 23.0823 Q7.67024 22.94284 7.87572 22.77962 Q8.0812 22.6164 11.08148 21.93112 Q12.52575 21.60124 14.47518 20.57623 Q16.42462 19.55122 18.17933 16.86237 Q18.29243 16.68906 18.87918 16.05298 Q19.46594 15.41691 19.46594 11.19979 Q19.46594 10.23267 19.5064 10.05019 Q19.54685 9.86772 18.83336 8.35922 Q18.20783 7.0367 17.99822 6.38806 Q17.78861 5.73941 15.12361 3.3885 Q15.12081 3.38603 14.24055 2.4263 Q13.36029 1.46658 9.2266 0.60751 Q7.08885 0.16324 3.03843 0.18954 Q-1.01199 0.21584 -1.76327 0.41625 Q-2.05869 1.45057 -1.5006 1.60841 Q-0.9425 1.76626 1.32462 1.7637 Q1.89173 1.76306 4.11682 1.71628 Q6.34191 1.6695 8.93711 2.63426 Q11.53231 3.59902 12.75094 5.13732 Q13.96957 6.67561 14.3838 7.60302 Q15.73545 10.62919 15.20094 13.4512 Q14.66642 16.27321 14.19081 16.93122 Q13.426 17.98933 13.17137 18.5669 Q12.91674 19.14447 9.06577 20.49668 Q6.92354 21.24889 6.40938 21.10502 Q5.89523 20.96115 1.22812 20.9666 Q1.211 20.96662 0.12008 20.91168 Q-0.97083 20.85673 -1.18429 21.74131 Q-0.20885 22.55639 2.01223 22.8553 Q4.23331 23.15421 6.46037 24.60609 Q10.36138 27.14927 10.45132 29.52045 Q10.54127 31.89163 10.28806 32.71817 Q9.41699 35.56161 7.9579 36.25956 Q6.4988 36.9575 4.84137 37.69928 Q4.55436 37.82773 4.38458 37.88107 Q4.2148 37.9344 2.02153 38.3565 Q1.98656 38.36323 1.57716 38.52819 Q1.16775 38.69316 -1.57028 38.33913 Q-3.93839 40.23631 1.97412 40.02961 Q7.88662 39.8229 11.04931 37.53141 zM-3.55382 38.58798 Q-3.62161 37.28308 -3.60916 37.13515 Q-3.5967 36.98723 -3.5967 33.42011 Q-3.5967 24.60299 -3.5967 22.23543 Q-3.5967 19.86787 -3.5967 16.05075 Q-3.5967 2.88364 -3.51535 1.65089 Q-3.43399 0.41815 -5.14065 0.42008 Q-8.60776 0.42401 -10.33504 0.23562 Q-12.06233 0.04723 -12.28138 0.81416 Q-11.15189 1.59862 -9.40182 2.00748 Q-7.65176 2.41635 -7.43512 3.29613 Q-7.36832 3.56741 -7.26769 5.43138 Q-7.16707 7.29534 -7.16707 11.71246 Q-7.16707 20.52958 -7.16707 22.89714 Q-7.16707 25.2647 -7.16707 29.08182 Q-7.16707 33.24894 -6.95569 35.58961 Q-6.74431 37.93029 -8.51802 38.15401 Q-10.99293 38.46618 -11.25948 38.79502 Q-11.52602 39.12385 -11.21992 39.60452 Q-11.17708 39.61162 -11.16019 39.557 Q-11.14331 39.50238 -7.5745 39.91132 Q-7.46201 39.92421 -5.45369 40.29985 Q-3.44537 40.67548 -3.55382 38.58798 z" />
<glyph unicode="C" horiz-adv-x="33.56923" d="M14.6977 38.64056 Q14.92576 38.57972 15.63297 38.27816 Q16.34018 37.9766 19.10162 38.89391 Q20.5423 37.68679 20.31768 36.40341 Q20.09306 35.12003 20.11273 34.34278 Q20.13353 33.52108 20.16738 33.52098 Q20.20122 33.52089 20.41606 30.29801 Q19.20343 29.52772 18.90581 31.37353 Q18.60819 33.21934 17.13559 34.8068 Q17.09405 34.85158 15.38403 36.46107 Q13.67401 38.07057 11.38352 38.16128 Q7.46735 38.31638 6.64721 37.8977 Q5.82706 37.47902 5.18207 37.15727 Q4.67247 36.90306 4.22686 36.85812 Q3.78125 36.81317 0.98037 34.08383 Q-0.53136 32.61071 -1.59005 31.12294 Q-2.64874 29.63517 -4.08639 26.41647 Q-5.70634 22.78964 -5.3813 21.68467 Q-5.05626 20.5797 -5.28848 18.72221 Q-5.77896 14.79899 -5.31857 14.15546 Q-4.85818 13.51193 -4.63688 12.45261 Q-4.52599 11.92179 -4.26976 10.83673 Q-4.01352 9.75168 -1.44628 6.53961 Q-1.18909 6.21782 -1.06989 5.88579 Q-0.9507 5.55375 1.40728 3.92994 Q4.09526 2.07887 6.09052 1.92699 Q8.08578 1.77511 8.38391 1.79862 Q13.42955 2.1965 13.54698 2.33523 Q13.66442 2.47395 15.56275 3.7115 Q19.84704 6.50449 20.05166 7.55701 Q20.25628 8.60952 21.42717 8.96253 Q21.52177 8.81658 21.39233 7.90183 Q21.26289 6.98709 19.12409 4.79717 Q19.04668 4.71791 17.73596 3.23008 Q16.42525 1.74225 12.47327 0.53568 Q10.52976 -0.05769 7.47303 -0.05609 Q4.4163 -0.05449 1.63197 1.12105 Q0.27424 1.69428 -0.65226 1.93672 Q-1.57877 2.17915 -4.78293 5.63344 Q-6.72864 7.73104 -6.93817 8.53682 Q-7.1477 9.3426 -7.62526 10.07432 Q-7.66049 10.1283 -8.69979 11.18205 Q-9.7391 12.2358 -9.61377 17.18804 Q-9.60942 17.35993 -9.7709 18.01819 Q-9.93239 18.67646 -8.54649 23.19728 Q-7.86297 25.42693 -7.5938 25.98823 Q-7.32463 26.54952 -5.8165 29.56411 Q-5.11429 30.96775 -4.56751 31.81381 Q-4.02074 32.65988 -0.89579 35.5577 Q-0.88781 35.5651 -0.73654 35.72387 Q-0.58526 35.88264 2.45209 37.66595 Q2.59533 37.75005 5.61065 39.00518 Q8.62596 40.26032 14.6977 38.64056 z" />
<glyph unicode="D" horiz-adv-x="33.56923" d="M11.18059 38.20893 Q11.38117 38.17382 13.62863 37.75891 Q15.87609 37.344 18.78522 34.50247 Q20.58552 32.744 21.10297 32.62403 Q21.62041 32.50405 23.37824 27.78787 Q23.56443 27.28833 24.26125 24.77081 Q24.95808 22.25328 24.83172 19.82109 Q24.62813 15.90225 24.15866 14.61994 Q23.6892 13.33763 22.64568 10.70736 Q22.32068 9.88817 21.79338 8.52805 Q21.26609 7.16793 17.87825 4.178 Q17.52832 3.86917 15.15948 2.46398 Q12.79063 1.0588 8.3085 0.57279 Q5.01436 0.2156 2.10222 0.18838 Q-0.80993 0.16117 -0.49381 2.37366 Q-0.47859 2.37745 2.55206 2.3136 Q5.5827 2.24976 6.70385 2.3886 Q7.40936 2.47597 10.0648 3.03184 Q12.72023 3.58771 13.99453 4.50807 Q16.7253 6.48037 18.26961 9.91566 Q19.81392 13.35095 19.87824 13.6873 Q19.89725 13.78671 20.47569 16.78181 Q21.05413 19.77691 20.21545 23.79154 Q19.44881 27.46134 19.05618 28.18539 Q18.66355 28.90944 16.88988 31.77211 Q16.74709 32.00257 16.83982 32.12693 Q16.93254 32.25129 13.97128 34.50804 Q13.9171 34.54933 12.5528 35.40338 Q11.18851 36.25743 8.92478 37.00224 Q8.36749 37.1856 6.55275 37.66902 Q4.73802 38.15244 -0.17986 37.95463 Q-0.87226 40.37885 2.99368 39.67212 Q6.85963 38.9654 11.18059 38.20893 zM-1.74962 36.80528 Q-1.74962 35.36982 -1.74962 33.27913 Q-1.74962 31.18844 -1.74962 25.50298 Q-1.74962 24.06751 -1.74962 21.97683 Q-1.74962 19.88614 -1.74962 14.20067 Q-1.74962 12.51521 -1.84773 6.74545 Q-1.94583 0.9757 -1.95892 0.91025 Q-2.78052 0.79916 -3.4132 1.00078 Q-4.04588 1.2024 -8.24961 0.61519 Q-8.65408 0.55869 -9.50253 0.59333 Q-10.35098 0.62797 -10.1217 1.44294 Q-8.86568 2.25524 -8.5713 2.07754 Q-8.27693 1.89984 -5.62171 3.53075 Q-5.55672 3.69963 -5.48456 3.88164 Q-5.4124 4.06364 -5.4124 8.44911 Q-5.4124 9.88457 -5.4124 11.97526 Q-5.4124 14.06595 -5.4124 19.75141 Q-5.4124 21.18687 -5.4124 23.27756 Q-5.4124 25.36825 -5.4124 31.05371 Q-5.4124 31.53918 -5.33359 32.46873 Q-5.25477 33.39828 -5.51705 37.33289 Q-5.55194 37.35037 -5.65581 37.50949 Q-5.75967 37.66861 -7.92403 37.75428 Q-8.05085 37.7593 -8.9295 37.86091 Q-9.80815 37.96252 -9.70309 38.80284 Q-7.57087 39.16442 -5.93101 39.2384 Q-4.29114 39.31238 -4.26124 39.31981 Q-4.25363 39.3217 -3.00163 39.65623 Q-1.74962 39.99075 -1.74962 36.80528 z" />
<glyph unicode="E" horiz-adv-x="41.04615" d="M8.90479 40.16479 Q14.33028 40.15848 17.29148 40.03493 Q20.25268 39.91138 20.90869 39.97267 Q21.96101 40.07099 22.89915 40.14423 Q23.83729 40.21747 23.83729 37.64197 Q23.83729 32.91648 23.58054 32.86808 Q23.32378 32.81968 23.13576 32.63189 Q22.36268 35.33856 21.87497 36.44823 Q21.38727 37.5579 19.99559 37.61304 Q18.12975 37.68697 16.90338 37.66916 Q15.677 37.65135 7.40152 37.66109 Q7.37603 37.66112 6.23626 37.72203 Q5.0965 37.78294 5.0965 34.75745 Q5.0965 32.83196 5.0965 32.52459 Q5.0965 32.21723 5.0965 27.54174 Q5.0965 24.51625 5.91401 24.57488 Q6.73153 24.63352 7.40152 24.63274 Q9.32701 24.6305 9.63437 24.63014 Q9.94173 24.62977 14.61722 24.62434 Q21.24271 24.61664 21.59654 24.70534 Q21.95037 24.79403 22.37856 25.87361 Q22.38727 25.89557 23.32213 27.27618 Q24.257 28.65679 24.10454 26.7513 Q23.92434 24.49906 24.00599 21.63709 Q24.08764 18.77513 22.60126 21.17424 Q21.93563 22.24861 21.56466 22.53069 Q21.19369 22.81276 18.82638 22.81552 Q13.50089 22.82172 13.44178 22.82179 Q13.38268 22.82186 10.00719 22.82578 Q7.3817 22.82883 6.84898 22.96307 Q6.31626 23.09731 5.29694 23.13191 Q5.21428 22.76005 5.15539 22.20295 Q5.0965 21.64586 5.0965 17.72037 Q5.0965 15.79488 5.0965 15.48752 Q5.0965 15.18016 5.0965 10.50466 Q5.0965 3.92917 5.15151 2.82209 Q5.20653 1.715 6.9561 1.82807 Q9.71237 2.0062 15.88977 1.85015 Q22.06717 1.69411 22.90192 1.89861 Q23.47138 2.03812 24.45545 2.37079 Q25.43952 2.70345 26.44296 5.56915 Q26.53447 5.83049 26.67394 6.78505 Q26.81342 7.73962 27.34492 8.37421 Q27.74675 8.17283 27.86791 5.42827 Q27.98906 2.68371 27.94623 1.85933 Q27.9325 1.59506 27.94143 0.93007 Q27.95036 0.26508 25.98641 0.21358 Q25.68322 0.20563 20.61395 0.23795 Q15.54468 0.27027 15.51918 0.2703 Q13.59369 0.27254 13.28633 0.2729 Q12.97897 0.27325 8.30348 0.27869 Q0.97799 0.28721 0.40858 0.23561 Q-0.16083 0.18401 -0.21506 0.18838 Q-0.2245 0.18914 -1.11478 0.33817 Q-2.00507 0.48721 -1.61811 1.49284 Q-1.26813 1.55077 0.21048 1.73498 Q1.68909 1.91918 1.68909 4.09467 Q1.68909 6.02016 1.68909 6.32752 Q1.68909 6.63488 1.68909 11.31037 Q1.68909 13.23586 1.68909 13.54323 Q1.68909 13.85059 1.68909 18.52608 Q1.68909 20.45157 1.68909 20.75893 Q1.68909 21.06629 1.68909 25.74178 Q1.68909 27.66727 1.68909 27.97463 Q1.68909 28.28199 1.68909 32.95748 Q1.68909 35.68297 1.87307 36.79381 Q2.05704 37.90464 -0.4489 38.03769 Q-0.61333 38.04642 -1.45666 38.22589 Q-2.29999 38.40535 -2.52007 39.1759 Q-2.03496 39.72219 -1.87981 39.87889 Q-1.72466 40.03559 -1.51789 40.0767 Q-1.14742 40.15036 -0.93405 40.16317 Q-0.72069 40.17599 8.90479 40.16479 z" />
<glyph unicode="F" horiz-adv-x="21.1077" d="M0.52101 39.72953 Q1.22635 39.72872 2.63311 39.72708 Q4.03986 39.72544 10.19521 39.71831 Q18.80055 39.70834 19.84376 39.85378 Q20.88697 39.99921 21.32967 37.88008 Q21.85594 35.3609 21.68407 34.38824 Q21.5122 33.41559 21.5122 32.76897 Q21.36672 32.63406 20.78741 32.58414 Q20.20811 32.53422 19.87955 34.42379 Q19.8063 34.84506 19.61325 36.40931 Q19.42019 37.97356 15.21484 37.97844 Q4.7095 37.99062 3.86815 38.03072 Q3.02681 38.07082 2.52886 37.90188 Q2.49408 37.7454 2.40871 32.24688 Q2.32334 26.74835 2.34633 26.5851 Q2.37865 26.35557 2.43437 25.87702 Q2.4901 25.39848 4.44545 25.39621 Q9.95079 25.38983 10.70538 25.34332 Q11.45996 25.29681 12.20306 25.29595 Q14.60841 25.29316 16.51885 25.2562 Q18.42929 25.21925 19.32181 25.56149 Q20.59463 28.00245 20.73393 27.98827 Q20.87323 27.97408 21.14713 28.02356 Q21.20598 27.58214 21.25261 27.52533 Q21.29924 27.46851 21.29924 24.22063 Q21.29924 23.4457 21.30619 22.91639 Q21.31314 22.38708 21.2384 20.6309 Q21.21812 20.62839 20.83101 20.54741 Q20.4439 20.46642 19.09872 22.32688 Q19.0711 22.36508 19.03105 22.77702 Q18.991 23.18896 16.85763 23.19143 Q11.95228 23.19712 10.69476 23.27743 Q9.43724 23.35774 8.73495 23.29212 Q6.40667 23.07458 4.57312 23.23246 Q2.73956 23.39034 2.71139 23.39037 Q2.68396 23.3505 2.41579 23.15623 Q2.14762 22.96196 2.38689 19.32434 Q2.40941 18.98197 2.37787 18.93765 Q2.34633 18.89333 2.34633 14.53799 Q2.34633 5.18264 2.34863 4.49121 Q2.35093 3.79977 2.37675 3.61645 Q2.63916 1.75303 3.77556 1.87169 Q4.91196 1.99035 5.52036 1.82804 Q7.08361 1.41099 7.28848 1.31777 Q7.49334 1.22456 7.63976 0.75067 Q7.12546 0.25933 6.76989 0.18628 Q6.41433 0.11323 3.25899 0.11689 Q-0.14636 0.12084 -0.58982 0.16535 Q-1.03328 0.20985 -3.67723 0.03367 Q-5.08424 0.83057 -3.01175 1.24012 Q-0.93925 1.64966 -0.93925 3.58987 Q-0.93925 29.89522 -0.93925 30.05358 Q-0.93925 30.21193 -0.93925 31.51728 Q-0.93925 35.92263 -0.74469 36.74627 Q-0.55014 37.56991 -2.47049 38.20176 Q-4.04999 38.72146 -4.11078 38.91269 Q-4.17157 39.10391 -4.13356 39.5524 Q-2.70716 39.95829 -2.56949 39.84563 Q-2.43182 39.73296 0.52101 39.72953 z" />
<glyph unicode="G" horiz-adv-x="56" d="M32.17566 39.28912 Q36.0343 38.47845 37.35365 38.70558 Q38.67299 38.93271 38.7456 37.53493 Q38.7854 36.76873 39.47725 33.85507 Q40.16909 30.9414 38.23849 30.63876 Q37.49305 32.22772 37.26274 33.23993 Q37.03243 34.25214 35.37611 35.79203 Q34.48879 36.61698 33.17897 37.49157 Q31.86915 38.36616 28.60333 38.15499 Q28.03994 38.11856 25.48446 37.65999 Q22.92897 37.20142 21.60516 36.03305 Q19.45968 34.13949 18.42493 32.78368 Q17.39017 31.42787 16.83829 29.85168 Q16.25038 28.1726 15.95469 27.54416 Q15.659 26.91571 14.73095 22.83337 Q14.28967 20.89225 14.1963 19.27561 Q14.10293 17.65898 14.43795 16.29757 Q14.94899 14.22088 14.88422 13.77908 Q14.81945 13.33728 16.53402 9.26321 Q16.7374 8.77995 17.19726 7.78292 Q17.65712 6.7859 20.4557 4.05239 Q22.68157 1.87828 23.37347 1.57536 Q24.06537 1.27243 26.87914 1.34048 Q28.90118 1.38938 29.26076 1.43006 Q29.62033 1.47075 31.6122 2.07888 Q32.02598 2.20521 33.21852 2.64082 Q34.41105 3.07644 35.83815 5.15057 Q36.24288 5.7388 36.66368 5.82476 Q37.08449 5.91071 37.60741 10.68173 Q37.96225 13.91921 37.25338 14.15056 Q36.54451 14.38191 36.32272 14.42456 Q34.46174 14.78245 34.27459 15.10311 Q34.08743 15.42376 33.97873 15.73445 Q34.41592 15.91804 36.6221 16.00551 Q38.82828 16.09298 42.80251 16.0287 Q43.12877 15.76732 42.45478 14.88061 Q41.78079 13.9939 41.36005 11.79312 Q41.3516 11.74892 40.94811 9.55346 Q40.54462 7.358 38.86956 5.15839 Q36.9534 2.64218 34.76934 1.70097 Q32.58528 0.75976 32.36724 0.71445 Q30.95463 0.42088 30.07458 0.1187 Q29.19453 -0.18348 25.96633 -0.17982 Q23.13814 -0.17661 21.62534 0.53702 Q20.11254 1.25066 20.09508 1.25803 Q17.90772 2.18151 17.09788 2.96176 Q16.28804 3.74201 14.15622 6.27957 Q13.56955 6.9779 12.39336 8.64901 Q11.21716 10.32012 10.75292 15.65941 Q10.55411 17.94593 10.52359 20.25546 Q10.49307 22.56499 11.55303 25.40635 Q11.89463 26.32205 12.65741 28.38483 Q13.42019 30.4476 15.31695 32.59182 Q15.6559 32.97499 15.65101 33.08791 Q15.64613 33.20082 18.05536 35.32713 Q18.40143 35.63256 18.50648 35.74497 Q18.61153 35.85738 21.26708 37.58859 Q22.07529 38.11548 23.34497 38.76114 Q24.61464 39.4068 26.55233 39.59977 Q27.44469 39.68864 27.68181 39.93603 Q27.91892 40.18342 32.17566 39.28912 z" />
<glyph unicode="H" horiz-adv-x="36.06154" d="M-4.00392 40.59796 Q-3.61222 40.59751 -3.23524 40.65193 Q-2.85825 40.70634 0.61529 40.48533 Q1.71984 39.10339 -0.35652 38.48422 Q-2.43288 37.86505 -2.82226 37.69619 Q-2.94648 37.26157 -2.99179 37.10016 Q-3.03711 36.93875 -3.03711 34.47373 Q-3.03711 26.98203 -3.07564 25.84792 Q-3.11418 24.71382 -1.10349 24.85118 Q0.90718 24.98854 1.34453 24.94807 Q1.78188 24.9076 6.52358 24.90226 Q17.46528 24.88993 17.53908 24.83911 Q17.61288 24.78828 18.44759 25.31852 Q18.015 31.80788 18.27215 31.94657 Q18.5293 32.08526 18.41178 33.55436 Q18.19852 36.22038 18.5021 36.9352 Q18.80569 37.65003 16.07234 38.7372 Q16.03865 38.7506 15.33661 39.05312 Q14.63456 39.35564 15.43973 40.3612 Q15.46918 40.36537 15.7526 40.47036 Q16.03602 40.57536 21.77772 40.5689 Q23.36942 40.56711 24.49086 40.61501 Q25.61231 40.66292 25.96723 39.2751 Q24.74566 38.43665 23.65831 38.35866 Q22.57095 38.28068 21.67029 37.56117 Q21.65448 37.41888 21.60868 35.48387 Q21.56287 33.54886 21.56287 22.30715 Q21.56287 3.46545 21.59529 3.00539 Q21.6277 2.54532 22.69678 2.16994 Q24.19676 1.64326 24.43885 1.43615 Q24.68095 1.22905 24.78557 0.49655 Q24.16669 0.17208 24.0995 0.1199 Q24.0323 0.06772 21.2406 0.07086 Q18.3489 0.07411 16.07504 0.00222 Q13.80118 -0.06968 14.15065 1.15308 Q15.25114 1.40921 16.83153 1.50874 Q18.41193 1.60828 18.36404 3.45197 Q18.23474 8.43014 18.28745 8.58116 Q18.34017 8.73219 18.34017 10.9239 Q18.34017 12.9156 18.42941 15.11437 Q18.51865 17.31315 18.34017 22.31079 Q18.20887 22.36763 17.7293 22.64174 Q17.24973 22.91585 13.49417 22.60271 Q10.64147 22.36485 10.63481 22.5033 Q10.62816 22.64176 5.98646 22.64698 Q-0.60523 22.6544 -1.82117 22.75239 Q-3.03711 22.85038 -3.03711 20.50867 Q-3.03711 7.06697 -3.07305 6.39119 Q-3.10899 5.7154 -2.71484 2.78344 Q-2.66411 2.75354 -2.61016 2.75655 Q-2.55621 2.75956 -0.02925 1.70618 Q0.56717 0.34999 -0.73093 0.22353 Q-2.02903 0.09707 -4.97073 0.10039 Q-8.16243 0.10399 -9.52073 0.07135 Q-10.87902 0.03871 -10.87902 1.39613 Q-10.54986 1.57863 -10.56727 1.68853 Q-10.58468 1.79842 -7.22662 2.46625 Q-6.99093 2.80881 -6.89393 2.97407 Q-6.79693 3.13934 -6.79693 5.58105 Q-6.79693 9.52275 -6.6895 11.95057 Q-6.58208 14.37839 -6.58208 20.62009 Q-6.58208 31.6618 -6.53576 31.93865 Q-6.48944 32.2155 -6.58208 35.87423 Q-6.6083 36.90971 -6.86765 37.52688 Q-7.127 38.14405 -9.69736 39.31529 Q-9.73573 39.50715 -9.73351 39.52144 Q-9.73129 39.53574 -9.69736 40.2821 Q-9.62222 40.31541 -9.40892 40.45961 Q-9.19562 40.60381 -4.00392 40.59796 z" />
<glyph unicode="I" horiz-adv-x="36.06154" d="M7.42074 39.61645 Q7.87741 39.61592 8.09963 39.67205 Q8.32186 39.72818 11.18664 39.52023 Q12.26222 37.95451 10.43387 37.76979 Q8.60552 37.58506 7.60445 36.58515 Q7.55632 35.49763 7.62631 33.51785 Q7.6963 31.53807 7.6963 26.48141 Q7.6963 10.67474 7.6963 10.6648 Q7.6963 10.65485 7.6963 9.94818 Q7.6963 5.04152 7.63547 4.30405 Q7.57464 3.56657 7.62486 3.44724 Q8.0352 2.47221 8.88961 2.31091 Q9.74402 2.14961 10.63554 1.40261 Q10.6705 1.09793 10.64537 0.49588 Q10.62024 -0.10616 9.07407 -0.0652 Q8.8725 -0.05986 8.83848 0.02947 Q8.80446 0.1188 4.2978 0.12404 Q1.74114 0.12701 0.54767 0.18717 Q-0.6458 0.24734 -0.01921 1.23126 Q1.82094 2.21653 2.77361 2.09616 Q3.72628 1.9758 3.72628 4.45192 Q3.72628 5.17797 3.82834 5.48341 Q3.9304 5.78884 3.9304 10.59551 Q3.9304 26.40217 3.9304 26.41211 Q3.9304 26.42206 3.9304 27.12873 Q3.9304 28.9354 3.9304 30.17019 Q3.9304 31.40497 3.9304 35.21164 Q3.9304 36.9683 3.399 37.1812 Q2.86761 37.3941 1.7872 38.03089 Q-0.15207 39.17389 1.88101 39.3972 Q3.91408 39.62052 7.42074 39.61645 z" />
<glyph unicode="J" horiz-adv-x="1.32308" d="M14.59785 40.59746 Q13.71883 39.73702 12.49082 39.95329 Q11.26281 40.16956 11.26281 37.2662 Q11.26281 25.50776 11.08098 22.51179 Q10.89914 19.51582 10.89225 19.47978 Q10.56769 17.78241 10.54919 16.20215 Q10.53069 14.62189 9.82175 10.5464 Q9.70518 9.87627 8.88149 7.23697 Q8.0578 4.59767 6.0544 2.6454 Q3.97938 0.62333 0.96101 0.24787 Q-2.05735 -0.12759 -2.64345 -0.13425 Q-3.14929 -0.14 -3.17762 -0.18312 Q-3.20594 -0.22624 -5.45352 0.3733 Q-6.4395 0.63631 -6.76629 0.79456 Q-7.09308 0.95281 -8.88119 1.95205 Q-9.97524 2.56343 -11.20382 3.89508 Q-12.43241 5.22672 -12.63825 6.53682 Q-12.9149 8.2976 -13.00474 8.3934 Q-13.09458 8.4892 -12.64855 10.62328 Q-12.64321 10.64883 -11.8253 12.67878 Q-11.0074 14.70873 -9.62231 15.9312 Q-7.44985 17.8486 -4.39336 17.49356 Q-1.33687 17.13852 -0.63625 16.48717 Q-0.60141 16.45478 -0.23886 16.28026 Q0.1237 16.10575 1.35036 13.19107 Q1.27411 11.20863 0.04476 12.72246 Q-1.1846 14.23628 -1.59353 14.4193 Q-1.692 14.46337 -3.07659 15.05777 Q-4.46117 15.65216 -6.64755 14.43531 Q-7.61145 13.89884 -7.84782 13.68153 Q-8.08419 13.46422 -8.78855 11.57619 Q-8.93255 11.1902 -9.36065 9.12215 Q-9.78874 7.0541 -8.36653 4.87477 Q-8.31151 4.79046 -7.64871 3.6649 Q-6.98591 2.53934 -4.65064 1.91639 Q-2.55352 1.35697 -1.30184 1.56702 Q-0.05017 1.77708 2.00913 2.80437 Q2.19283 2.89601 3.51418 3.6902 Q4.83552 4.4844 5.82795 7.31881 Q6.69163 9.78551 6.80018 10.47573 Q6.90874 11.16594 6.90874 14.57438 Q6.90874 19.63281 6.90874 20.53695 Q6.90874 21.4411 6.90874 31.24954 Q6.90874 33.90798 7.05841 36.79373 Q7.20808 39.67947 5.33387 39.68154 Q5.12543 39.68177 3.62536 39.82226 Q2.12529 39.96274 3.20315 41.16619 Q4.13815 41.40823 6.01754 41.51307 Q7.89693 41.6179 7.92778 41.62404 Q8.09262 41.65682 11.14486 42.07459 Q14.1971 42.49235 14.59785 40.59746 z" />
<glyph unicode="K" horiz-adv-x="60.98462" d="M45.85401 39.81199 Q45.88137 39.81196 47.99093 39.4005 Q50.10048 38.98904 48.00972 38.26012 Q47.98293 38.25078 46.9409 38.09145 Q45.89887 37.93212 42.77763 34.40376 Q41.04766 32.44814 39.12167 29.98862 Q37.19568 27.52909 35.26632 25.55368 Q35.15405 25.43873 34.74403 25.10436 Q34.33401 24.76998 34.88458 23.19631 Q35.95074 20.14893 36.11676 19.86942 Q36.28277 19.5899 38.85917 14.43421 Q39.78428 12.58295 41.96246 9.12546 Q44.14063 5.66796 45.14666 4.34462 Q45.81984 3.45911 46.83817 2.8994 Q47.8565 2.33969 47.97603 2.32042 Q48.35163 2.52722 49.74668 3.25499 Q51.14173 3.98276 51.2096 1.91255 Q49.89851 0.27519 48.31082 -0.01816 Q46.72312 -0.31152 45.99996 -0.05759 Q44.18038 0.58133 42.1947 2.60934 Q40.20902 4.63735 40.02685 4.88937 Q39.87283 5.10245 39.83304 5.12459 Q39.79326 5.14673 38.51112 7.01312 Q35.33255 11.64012 35.29955 12.23555 Q35.26655 12.83097 35.2551 12.85521 Q33.08888 17.44006 32.39114 19.06515 Q31.69341 20.69024 31.20191 20.62936 Q28.85802 17.78329 28.09598 17.28078 Q27.33395 16.77827 27.30591 14.81787 Q27.30453 14.72138 27.28276 14.4586 Q27.261 14.19582 27.261 9.51846 Q27.261 6.0911 27.18601 4.34193 Q27.11102 2.59276 29.05743 2.21844 Q30.81951 1.87957 30.81244 1.39512 Q30.80537 0.91067 30.79771 0.72318 Q29.30065 0.00987 28.4522 0.06539 Q27.60375 0.12091 23.92639 0.12471 Q23.84903 0.12479 22.05613 0.05836 Q20.26322 -0.00807 20.28863 1.84668 Q20.96026 2.18173 22.19499 2.49813 Q23.42971 2.81453 23.49974 3.98751 Q23.60334 5.7228 23.56276 6.20139 Q23.52219 6.67997 23.52219 12.85733 Q23.52219 13.78469 23.52219 14.34509 Q23.52219 14.90549 23.52219 20.13285 Q23.52219 21.06021 23.52219 21.62061 Q23.52219 22.18102 23.52219 27.40838 Q23.52219 28.33574 23.52219 28.89614 Q23.52219 29.45654 23.52219 34.6839 Q23.52219 37.46126 22.71063 37.42248 Q21.89907 37.38369 21.19807 37.81906 Q21.10019 37.87985 20.4804 38.38389 Q19.86061 38.88793 19.98548 39.43722 Q20.21503 39.47228 20.30755 39.55556 Q20.40008 39.63884 24.02744 39.63472 Q25.4548 39.6331 25.9993 39.69594 Q26.54379 39.75879 30.19142 39.52666 Q30.93741 38.03384 29.80363 37.9293 Q28.66985 37.82476 27.36205 37.10471 Q27.32848 36.70193 27.29474 35.77877 Q27.261 34.85561 27.261 29.72825 Q27.261 28.95089 27.261 27.81868 Q27.261 26.68647 27.261 20.5328 Q28.62025 20.88895 28.55161 21.11994 Q28.48296 21.35094 30.55071 23.80753 Q32.07128 25.61405 32.32975 25.97012 Q32.58822 26.32619 34.71617 28.73173 Q37.00932 31.32401 37.54982 32.15761 Q38.09032 32.99121 41.711 36.88628 Q41.95358 38.28086 41.02355 37.89574 Q40.09352 37.51061 38.17429 38.50709 Q38.16306 38.59131 38.16986 39.20601 Q38.17665 39.82072 45.85401 39.81199 z" />
<glyph unicode="L" horiz-adv-x="41.04615" d="M8.7933 39.10304 Q7.48304 38.61785 7.36801 38.65724 Q7.25297 38.69662 5.25769 38.34258 Q4.92099 37.94821 4.70712 37.70108 Q4.49324 37.45394 4.49324 34.13894 Q4.49324 34.12394 4.49324 34.08391 Q4.49324 34.04387 4.49324 28.97887 Q4.49324 28.96387 4.49324 28.92383 Q4.49324 28.8838 4.49324 23.8188 Q4.49324 23.8038 4.49324 23.76377 Q4.49324 23.72373 4.49324 18.65873 Q4.49324 18.64373 4.49324 18.6037 Q4.49324 18.56366 4.49324 13.49866 Q4.49324 13.48366 4.49324 13.44362 Q4.49324 13.40359 4.49324 8.33859 Q4.49324 5.32359 4.45888 4.53795 Q4.42452 3.7523 6.21326 3.74992 Q6.22826 3.7499 6.2683 3.75037 Q6.30833 3.75084 11.37333 3.74409 Q11.38833 3.74407 11.42836 3.74403 Q11.4684 3.74399 16.5334 3.73826 Q21.5484 3.73259 22.28749 3.60457 Q23.02659 3.47654 23.43473 5.42925 Q23.52304 5.85176 23.71945 6.9436 Q23.91586 8.03544 25.70686 8.60129 Q26.23803 8.14279 26.21133 8.03704 Q26.18464 7.93128 26.18464 6.11628 Q26.18464 6.05127 26.18464 6.00374 Q26.18464 5.9562 26.18464 0.66953 Q25.47235 -0.12575 24.49652 -0.01359 Q23.52068 0.09856 20.35568 0.10278 Q20.34067 0.1028 20.30064 0.10233 Q20.26061 0.10186 15.19561 0.10861 Q15.1806 0.10863 15.14057 0.10816 Q15.10054 0.10769 10.03554 0.11444 Q10.02053 0.11446 9.9805 0.1145 Q9.94047 0.11454 4.87547 0.12027 Q3.31046 0.12204 0.60433 -0.02633 Q-2.1018 -0.1747 -1.90907 1.7524 Q-0.67882 2.43712 -0.28278 2.59879 Q0.11326 2.76045 0.58602 4.41456 Q1.05975 6.07205 0.96091 6.3571 Q0.86208 6.64214 0.86208 9.10715 Q0.86208 9.12215 0.86208 9.16218 Q0.86208 9.20221 0.86208 14.26722 Q0.86208 14.28222 0.86208 14.32225 Q0.86208 14.36228 0.86208 19.42729 Q0.86208 19.44229 0.86208 19.48232 Q0.86208 19.52235 0.86208 24.58736 Q0.86208 24.60236 0.86208 24.64239 Q0.86208 24.68243 0.86208 29.74743 Q0.86208 33.76243 1.02536 35.09701 Q1.18864 36.43159 0.57541 38.0612 Q0.4257 38.17077 0.35017 38.30773 Q0.27464 38.4447 -2.57797 38.6381 Q-2.81119 39.00486 -2.52817 39.6813 Q-2.24516 40.35774 -0.38016 40.35564 Q0.13484 40.35506 0.59287 40.32647 Q1.05091 40.29787 2.93248 40.47931 Q4.38972 40.61983 6.9574 40.59281 Q9.52509 40.56579 8.7933 39.10304 z" />
<glyph unicode="M" horiz-adv-x="41.04615" d="M30.40523 39.03686 Q29.65284 38.25112 27.9806 37.88843 Q26.30836 37.52575 25.45594 34.31759 Q25.38006 34.03201 25.50068 29.13632 Q25.62131 24.24063 25.62131 23.5211 Q25.62131 21.73191 25.68579 19.51591 Q25.75028 17.29992 26.27098 10.96406 Q26.91529 3.12417 27.54891 2.64419 Q28.18253 2.16421 29.02321 2.2554 Q29.43761 2.30035 30.45133 2.06151 Q31.46506 1.82266 30.29892 0.12777 Q30.27597 0.12616 30.25277 0.07385 Q30.22958 0.02155 24.45191 0.02807 Q22.66271 0.03009 20.47594 -0.37455 Q18.28916 -0.77918 19.34906 1.62847 Q19.92628 1.97123 19.99692 1.95398 Q20.06755 1.93672 22.85727 3.00653 Q23.09404 3.47981 22.86935 4.82291 Q22.64465 6.16601 22.64465 11.40521 Q22.64465 12.2944 22.59149 12.47294 Q22.53834 12.65147 22.53834 18.74067 Q22.53834 18.97986 22.50185 19.22631 Q22.46537 19.47275 22.53834 22.35518 Q22.60372 24.93772 22.58321 25.32968 Q22.5627 25.72164 22.96358 32.13516 Q22.94586 32.14404 22.64314 32.31729 Q22.34041 32.49055 20.76652 30.08233 Q20.23436 29.26807 18.89013 26.90898 Q17.54591 24.54988 16.73858 22.63342 Q16.1242 21.17498 14.40692 16.57082 Q12.68964 11.96665 12.5807 11.48745 Q12.12631 9.48863 12.11589 9.34319 Q12.10547 9.19775 10.6317 5.14653 Q9.67752 4.49161 9.01481 5.36996 Q8.3521 6.24831 8.90712 7.29829 Q8.94307 7.3663 9.45872 8.55249 Q9.97437 9.73868 8.35195 12.64982 Q8.315 12.71612 8.12149 13.02122 Q7.92798 13.32631 5.82415 17.77914 Q4.95707 19.61434 4.52752 20.14034 Q4.09798 20.66635 1.80802 25.24896 Q1.46009 25.94523 -0.1011 28.58681 Q-1.6623 31.22839 -1.712 31.30075 Q-1.75282 31.36018 -2.3112 31.44716 Q-2.86959 31.53414 -2.86959 30.99494 Q-2.86959 30.10575 -2.86959 30.09487 Q-2.86959 30.08399 -2.86959 25.67948 Q-2.86959 25.49028 -2.86959 25.26591 Q-2.86959 25.04154 -2.86959 21.85234 Q-2.86959 21.66315 -2.86959 21.43878 Q-2.86959 21.2144 -2.86959 18.02521 Q-2.86959 10.18601 -2.60381 8.30147 Q-2.33804 6.41694 -2.33804 5.58642 Q-2.33804 2.79722 -1.35172 2.92174 Q-0.3654 3.04626 1.80802 2.07353 Q1.42511 0.73375 0.63089 0.77759 Q-0.16332 0.82143 -4.27523 0.722 Q-5.35827 0.69581 -7.06101 0.76556 Q-8.76375 0.83531 -9.14183 1.23542 Q-8.8362 1.61712 -7.22726 2.48105 Q-5.61832 3.34498 -5.3147 3.5699 Q-5.23804 3.83812 -4.9581 7.26438 Q-4.67817 10.69064 -4.80678 12.05045 Q-4.92161 13.26456 -4.79922 14.3991 Q-4.67684 15.53364 -4.67684 21.32284 Q-4.67684 21.51203 -4.67684 21.7364 Q-4.67684 21.96078 -4.67684 25.14997 Q-4.67684 25.33917 -4.67684 25.56354 Q-4.67684 25.78791 -4.67684 28.97711 Q-4.67684 29.1663 -4.67684 29.39067 Q-4.67684 29.61505 -4.67684 32.80424 Q-4.67684 36.79344 -5.18265 36.90458 Q-5.68845 37.01572 -5.86987 37.14065 Q-6.8764 37.83378 -8.9379 37.8041 Q-10.9994 37.77443 -10.09862 39.18893 Q-7.53842 39.88427 -5.67799 39.82706 Q-3.81755 39.76986 -2.04274 38.19942 Q0.25608 36.16531 -0.01963 35.90327 Q-0.29534 35.64122 0.30788 34.80668 Q1.96067 32.52007 4.19758 28.44132 Q6.4345 24.36257 6.68644 23.95592 Q6.83065 23.72316 7.11087 23.56047 Q7.3911 23.39779 9.28511 18.89739 Q10.28695 16.5169 10.56239 16.10258 Q10.83782 15.68825 11.16324 14.82008 Q11.96492 15.09208 12.54189 17.05236 Q13.11887 19.01263 14.18715 21.14797 Q14.73667 22.24638 16.13059 25.44099 Q17.52451 28.63561 18.47496 30.25029 Q19.75564 32.42599 20.33885 33.25548 Q20.92206 34.08497 22.5029 35.78563 Q26.15841 39.7182 28.11742 40.12386 Q30.07642 40.52952 30.40523 39.03686 z" />
<glyph unicode="N" horiz-adv-x="46.03077" d="M6.00368 37.60418 Q7.13528 36.38426 7.11877 36.30699 Q7.10225 36.22971 9.29706 33.48374 Q10.80477 31.59741 10.74866 31.54334 Q10.69255 31.48927 12.43034 29.20339 Q12.77248 28.75334 13.37046 27.88695 Q13.96845 27.02057 16.98161 22.63438 Q17.38738 22.04371 17.48438 21.86997 Q17.58138 21.69623 19.12002 19.2128 Q19.39298 18.77223 19.47128 18.71897 Q19.54959 18.66572 21.18981 15.72269 Q21.3214 15.48658 23.03701 12.30995 Q24.75262 9.13332 25.43232 10.49195 Q25.32123 12.74568 25.33276 16.98419 Q25.34428 21.2227 25.40945 21.63 Q25.40985 21.6325 25.55212 24.57297 Q25.69439 27.51345 25.8783 28.57072 Q26.53812 32.36394 26.51827 33.31859 Q26.49841 34.27325 26.71308 35.1451 Q27.11744 36.78737 27.45687 37.64964 Q27.7963 38.51192 29.91498 39.34969 Q30.45276 39.56234 31.61283 39.59632 Q32.7729 39.6303 33.35701 38.3738 Q33.11468 36.43539 31.48304 36.37138 Q29.8514 36.30737 29.42326 34.69606 Q29.16922 33.73998 28.69017 33.22469 Q28.21111 32.70941 28.21111 30.352 Q28.21111 29.92043 27.99506 22.95653 Q27.77901 15.99263 27.77657 15.96683 Q27.36098 11.57397 27.42583 11.17015 Q27.49068 10.76633 27.49068 6.99042 Q27.49068 2.95885 27.76035 1.43471 Q28.03002 -0.08942 26.66734 -0.72751 Q26.32306 -0.46385 26.20931 -0.33684 Q26.09557 -0.20982 23.63697 3.75856 Q23.54835 3.9016 23.45171 3.99267 Q23.35507 4.08374 21.52144 7.20298 Q18.44573 12.43516 18.16374 12.67866 Q17.88174 12.92216 17.16457 13.96618 Q16.9853 14.22715 16.92413 14.29882 Q16.86297 14.3705 15.67798 16.18632 Q15.31324 16.74523 12.01574 21.72383 Q8.71825 26.70243 8.31362 27.35551 Q7.09265 29.3262 6.16914 30.43734 Q5.24564 31.54847 4.43704 31.92258 Q4.01547 28.76127 4.38609 26.25112 Q4.75671 23.74098 4.28838 19.058 Q4.23354 18.50964 4.12946 18.47534 Q4.02537 18.44104 4.02537 13.80947 Q4.02537 7.57791 3.94373 6.22326 Q3.8621 4.86861 4.53996 3.10541 Q5.27072 2.56242 6.89044 2.22551 Q8.51016 1.8886 7.42167 0.52921 Q6.47782 0.2867 2.5875 0.29293 Q-1.30283 0.29917 -1.42929 0.33336 Q-1.46697 0.40877 -1.69473 0.81542 Q-1.92248 1.22207 -0.57164 2.35645 Q-0.02466 2.81578 0.95785 4.39074 Q1.94037 5.9657 2.17285 8.87149 Q2.67649 15.16646 2.68197 15.47653 Q2.68744 15.7866 2.68744 21.11816 Q2.68744 21.69973 2.66952 21.86517 Q2.65161 22.03061 2.71031 26.49274 Q2.7329 28.20988 2.65 31.67994 Q2.5671 35.14999 1.86409 36.5568 Q0.35091 37.15856 -0.15168 36.8102 Q-0.65427 36.46184 -2.6643 37.89984 Q-2.69998 38.61345 -1.872 39.00668 Q-1.04401 39.39991 0.50329 39.77166 Q2.57551 40.26952 3.02642 40.29861 Q3.47734 40.32771 6.00368 37.60418 z" />
<glyph unicode="O" horiz-adv-x="21.10769" d="M22.8149 35.77785 Q25.87046 33.20482 26.43983 31.73759 Q27.0092 30.27036 27.02833 30.21198 Q27.74821 28.0155 28.22794 26.35854 Q28.70767 24.70158 28.70767 20.66694 Q28.70767 18.16331 28.6854 17.54976 Q28.66313 16.9362 28.05404 14.80511 Q27.21185 11.85843 26.84535 11.20425 Q26.47886 10.55006 25.06743 8.02088 Q24.28792 6.62405 24.18491 6.53436 Q24.08189 6.44468 22.08082 4.49476 Q20.044 2.51001 19.67985 2.38338 Q19.31569 2.25676 17.18359 1.25245 Q17.181 1.25123 16.29838 0.67237 Q15.41576 0.0935 10.064 0.23511 Q9.96536 0.23772 8.31802 0.32609 Q6.67068 0.41446 4.81482 1.50832 Q2.05905 3.1326 1.71223 3.4489 Q1.36542 3.76521 0.30977 5.15386 Q-1.47273 7.49865 -2.50935 10.48376 Q-3.54596 13.46888 -3.64221 14.23899 Q-3.79505 15.46192 -4.07665 16.19008 Q-4.35825 16.91824 -3.964 20.0718 Q-3.43896 24.2715 -3.3834 24.28372 Q-3.32784 24.29595 -3.32042 24.31464 Q-3.11509 24.83219 -2.84728 25.91728 Q-2.57948 27.00237 -1.55058 29.05895 Q0.1504 32.45891 0.54513 32.47386 Q0.93987 32.4888 1.28519 32.46458 Q1.89776 31.298 1.54248 31.06341 Q1.18719 30.82883 -0.04219 27.91081 Q-0.08312 27.81366 -0.45224 26.75072 Q-0.82135 25.68778 -1.16845 22.52216 Q-1.18857 22.33866 -1.37528 20.96682 Q-1.56199 19.59498 -0.28353 15.42164 Q0.20359 13.83151 0.71331 12.27428 Q1.22304 10.71705 2.76341 8.69066 Q2.97243 8.41569 4.36828 6.8567 Q5.76413 5.2977 9.60143 4.11724 Q11.95563 3.39302 14.46782 3.69075 Q16.98001 3.98848 18.01823 4.39897 Q18.16404 4.45662 19.4479 4.85957 Q20.73176 5.26252 22.00038 6.92838 Q23.93625 9.47041 24.14435 9.5487 Q24.35244 9.62699 25.26855 11.80166 Q26.55178 14.84782 26.66021 16.5999 Q26.76864 18.35198 26.58587 19.81468 Q26.55085 20.09494 26.3563 21.97838 Q26.16175 23.86183 23.09647 29.36184 Q22.46372 30.49718 22.21538 30.86223 Q21.96704 31.22727 20.27076 33.05569 Q20.24072 33.08807 19.43479 34.22821 Q18.62886 35.36836 15.21263 36.14879 Q13.0482 36.64325 12.99059 36.79782 Q12.93298 36.9524 9.69193 36.4469 Q6.79881 35.99567 5.12229 34.28924 Q3.44577 32.5828 2.19022 33.91157 Q2.19908 33.947 2.15719 34.37205 Q2.11529 34.7971 5.47851 37.22616 Q5.79933 37.45787 7.1515 38.28871 Q8.50367 39.11955 12.50759 39.78216 Q14.81382 40.16382 18.66344 38.09793 Q22.51306 36.03203 22.8149 35.77785 z" />
<glyph unicode="P" horiz-adv-x="56" d="M34.43419 39.40144 Q35.70672 39.24088 36.12702 39.12586 Q36.54731 39.01084 39.42688 37.86556 Q40.22328 37.54881 41.89866 36.48821 Q43.57404 35.42761 43.57404 32.22378 Q43.57404 24.01994 43.6448 22.16188 Q43.71555 20.30382 43.12108 19.63184 Q42.59477 19.03691 41.99518 18.03464 Q41.39558 17.03237 38.56122 16.04367 Q34.86946 14.75589 32.67776 15.19303 Q30.48607 15.63017 30.42795 15.65058 Q30.04109 15.78644 28.148 16.71489 Q26.25491 17.64335 26.28079 19.66169 Q26.316 22.40776 27.3174 22.86498 Q28.31879 23.3222 28.98853 23.27217 Q29.30079 22.09624 28.37975 20.90558 Q27.4587 19.71492 28.71675 18.28986 Q29.20946 17.73174 29.96383 17.03948 Q30.7182 16.34722 34.73617 16.97422 Q34.76411 16.97858 36.4751 17.16466 Q38.18609 17.35074 40.00064 19.85696 Q41.7869 22.3241 41.81984 23.59769 Q41.85277 24.87127 41.85277 26.15605 Q41.85277 28.10988 41.3261 30.15532 Q40.79943 32.20076 40.34288 32.80133 Q39.95222 33.31523 39.91944 33.51904 Q39.88667 33.72286 37.97739 35.33065 Q37.10175 36.06802 36.29392 36.51727 Q35.48609 36.96652 32.50153 38.01462 Q29.1426 39.19419 28.47952 38.87504 Q27.81645 38.5559 26.64317 38.68585 Q25.61463 38.79977 25.12734 38.53197 Q24.64005 38.26417 24.64005 35.96034 Q24.64005 32.8565 24.64005 32.23762 Q24.64005 31.61874 24.64005 22.9149 Q24.64005 20.96107 24.64005 20.46332 Q24.64005 19.96556 24.64005 15.12388 Q24.64005 8.72005 24.57771 6.1015 Q24.51536 3.48296 25.09302 2.71207 Q26.19264 2.25522 27.86644 2.30903 Q29.54023 2.36283 29.62268 0.7137 Q29.60007 0.69707 29.56405 0.43366 Q29.52803 0.17026 25.2742 0.17525 Q19.72037 0.18177 18.2978 0.01756 Q16.87523 -0.14665 16.57725 0.72902 Q17.6358 2.58025 18.81946 2.14642 Q20.00313 1.71259 20.79487 3.21035 Q20.9588 3.52046 21.03286 3.8283 Q21.10691 4.13614 21.10691 7.78998 Q21.10691 10.89381 21.10691 11.51269 Q21.10691 12.13157 21.10691 20.83541 Q21.10691 23.93924 21.10691 24.55812 Q21.10691 25.177 21.10691 33.88084 Q21.10691 36.43467 20.82422 37.0119 Q20.54153 37.58913 18.79175 38.09111 Q18.34484 38.21932 17.58703 38.28346 Q16.82921 38.34761 17.03021 39.95538 Q17.51865 40.01993 17.52404 40.05337 Q17.52943 40.08681 20.66401 40.12223 Q20.71534 40.12281 23.3977 40.28917 Q26.08006 40.45552 34.43419 39.40144 z" />
<glyph unicode="Q" horiz-adv-x="48.52308" d="M20.77369 39.37744 Q21.4638 39.11931 21.67462 39.14936 Q21.88545 39.17942 24.58133 37.41581 Q24.85217 37.23863 26.37007 35.94586 Q27.88798 34.65309 29.11255 32.33368 Q29.14889 32.26485 30.27102 30.29228 Q31.39316 28.31972 31.60353 23.4107 Q31.65096 22.30393 31.54445 19.28771 Q31.43794 16.27149 30.48852 13.37689 Q30.32013 12.8635 29.90643 11.34436 Q29.49272 9.82522 27.36886 6.89211 Q27.356 6.87435 25.29145 4.56465 Q23.22689 2.25495 21.17699 1.775 Q20.96738 2.19447 20.64436 3.07213 Q20.32134 3.94979 21.49726 4.44354 Q21.57409 4.4758 22.798 4.85311 Q24.02192 5.23042 26.58598 8.95698 Q28.58274 11.85903 29.1286 15.02861 Q29.67445 18.19818 29.61075 19.16648 Q29.57951 19.64134 29.68969 20.80058 Q29.79987 21.95981 28.29408 25.53781 Q27.69925 26.95122 27.83462 27.11449 Q27.96999 27.27776 24.61692 31.473 Q22.29375 34.37966 22.12836 34.35059 Q21.96298 34.32153 20.66693 35.21407 Q20.1128 35.59568 18.66471 36.4092 Q17.21661 37.22272 14.98512 37.22532 Q12.54492 37.22816 12.43773 37.29218 Q12.33054 37.35619 9.93199 36.51949 Q7.01588 35.50224 5.79983 33.89903 Q4.58377 32.29583 4.57045 32.27919 Q4.49494 32.1849 4.39623 32.11239 Q4.29751 32.03988 3.06399 29.94417 Q2.97503 29.79303 2.12527 28.30852 Q1.2755 26.82402 0.86956 22.53308 Q0.62747 19.97411 0.82643 18.18349 Q1.02538 16.39287 2.58952 12.88742 Q2.94889 12.08202 3.62542 10.5906 Q4.30195 9.09917 7.42914 6.19173 Q10.22684 3.59062 11.02066 3.71116 Q11.81448 3.8317 14.02432 2.95764 Q14.19072 1.95904 14.2646 0.76274 Q14.33849 -0.43356 12.61276 -0.16037 Q10.6767 0.14612 9.60328 0.19445 Q8.52986 0.24279 6.55137 1.47175 Q5.59611 2.06512 4.78164 2.53478 Q3.96716 3.00443 1.59313 6.12735 Q0.73286 7.25899 0.36846 7.76371 Q0.00405 8.26843 -0.82668 11.39681 Q-1.09525 12.40819 -1.43544 13.2767 Q-1.77563 14.14522 -1.77563 18.13543 Q-1.77563 18.67563 -1.93739 19.14136 Q-2.09915 19.60709 -1.30115 23.42524 Q-1.07551 24.50485 -0.46883 26.89456 Q0.13785 29.28426 1.9134 31.73664 Q3.97881 34.58937 5.16906 35.65777 Q6.3593 36.72617 6.45647 36.79635 Q7.32546 37.42397 7.88987 37.89674 Q8.45428 38.36951 11.4503 39.48318 Q13.03127 40.07085 13.34527 40.02154 Q13.65927 39.97223 14.34458 40.10849 Q14.82131 40.20328 16.37083 40.324 Q17.92034 40.44472 20.77369 39.37744 zM18.04547 10.28357 Q18.2703 9.98782 18.7695 9.60651 Q19.2687 9.22519 19.46889 4.01887 Q19.48739 3.53774 19.55007 3.34924 Q19.61276 3.16074 19.78916 -1.42607 Q19.90566 -4.45532 21.76893 -5.6891 Q23.6322 -6.92287 23.85776 -6.97027 Q24.93722 -7.19709 26.55769 -7.27345 Q28.17816 -7.3498 29.88357 -5.76738 Q29.89813 -5.75387 30.87477 -4.61709 Q31.85142 -3.48031 30.44107 -2.10272 Q29.92604 -1.59965 29.03611 -0.84889 Q28.14619 -0.09814 28.75669 0.48511 Q30.29059 0.24034 31.71022 -0.65945 Q33.12984 -1.55923 32.80157 -3.5882 Q32.48945 -5.51734 31.83474 -6.39064 Q31.18003 -7.26394 29.57516 -8.02076 Q28.95982 -8.31094 28.46148 -8.39637 Q27.96313 -8.4818 24.27293 -8.47721 Q24.23273 -8.47716 22.09072 -8.73484 Q19.94872 -8.99251 18.27085 -6.78585 Q18.22757 -6.72893 16.61782 -3.59499 Q15.00808 -0.46105 15.41215 3.81008 Q15.79552 7.86239 15.15023 8.61233 Q14.50495 9.36228 14.0599 9.71884 Q13.61429 10.07585 13.53596 10.0967 Q13.45763 10.11756 9.22028 10.96996 Q9.39409 11.8388 10.58243 11.89518 Q11.77077 11.95157 12.95675 12.24669 Q13.50019 12.38192 15.22182 12.05758 Q16.94344 11.73324 18.04547 10.28357 z" />
<glyph unicode="R" horiz-adv-x="31.07692" d="M2.55294 39.57476 Q2.85187 39.55475 3.48133 39.60074 Q4.11078 39.64673 6.82952 38.75215 Q10.07654 37.68374 11.52947 36.14176 Q12.98241 34.59979 13.5903 33.6186 Q14.59319 31.99985 14.52312 30.17837 Q14.45306 28.35689 13.26536 25.5375 Q12.44544 23.59115 8.84477 22.02848 Q5.2441 20.46582 4.82749 20.40084 Q2.96437 20.11025 4.23154 19.34684 Q5.49872 18.58343 5.61363 18.48174 Q6.25053 17.91815 7.57169 16.66488 Q8.89284 15.4116 10.07889 12.75342 Q10.51112 11.7847 10.54034 11.64865 Q10.56957 11.51261 11.88176 7.76195 Q12.61376 5.66966 14.33311 3.2863 Q16.05247 0.90293 17.33231 2.03247 Q17.55745 2.23117 18.45891 3.19512 Q19.36038 4.15907 17.78302 7.05274 Q18.63125 8.32408 19.43585 6.1844 Q20.24045 4.04472 19.43915 2.75324 Q17.98715 0.41302 15.98699 0.40337 Q13.98682 0.39371 13.69511 0.51688 Q12.80875 0.89113 12.37251 0.58706 Q11.93627 0.283 9.98455 3.6029 Q9.93127 3.69353 9.2061 4.92561 Q8.48093 6.15769 7.11253 9.22453 Q5.96722 11.79138 4.94495 14.22629 Q3.92268 16.66121 1.48379 18.8849 Q1.48345 18.88521 1.20724 19.22858 Q0.93103 19.57195 -1.73413 20.76493 Q-2.20033 20.97361 -2.143 21.52459 Q-2.08567 22.07558 -1.17859 22.07451 Q3.13366 22.06944 4.35216 22.24148 Q5.57066 22.41351 6.43121 22.94604 Q10.00615 25.1583 9.97836 25.68312 Q9.95058 26.20794 9.9531 26.21223 Q9.98099 26.2596 10.80581 27.16213 Q11.63062 28.06466 10.47719 31.82987 Q9.76837 34.14371 8.69301 35.18625 Q7.61766 36.2288 6.84 36.68722 Q6.74943 36.74061 5.33256 37.51821 Q3.9157 38.29581 -0.04655 38.29904 Q-0.05881 38.29905 -1.14717 38.2092 Q-2.23553 38.11936 -2.4993 39.33962 Q-2.12195 39.71652 -2.11468 39.72015 Q-2.1074 39.72378 -1.74461 39.90475 Q-1.37189 39.82977 -1.15181 39.81894 Q-0.93172 39.80811 2.55294 39.57476 zM-4.48036 36.32318 Q-4.48036 33.21093 -4.38602 30.86539 Q-4.29169 28.51985 -4.29169 21.41781 Q-4.29169 18.75555 -4.21455 17.89827 Q-4.1374 17.04099 -4.27073 11.77451 Q-4.49742 2.8203 -3.58126 2.36319 Q-2.6651 1.90609 -2.35255 1.84597 Q-2.22346 1.82114 -1.55078 1.65233 Q-0.87809 1.48352 -1.4616 0.75482 Q-2.09179 0.6712 -2.10632 0.5719 Q-2.12086 0.47259 -6.93311 0.47824 Q-10.49537 0.48242 -10.80005 0.57885 Q-11.10473 0.67527 -11.27258 1.14369 Q-10.51839 1.66932 -9.4323 1.82208 Q-8.34621 1.97485 -8.16997 3.22593 Q-7.69739 6.58066 -7.73977 6.60383 Q-7.78214 6.62699 -7.78214 11.13925 Q-7.78214 22.1515 -7.88236 25.7542 Q-7.98258 29.35691 -7.78214 33.21396 Q-7.77425 33.36579 -7.59322 35.59959 Q-7.41218 37.83339 -9.17622 38.23639 Q-10.42154 38.52089 -10.83581 38.63322 Q-11.25007 38.74556 -11.36692 39.06703 Q-10.46334 39.55343 -8.27077 39.50455 Q-6.0782 39.45567 -5.32939 39.62595 Q-4.31132 39.85746 -4.39584 39.17145 Q-4.48036 38.48544 -4.48036 36.32318 z" />
<glyph unicode="S" horiz-adv-x="33.56923" d="M13.23208 39.54588 Q13.25512 39.54873 14.53529 39.78411 Q15.81547 40.01948 16.37412 39.23674 Q16.52215 37.31223 16.70356 35.33723 Q16.88497 33.36223 16.54603 31.32893 Q15.93834 30.65044 15.71507 31.19146 Q15.49179 31.73247 13.7669 34.82744 Q13.67332 34.99535 12.78789 36.22651 Q11.90245 37.45767 9.66028 38.46116 Q7.42724 39.46056 5.52295 39.29652 Q3.61865 39.13249 3.06104 38.89833 Q1.17314 38.10554 0.03234 36.77859 Q-1.10846 35.45164 -1.14107 35.36945 Q-1.38037 34.76627 -1.92888 33.54323 Q-2.47739 32.32018 -1.30343 30.77595 Q-0.34233 29.51171 -0.10537 29.28712 Q0.13158 29.06253 1.93411 27.82128 Q3.07823 27.03342 5.49261 25.90505 Q7.90698 24.77667 8.07494 24.67235 Q9.12874 24.01781 9.59476 23.81052 Q10.06078 23.60324 12.2675 22.67163 Q13.37092 22.2058 15.17798 20.6977 Q16.98504 19.1896 17.4151 18.53059 Q18.63917 16.65486 18.94485 15.47892 Q19.25052 14.30297 19.26785 14.19269 Q19.33292 13.77856 19.47584 11.89823 Q19.61877 10.01789 19.03865 8.46278 Q17.7104 4.90217 16.49838 4.04651 Q15.28637 3.19084 15.12303 3.09993 Q14.38723 2.6904 14.40753 2.63041 Q14.42784 2.57042 12.27705 1.30767 Q10.08563 0.02106 8.29374 -0.07396 Q6.50185 -0.16897 6.05983 -0.20384 Q5.78107 -0.22583 3.80544 -0.25053 Q1.82981 -0.27523 -0.65401 0.65367 Q-0.88854 0.74138 -1.38228 0.85218 Q-1.87602 0.96298 -4.57917 2.92149 Q-7.16125 4.79228 -7.21249 5.2605 Q-7.26373 5.72872 -7.4538 6.23866 Q-7.82066 7.22291 -8.11045 7.61144 Q-8.40025 7.99997 -8.29423 10.04061 Q-8.22242 11.42283 -7.71255 13.28227 Q-7.20268 15.14172 -5.56285 16.58903 Q-3.39838 18.49939 -2.05574 18.28578 Q-0.71311 18.07217 0.41562 17.53734 Q0.86322 17.32525 1.30344 17.03653 Q1.74366 16.74781 1.50435 16.21818 Q0.57088 15.93919 0.16115 16.14055 Q-0.24858 16.3419 -2.1343 15.04759 Q-3.23827 14.28985 -3.83826 13.61438 Q-4.43825 12.93891 -4.68422 9.86465 Q-4.88996 7.29325 -3.92646 5.82292 Q-2.96295 4.3526 -2.77417 4.20875 Q-0.0793 2.15528 1.97441 1.78853 Q4.02811 1.42178 5.07615 1.22025 Q6.07321 1.02852 8.03172 1.27026 Q9.99023 1.512 12.83097 4.01932 Q12.85866 4.04376 14.44449 5.70333 Q16.03031 7.36289 16.03031 10.09925 Q16.03031 10.54265 16.01109 11.39083 Q15.99187 12.23901 14.65507 14.91413 Q14.2777 15.6693 13.07372 16.94858 Q11.86974 18.22786 7.75978 20.40373 Q7.27972 20.65788 7.2755 20.66084 Q7.27128 20.6638 4.57954 21.86849 Q1.66193 23.17427 -0.08698 24.04438 Q-1.83588 24.9145 -3.09888 26.57585 Q-4.78621 28.79537 -4.71036 31.34837 Q-4.63452 33.90137 -4.28311 34.90501 Q-3.95208 35.85045 -3.26744 37.08934 Q-2.5828 38.32823 0.29147 39.60816 Q2.80032 40.72537 7.4134 40.06095 Q12.02648 39.39653 13.23208 39.54588 z" />
<glyph unicode="T" horiz-adv-x="18.61539" d="M-2.31137 39.56547 Q1.70584 39.56086 2.33781 39.56013 Q2.96978 39.5594 6.18433 39.55572 Q6.55155 39.5553 7.00909 39.5548 Q7.46662 39.5543 11.20452 39.54996 Q11.22174 39.54994 11.48962 39.54963 Q11.7575 39.54932 16.22471 39.54419 Q22.89193 39.53654 23.32078 39.38856 Q23.74964 39.24057 23.755 39.24593 Q23.755 38.66149 23.63939 37.8805 Q23.52378 37.09951 21.4809 37.45714 Q20.8526 37.56713 20.7155 37.66867 Q20.5784 37.77021 16.73961 37.93457 Q12.2005 38.12891 11.41289 37.08127 Q10.62527 36.03363 10.62527 35.49585 Q10.62527 15.07863 10.62527 13.13155 Q10.62527 11.18446 10.62527 11.16724 Q10.62527 3.25002 11.00568 3.04652 Q11.38609 2.84303 12.18067 2.48739 Q13.15232 2.0525 13.70083 2.05288 Q14.24935 2.05326 16.4178 1.21675 Q16.54381 0.25051 15.94132 0.26912 Q15.33883 0.28773 11.49415 -0.12919 Q8.71354 -0.43072 7.97736 -0.27752 Q7.24118 -0.12432 6.47396 -0.12343 Q5.35674 -0.12214 4.14741 -0.15919 Q2.93809 -0.19624 2.22611 0.55724 Q3.00006 2.10426 4.00611 2.30738 Q5.01215 2.5105 5.55145 2.5379 Q5.60813 2.54078 6.47549 2.56298 Q7.34284 2.58518 7.34284 7.5024 Q7.34284 27.91962 7.34284 29.86671 Q7.34284 31.8138 7.34284 31.83102 Q7.34284 33.99824 7.56519 35.11004 Q7.78753 36.22184 6.76359 37.62421 Q5.91595 37.79995 5.87846 37.93815 Q5.84098 38.07634 1.70049 37.86601 Q-0.6033 37.74898 -2.91126 37.38487 Q-5.21922 37.02077 -5.77616 34.92469 Q-6.50226 32.19198 -6.69636 32.05165 Q-6.89046 31.91131 -7.4281 31.94451 Q-7.61051 32.94796 -7.74991 34.25414 Q-7.88931 35.56032 -7.33156 39.18506 Q-6.93975 39.49806 -6.2778 39.48263 Q-5.61586 39.46721 -5.20764 39.56879 Q-4.81997 39.66526 -4.79928 39.61678 Q-4.77859 39.5683 -2.31137 39.56547 z" />
<glyph unicode="U" horiz-adv-x="56" d="M20.39079 38.61901 Q19.66166 38.29577 19.6235 38.33961 Q19.58533 38.38345 16.97084 37.71756 Q16.69684 37.16986 16.58237 35.86061 Q16.46791 34.55137 16.46791 31.28057 Q16.46791 31.20425 16.46791 31.0206 Q16.46791 30.83695 16.46791 27.86063 Q16.46791 26.48431 16.46791 26.10512 Q16.46791 25.72593 16.46791 17.39961 Q16.46791 13.87329 16.37526 11.09918 Q16.28261 8.32507 17.78671 6.24419 Q17.88171 6.11276 18.60877 4.82772 Q19.33583 3.54268 22.89428 2.29324 Q25.18486 1.48897 27.60937 1.23971 Q30.03388 0.99044 32.05884 1.79122 Q32.1279 1.81853 33.52414 2.32644 Q34.92037 2.83435 36.48465 4.60269 Q37.38591 5.62152 37.79438 5.8303 Q38.20284 6.03909 39.21167 9.11486 Q39.26755 9.28523 39.38917 9.447 Q39.51078 9.60878 40.08342 13.67381 Q40.38337 15.80309 40.34516 16.4898 Q40.30695 17.17651 40.30695 22.50283 Q40.30695 31.87915 40.15198 33.80891 Q39.99701 35.73866 39.60284 36.28399 Q38.24835 38.15789 37.92435 37.8497 Q37.60034 37.54152 35.88113 38.2999 Q35.70901 39.56231 37.25039 39.39978 Q38.79176 39.23726 41.31281 39.40027 Q42.07402 39.44949 44.35603 39.48319 Q46.63803 39.51689 46.24156 38.28829 Q44.70943 37.36653 43.98644 37.40199 Q43.26345 37.43745 42.69867 34.19056 Q42.05677 30.50032 42.03684 25.53262 Q42.01692 20.56492 42.01692 20.3886 Q42.01692 15.81228 41.63845 12.60645 Q41.25998 9.40062 39.97166 6.34228 Q39.80755 5.9527 38.48645 3.73643 Q37.16535 1.52016 33.24353 0.40403 Q31.28816 -0.15246 31.24523 -0.08525 Q31.2023 -0.01804 26.42599 -0.01303 Q26.34967 -0.01295 23.70654 -0.05258 Q21.06341 -0.09221 18.82611 1.4484 Q18.19782 1.88104 18.04939 1.78715 Q17.90096 1.69326 15.12675 4.99543 Q13.86553 6.49667 13.78891 7.65148 Q13.7123 8.8063 13.33854 10.45146 Q13.27448 10.73343 13.06064 10.7863 Q12.84679 10.83917 12.84679 15.39194 Q12.84679 16.11826 12.90563 16.23233 Q12.96446 16.34639 12.72385 18.89025 Q12.596 20.24193 12.62081 20.33498 Q12.64561 20.42803 12.64561 26.05435 Q12.64561 29.23067 12.74388 31.15416 Q12.84214 33.07765 12.34385 36.61629 Q12.20436 37.60688 11.95078 37.66191 Q11.69721 37.71694 9.82919 38.22849 Q9.03207 39.34535 10.64887 39.27798 Q12.26567 39.21061 16.32262 39.47296 Q17.73246 39.56413 18.99293 39.79578 Q20.25339 40.02743 20.39079 38.61901 z" />
<glyph unicode="V" horiz-adv-x="56" d="M11.98013 39.90821 Q12.2605 39.9079 12.26959 39.92358 Q12.27868 39.93925 17.28158 39.93373 Q18.59987 38.70816 16.24661 38.62648 Q13.89335 38.54479 14.51061 36.03651 Q15.16178 33.39042 15.75136 31.70381 Q16.34095 30.01721 17.67893 25.64969 Q18.82702 21.90203 19.82566 19.42548 Q20.82431 16.94894 20.82635 16.93593 Q20.91719 16.35776 21.25369 15.33345 Q21.59018 14.30913 23.43002 9.37299 Q23.9241 8.04741 24.21012 7.3449 Q24.49614 6.64238 25.18672 7.08108 Q25.681 7.94015 25.76162 8.31035 Q25.84224 8.68056 27.90541 13.29971 Q28.27663 14.13082 30.3986 19.66915 Q32.52056 25.20748 32.65267 25.48678 Q32.69926 25.58528 32.86987 26.03659 Q33.04049 26.4879 34.04339 29.17639 Q35.46399 32.9846 36.04358 33.79556 Q36.62317 34.60653 35.49685 36.86034 Q35.31451 37.22521 35.30383 37.38836 Q35.29315 37.55152 33.38463 38.13836 Q33.36593 38.14411 32.71788 38.38023 Q32.06982 38.61636 32.80952 39.54017 Q38.43595 40.33774 38.89603 40.13004 Q39.35611 39.92233 39.86767 39.90882 Q40.72396 39.8862 42.07448 39.54177 Q43.425 39.19734 42.04263 38.29611 Q41.45381 37.91223 40.90635 37.67609 Q40.3589 37.43995 39.15663 34.40947 Q37.6952 30.72573 35.97598 26.61913 Q34.25676 22.51253 34.22115 22.41083 Q31.81996 15.55293 31.57533 15.47337 Q31.33069 15.39381 30.80187 13.97619 Q29.22399 9.74636 29.02782 9.31097 Q28.83164 8.87558 27.91587 6.70163 Q25.89267 1.89876 25.74535 0.73039 Q25.59802 -0.43797 22.64578 0.02573 Q22.58108 0.34932 22.55233 0.46269 Q22.52357 0.57605 21.45374 3.44632 Q19.37054 9.03538 19.42571 9.30816 Q19.48089 9.58094 18.36906 12.22275 Q17.14261 15.13692 16.59061 17.2229 Q16.03862 19.30889 15.80722 19.82747 Q15.35475 20.84148 13.36046 26.48536 Q11.36618 32.12924 11.32137 32.28613 Q11.30178 32.35472 10.86414 34.78569 Q10.4265 37.21665 6.6473 38.25151 Q6.11429 38.99831 6.52556 39.39833 Q6.93683 39.79836 7.18058 39.88214 Q8.05085 40.18127 8.44115 40.04648 Q8.83144 39.91169 11.98013 39.90821 z" />
<glyph unicode="W" horiz-adv-x="33.56923" d="M19.24471 39.68039 Q21.47981 38.29211 21.38849 35.56735 Q21.29718 32.84259 21.15287 32.40262 Q19.7512 28.12911 19.44864 27.70954 Q19.14609 27.28998 18.77691 26.24996 Q17.97983 26.0056 17.59422 27.25065 Q17.20861 28.49571 17.71819 29.63659 Q17.79513 29.80885 18.5435 32.01431 Q19.29186 34.21977 18.8877 36.44308 Q18.44422 37.10881 18.47667 37.73149 Q18.50911 38.35417 15.67461 38.66262 Q15.00772 38.40687 14.65962 38.52553 Q14.31151 38.64418 12.68312 35.5637 Q12.69553 35.50427 13.65831 32.78588 Q14.62109 30.0675 15.90852 26.81948 Q18.7982 19.52919 19.68196 17.01853 Q20.56573 14.50788 20.88203 13.83842 Q22.20091 11.047 22.58892 9.32407 Q22.97692 7.60113 23.98432 8.40592 Q24.01991 8.47933 24.10781 8.50185 Q24.19571 8.52436 25.94172 13.20488 Q28.66572 20.50707 29.42715 22.54823 Q30.18858 24.58939 30.27508 24.82128 Q31.21657 27.34512 31.25005 27.64198 Q31.28353 27.93884 31.76467 29.313 Q32.27543 30.77174 32.96293 33.02287 Q33.65044 35.27401 33.6359 35.41699 Q33.57191 36.04629 33.44299 36.79155 Q33.31406 37.53681 30.18891 38.31388 Q29.53277 39.23322 30.31773 39.43781 Q31.1027 39.64241 33.40199 39.63982 Q34.05129 39.63909 35.05932 39.61035 Q36.06734 39.58161 35.88875 36.41162 Q35.84269 35.59407 36.08785 35.32069 Q36.333 35.04731 34.91621 31.47613 Q31.6187 23.1644 31.59682 22.79349 Q31.57494 22.42257 31.11221 21.32411 Q30.86365 20.73406 30.82907 20.60319 Q30.79448 20.47232 29.4872 16.96795 Q29.22726 16.27114 29.20655 16.21563 Q29.18585 16.16011 27.86219 12.6118 Q26.25663 8.3078 26.25802 8.29425 Q26.25942 8.2807 26.24949 8.24333 Q26.22285 8.14306 25.45248 6.01783 Q24.68211 3.8926 23.31955 0.54014 Q22.45543 0.23868 22.30147 0.61552 Q22.14751 0.99235 20.46347 4.55664 Q19.57178 6.44391 18.39914 9.86546 Q17.22649 13.28701 17.22576 13.28856 Q17.14574 13.45792 16.16518 16.1233 Q15.18461 18.78868 14.52972 16.65241 Q13.22559 12.39831 13.01163 12.38434 Q12.79766 12.37037 12.28918 10.91816 Q12.1915 10.63919 12.13677 10.5237 Q12.08204 10.40821 10.65186 6.57433 Q8.45213 0.67754 8.18286 0.50628 Q7.91359 0.33502 7.25411 0.22585 Q6.94192 0.5716 6.80167 0.80192 Q6.66142 1.03224 4.73042 5.90391 Q3.35152 9.3827 3.2223 9.64259 Q3.09308 9.90248 2.02207 13.17026 Q1.08846 16.01881 0.14253 18.60582 Q-0.8034 21.19283 -1.08022 22.03745 Q-2.73015 27.0716 -2.85464 27.35171 Q-2.97913 27.63182 -4.08403 31.00301 Q-5.43809 35.13441 -5.94278 36.40956 Q-6.44748 37.68471 -8.92213 38.57952 Q-9.38608 39.85593 -8.42022 39.77088 Q-7.45435 39.68583 -5.15506 39.68324 Q-0.30577 39.67778 0.43283 39.74468 Q1.17143 39.81158 1.27112 38.78964 Q-0.06472 38.17332 -1.0681 38.16822 Q-2.07149 38.16311 -1.53572 35.98596 Q-0.55454 31.99884 -0.02707 30.51225 Q0.50039 29.02566 1.23419 26.78676 Q3.60045 19.56701 4.07415 18.45974 Q4.54786 17.35247 4.87815 16.46631 Q6.74451 11.45896 6.64441 11.33639 Q6.54432 11.21381 8.25127 6.98329 Q8.42672 7.05619 8.70822 7.10397 Q8.98971 7.15175 9.53158 8.80383 Q11.44748 14.64516 12.06332 15.34276 Q12.67916 16.04037 13.77877 20.5065 Q13.86387 20.85214 14.182 21.00521 Q14.50012 21.15827 12.70774 24.95186 Q10.38495 29.86806 10.12536 32.7476 Q9.86577 35.62714 9.99939 36.03453 Q10.77775 38.40764 11.8398 39.23402 Q12.90184 40.0604 13.70491 40.30216 Q13.74208 40.31335 14.71132 41.10376 Q15.68056 41.89417 19.24471 39.68039 z" />
<glyph unicode="X" horiz-adv-x="56" d="M15.60876 39.87033 Q18.67822 39.78918 19.0975 39.61887 Q19.51678 39.44856 19.70538 38.73833 Q18.86397 38.36365 18.63215 38.52497 Q18.40033 38.68629 16.69152 37.63663 Q16.48422 36.77807 18.03784 34.54991 Q19.59145 32.32175 20.30815 31.10255 Q21.25338 29.49459 23.28778 26.33319 Q25.32217 23.17178 25.33125 23.16042 Q25.49655 23.20746 25.65146 23.22839 Q25.80637 23.24931 27.72002 25.89254 Q28.31336 26.71209 28.56276 27.05657 Q28.81215 27.40105 30.7562 30.08622 Q31.02701 30.46027 32.7759 32.83094 Q34.5248 35.2016 33.97098 36.91403 Q33.29633 37.55571 33.24861 37.53951 Q33.2009 37.52332 30.85666 38.32399 Q30.60463 39.58443 31.70344 39.67829 Q32.80225 39.77215 37.27507 39.83489 Q38.90911 39.85781 39.62849 39.82924 Q40.34787 39.80066 40.19963 38.6149 Q39.16367 38.1141 38.80012 38.14271 Q38.43658 38.17131 36.83973 35.85038 Q36.63428 35.55177 36.20836 34.97696 Q35.78244 34.40214 33.91517 31.54496 Q33.11468 30.3201 33.01825 30.38331 Q32.92181 30.44652 30.89015 27.3401 Q30.88291 27.32903 30.82557 27.23224 Q30.76823 27.13544 27.95443 23.04585 Q27.38053 22.21174 27.07801 21.75066 Q26.77548 21.28958 28.4679 18.55797 Q29.76576 16.46319 30.01869 16.18619 Q30.27163 15.9092 33.41286 10.83918 Q38.18678 3.13396 38.71101 2.76564 Q39.23525 2.39733 39.38477 2.33787 Q42.33429 1.16493 42.51848 1.21747 Q42.70267 1.27002 42.9121 0.53676 Q42.36401 0.05779 41.96522 -0.00336 Q41.56643 -0.0645 38.19039 -0.06072 Q33.51435 -0.05548 32.21539 -0.21537 Q30.91643 -0.37525 31.5599 1.15226 Q32.18168 1.34473 33.34061 1.5455 Q34.49953 1.74626 33.30124 3.89627 Q32.49006 5.35171 32.47734 5.52027 Q32.46462 5.68883 30.58876 8.4201 Q30.5533 8.47173 30.35512 8.74655 Q30.15693 9.02137 27.63072 12.69863 Q27.36876 13.07995 27.29286 13.2588 Q27.21695 13.43764 24.42709 17.53556 Q24.1518 17.45116 23.3072 16.66506 Q22.46259 15.87896 21.45788 14.07853 Q20.52418 12.40535 18.43373 9.39123 Q16.34328 6.37711 14.8832 4.08434 Q14.89071 3.88926 15.00305 3.11394 Q15.11539 2.33862 17.56219 1.63677 Q18.60311 1.33819 18.67417 0.87165 Q18.74524 0.4051 18.49984 0.06181 Q17.17619 -0.03852 17.03763 -0.03769 Q16.89908 -0.03686 12.67304 -0.03212 Q10.997 -0.03024 10.18687 -0.15091 Q9.37674 -0.27158 7.24809 0.27534 Q7.07159 1.29043 7.98939 1.41544 Q8.90718 1.54046 10.01638 2.42659 Q11.11857 3.30712 11.46723 3.60924 Q11.81589 3.91135 13.52138 6.15092 Q13.58876 6.2394 14.33582 7.24772 Q15.08287 8.25605 19.48213 14.65003 Q19.77261 15.07222 19.87077 15.20116 Q19.96892 15.3301 22.44018 18.92193 Q22.64563 19.22054 22.82828 19.83194 Q23.01092 20.44333 20.77697 23.53388 Q20.71138 23.62462 19.71676 24.975 Q18.72213 26.32538 16.42362 30.0353 Q16.23178 30.34494 16.14705 30.46693 Q16.06233 30.58893 14.28043 33.31946 Q12.08707 36.6805 11.89268 37.13256 Q11.69828 37.58462 9.82662 37.91222 Q8.84604 38.08385 8.3649 38.54259 Q7.88375 39.00132 7.85086 39.15347 Q8.2383 39.44216 8.46591 39.61265 Q8.69353 39.78314 9.05641 39.85535 Q9.0839 39.86082 9.5186 39.94034 Q9.95329 40.01985 15.60876 39.87033 z" />
<glyph unicode="Y" horiz-adv-x="38.55385" d="M-0.21949 38.32553 Q1.12514 37.24825 2.02518 35.95437 Q2.92522 34.66048 4.78366 31.66084 Q5.74564 30.10814 7.3917 26.35283 Q9.03776 22.59751 9.10292 22.3694 Q9.14318 22.22845 9.46469 21.29352 Q9.7862 20.35858 10.44669 20.2562 Q11.33564 22.83312 12.26231 24.6407 Q13.18898 26.44827 13.63815 27.21131 Q13.85496 27.57962 14.9115 30.00948 Q15.96804 32.43935 18.95325 35.49572 Q20.78512 37.37126 20.76313 37.45375 Q20.74114 37.53623 23.22452 38.99416 Q24.67105 39.84338 25.90849 39.11653 Q27.14592 38.38968 26.42798 36.75882 Q24.67187 36.05842 24.51745 36.15516 Q24.36303 36.2519 21.24486 33.63338 Q20.95972 33.39393 19.54344 32.36949 Q18.12716 31.34505 15.96576 27.2566 Q15.8584 27.05352 14.46087 24.23837 Q13.06333 21.42322 12.91827 20.58927 Q12.56524 18.55972 11.88391 17.59585 Q11.20257 16.63198 11.20257 10.64495 Q11.20257 6.802 11.10559 4.27623 Q11.00861 1.75045 13.68614 1.67959 Q13.72317 1.67861 14.66002 1.51781 Q15.59686 1.35701 15.52183 0.38168 Q13.66869 0.07497 13.09453 0.12208 Q12.52038 0.16919 6.12743 0.17663 Q6.08447 0.17668 4.08317 0.18276 Q2.08187 0.18884 2.78 1.58428 Q3.6567 1.64589 5.57364 1.6816 Q7.49057 1.71732 7.59118 3.24641 Q7.79657 6.3681 7.93749 9.28051 Q8.07842 12.19292 7.30323 15.60464 Q6.06178 21.06845 4.31039 24.70461 Q2.55899 28.34077 1.80816 29.55266 Q0.63551 31.44539 0.20227 32.21171 Q-0.23097 32.97804 -2.17516 35.29231 Q-2.96154 36.22838 -3.39823 36.39125 Q-3.83491 36.55411 -5.10266 36.5795 Q-5.95504 36.11777 -6.0432 35.96841 Q-6.13137 35.81906 -7.58624 32.91101 Q-9.10974 32.37955 -8.46996 35.20969 Q-7.83019 38.03984 -5.73856 39.26778 Q-4.55074 39.96512 -3.42773 39.98063 Q-2.30472 39.99613 -0.21949 38.32553 z" />
<glyph unicode="Z" horiz-adv-x="33.56923" d="M15.28597 38.94136 Q15.11361 38.63993 15.01074 38.49071 Q14.90787 38.34149 13.29533 35.45191 Q7.95352 25.87972 7.96692 25.72893 Q7.98033 25.57813 7.05148 24.08103 Q6.94082 23.90267 6.84566 23.72086 Q6.75049 23.53906 5.15875 20.68937 Q5.15298 20.67904 5.11677 20.64454 Q5.08056 20.61004 2.61334 16.18894 Q0.29285 12.03077 -0.58406 10.5106 Q-1.46097 8.99043 -3.21715 5.18742 Q-2.89958 5.14471 2.15604 4.35238 Q7.21166 3.56004 8.07399 3.34677 Q9.27005 3.05096 11.42207 2.81044 Q13.57409 2.56992 14.97051 4.40475 Q14.97481 4.4104 15.66599 5.31494 Q16.35717 6.21948 16.06917 8.19981 Q16.04648 8.24522 15.45679 9.33242 Q14.86709 10.41962 13.03427 10.65086 Q10.96355 9.72885 11.00711 10.84552 Q11.05067 11.9622 11.09802 12.00196 Q13.0556 13.64583 14.53926 13.15035 Q16.02291 12.65486 16.81974 11.49491 Q18.52321 9.01515 17.28473 6.16226 Q16.04625 3.30938 15.36211 2.64209 Q15.35805 2.63813 14.868 1.92989 Q14.37794 1.22166 10.65203 0.30886 Q8.82409 -0.13896 7.62737 -0.06158 Q6.43064 0.01579 2.76563 0.78581 Q2.63236 0.81381 -0.33761 1.31664 Q-3.30757 1.81946 -6.55663 0.89459 Q-6.58368 0.88689 -7.76285 0.82371 Q-8.94202 0.76053 -7.90548 2.83241 Q-3.96185 10.71507 -3.70516 10.7451 Q-3.44846 10.77512 -2.98872 12.00753 Q-2.17743 14.18231 -1.73126 14.7486 Q-1.28509 15.3149 -0.60648 16.67132 Q0.60787 19.09861 1.06705 20.12944 Q1.52624 21.16027 3.03758 23.59622 Q3.06916 23.64712 5.15698 27.51624 Q7.24479 31.38537 7.94346 32.78222 Q7.97214 32.83956 7.9975 33.02216 Q8.02285 33.20476 10.68466 37.77193 Q10.54366 38.40661 8.8756 38.20281 Q7.20754 37.999 5.80054 38.08221 Q3.21708 38.23499 2.79341 38.33451 Q2.36975 38.43403 -2.19464 37.64555 Q-4.55017 37.23864 -5.03317 36.97989 Q-5.51617 36.72114 -6.0345 34.44108 Q-6.36347 32.99399 -6.34279 32.5194 Q-6.32211 32.0448 -6.64365 31.52655 Q-6.75727 31.56905 -7.18996 31.82121 Q-7.62266 32.07336 -7.62266 34.07309 Q-7.62266 39.39337 -7.19276 39.58409 Q-6.76286 39.7748 -6.27381 39.72797 Q-3.73327 39.48468 -2.29414 39.66299 Q-0.85502 39.8413 2.26525 39.83766 Q9.18553 39.82958 12.14572 40.00454 Q15.1059 40.1795 15.28597 38.94136 z" />
<glyph unicode="a" horiz-adv-x="56" d="M32.61244 24.7231 Q36.42788 23.20647 36.87867 22.24416 Q37.32945 21.28186 37.02755 20.52083 Q36.06669 18.0987 36.26188 17.53102 Q36.45707 16.96334 36.32222 15.73338 Q36.3141 15.65932 36.23126 15.07923 Q36.14842 14.49913 36.20014 10.36212 Q36.23996 7.17672 36.48889 6.56255 Q36.73783 5.94839 37.82783 3.19874 Q37.90368 3.0074 38.11013 2.70824 Q38.31657 2.40908 38.09233 0.16692 Q35.04114 -0.33872 34.4752 0.4198 Q33.90926 1.17833 32.96511 1.33151 Q32.09463 1.03352 31.58167 0.57305 Q31.06872 0.11258 28.63138 0.11486 Q28.04405 0.11541 27.90966 0.11555 Q27.77527 0.11569 23.13793 0.12007 Q21.5506 0.12157 21.16075 -0.02819 Q20.7709 -0.17795 19.5638 0.94408 Q18.28405 2.13364 17.8522 2.60371 Q17.42035 3.07378 16.78994 4.765 Q16.578 5.33358 16.19566 6.36385 Q15.81333 7.39412 15.81333 10.38146 Q15.81333 10.7188 15.75815 12.6373 Q15.70298 14.55579 16.91202 16.97256 Q16.9578 17.06407 16.87223 17.29862 Q16.78666 17.53316 19.0348 20.34122 Q20.4083 22.0568 20.55264 22.2851 Q20.69697 22.5134 23.21932 23.84357 Q24.01681 24.26413 24.65998 24.5631 Q25.30316 24.86207 27.40384 25.14853 Q27.4056 25.14877 28.63471 25.48222 Q29.86382 25.81568 32.61244 24.7231 zM28.75346 21.0509 Q27.81442 20.89528 27.77245 20.94071 Q27.73048 20.98613 26.23732 20.39543 Q23.81597 19.43753 23.01577 18.15251 Q22.21557 16.86749 22.16132 16.78447 Q20.57539 14.35751 20.69715 14.22991 Q20.81891 14.10231 20.60145 12.85236 Q20.57229 12.68475 20.78641 9.24146 Q21.00052 5.79817 22.75814 4.31851 Q24.6309 2.74191 24.88067 2.98652 Q25.13044 3.23113 26.06777 3.23024 Q28.60511 3.22784 30.11106 4.26346 Q31.61701 5.29909 31.65617 5.32738 Q32.70762 6.087 32.33182 6.86048 Q31.95602 7.63395 31.74434 11.70919 Q31.6205 14.09331 31.6155 14.33536 Q31.61049 14.57741 31.74434 18.05718 Q31.84708 20.72822 30.83932 20.97889 Q29.83156 21.22956 28.75346 21.0509 z" />
<glyph unicode="b" horiz-adv-x="33" d="M-3.45886 31.33021 Q-3.45886 29.09356 -3.54182 28.68031 Q-3.62477 28.26706 -3.62477 24.03042 Q-3.62477 23.79377 -3.61563 22.93968 Q-3.60648 22.08559 -2.96114 22.03883 Q-2.88427 22.09222 -1.09737 23.11351 Q0.68953 24.13481 2.7627 24.10674 Q4.14693 24.088 6.13628 23.57942 Q8.12562 23.07084 9.97971 20.86404 Q10.77256 19.92036 11.47465 19.44206 Q12.17673 18.96375 12.71719 14.63963 Q13.03558 12.09223 13.07372 11.39712 Q13.11185 10.70201 11.95217 8.10549 Q11.48676 7.06344 11.10827 6.28875 Q10.72977 5.51407 8.83678 3.75824 Q8.33676 3.29445 6.48452 2.29343 Q4.63228 1.29241 2.34793 1.29478 Q-2.03872 1.29934 -2.77485 1.95974 Q-3.51099 2.62014 -3.92894 2.2691 Q-4.06861 2.15179 -4.31442 1.77044 Q-4.56023 1.38909 -6.36226 1.7186 Q-8.03477 3.18378 -7.61329 4.05145 Q-7.1918 4.91912 -7.1918 6.19898 Q-7.1918 11.48563 -7.31623 12.84397 Q-7.44066 14.2023 -7.44066 19.38895 Q-7.44066 20.12559 -7.44066 20.2537 Q-7.44066 20.38182 -7.44066 23.86847 Q-7.44066 24.60512 -7.44066 24.73323 Q-7.44066 24.86135 -7.44066 28.34799 Q-7.44066 31.58464 -6.99092 33.21005 Q-6.54118 34.83546 -5.28385 34.98208 Q-3.37845 35.20427 -3.41865 33.38556 Q-3.45886 31.56685 -3.45886 31.33021 zM2.26497 20.12546 Q-0.29519 19.76238 -1.2563 18.93547 Q-2.2174 18.10856 -2.74914 17.76186 Q-3.82438 17.06079 -3.72457 16.08157 Q-3.62477 15.10235 -3.62477 12.6657 Q-3.62477 9.17905 -3.62477 9.05094 Q-3.62477 8.92283 -3.62477 8.18618 Q-3.62477 6.54953 -2.73858 6.30472 Q-1.8524 6.05991 -1.44953 5.87964 Q0.55811 4.98129 2.43881 5.29666 Q4.31951 5.61203 4.88264 5.80854 Q6.94853 6.52946 7.13109 7.09867 Q7.31365 7.66788 7.39891 7.76918 Q9.38453 10.1284 8.81844 13.60756 Q8.25236 17.08673 6.62467 18.7568 Q5.44982 19.96224 4.42503 20.12435 Q3.40024 20.28646 2.26497 20.12546 z" />
<glyph unicode="c" horiz-adv-x="29" d="M2.7005 23.86412 Q2.99697 23.75328 4.87512 22.83809 Q6.75326 21.92291 6.39983 20.36819 Q5.86224 18.00336 3.99629 19.0496 Q2.13034 20.09585 1.48713 20.25483 Q-1.59399 21.0164 -2.7493 20.33341 Q-3.90461 19.65041 -4.56496 18.82566 Q-4.81905 18.50831 -6.16597 16.78457 Q-7.51288 15.06082 -7.86475 11.34161 Q-7.94363 10.50786 -7.77668 8.96024 Q-7.60973 7.41263 -6.10388 6.01279 Q-5.18391 5.15759 -3.47095 4.54422 Q-1.758 3.93086 0.28855 4.64492 Q0.35232 4.66717 0.69609 4.68275 Q1.03986 4.69833 3.55135 6.17311 Q5.45655 7.29187 6.25555 5.60351 Q7.05455 3.91515 5.71175 2.9451 Q5.30057 2.64806 4.36719 1.8766 Q3.43381 1.10515 0.66588 0.80464 Q-0.21477 0.70903 -2.34216 0.70844 Q-4.46955 0.70784 -5.06067 0.92886 Q-6.5748 1.49499 -7.30781 1.49261 Q-8.04081 1.49024 -9.95857 4.42601 Q-9.96311 4.43296 -10.88152 5.57114 Q-11.79993 6.70931 -11.83782 9.74015 Q-11.83842 9.78814 -11.85213 11.57119 Q-11.86584 13.35423 -10.75762 15.83553 Q-9.85499 17.85651 -9.69021 18.51245 Q-9.52544 19.1684 -7.16928 21.83217 Q-5.67455 23.52205 -5.48367 23.6518 Q-5.29279 23.78155 -3.66233 24.31453 Q-3.50197 24.36695 -3.21888 24.45842 Q-2.9358 24.54989 -2.7079 24.55772 Q-2.2536 24.57333 -1.70726 24.94063 Q-1.16092 25.30792 2.7005 23.86412 z" />
<glyph unicode="d" horiz-adv-x="30" d="M10.89185 31.94384 Q10.60697 26.46033 10.19476 23.03501 Q9.78255 19.6097 9.78255 17.00913 Q9.78255 12.05857 9.79155 10.49091 Q9.80055 8.92325 10.26787 4.65784 Q10.28223 4.52677 10.50996 2.7036 Q10.73769 0.88043 7.73234 1.05523 Q7.03355 1.66738 6.84159 2.26418 Q6.64962 2.86099 5.385 2.15701 Q2.85345 0.74777 0.03969 0.72004 Q-2.77408 0.69231 -3.8162 1.10663 Q-5.63247 1.82873 -5.97483 1.74864 Q-6.31719 1.66855 -8.46136 4.48878 Q-10.66631 7.38896 -10.56309 8.13982 Q-10.45986 8.89069 -10.46205 8.90818 Q-10.52154 9.38417 -10.61883 11.65914 Q-10.71612 13.9341 -9.99655 16.12802 Q-9.51072 17.60929 -9.53805 18.34234 Q-9.56537 19.07538 -6.09421 21.84878 Q-4.26402 23.31107 -1.60053 23.64703 Q1.06296 23.98299 6.03869 22.00477 Q6.31683 22.978 6.22705 23.6879 Q6.13727 24.39781 6.39525 26.46139 Q6.86411 30.21184 6.80103 31.68702 Q6.73796 33.1622 6.97961 33.89901 Q7.49659 35.4753 7.91259 35.5527 Q8.3286 35.63009 8.43555 35.6506 Q9.02937 35.76446 10.0524 35.62106 Q11.07543 35.47766 10.89185 31.94384 zM-3.1427 19.25082 Q-6.48704 17.92803 -6.66071 15.66605 Q-6.83437 13.40406 -6.84695 13.33176 Q-7.13672 11.66587 -6.79002 10.33801 Q-6.44332 9.01016 -6.44086 9.00312 Q-5.81277 7.20792 -4.72274 6.43401 Q-3.63272 5.66009 -3.46954 5.55336 Q-2.13264 4.67891 0.07669 4.72043 Q2.28601 4.76195 4.74121 6.7236 Q5.94592 7.68614 5.8586 8.50257 Q5.77127 9.31901 5.77127 15.31957 Q5.77127 17.71768 3.15291 19.21148 Q0.53455 20.70528 -3.1427 19.25082 z" />
<glyph unicode="e" horiz-adv-x="31" d="M8.18983 23.97928 Q8.27371 23.95523 9.28711 23.95208 Q10.3005 23.94893 11.35639 21.71429 Q11.58173 21.23739 11.97381 19.75952 Q12.36589 18.28165 11.81714 17.34933 Q10.81591 15.64825 8.89809 14.47583 Q6.98026 13.30342 5.64318 12.67268 Q-2.92835 8.62925 -3.00149 8.57258 Q-3.07464 8.51591 -3.26173 8.0909 Q-1.91959 5.87898 0.90715 5.31086 Q3.7339 4.74274 4.3531 4.76594 Q4.51645 4.77206 6.08715 4.92975 Q7.65785 5.08744 8.83487 5.70808 Q11.46686 7.09593 11.3096 7.36554 Q11.15234 7.63514 11.89253 8.22654 Q12.43178 8.34958 14.1992 7.38538 Q15.96662 6.42117 13.45906 4.09505 Q13.44441 4.08146 13.0115 3.57 Q12.57858 3.05855 10.1082 2.02086 Q6.76195 0.61526 3.55096 0.82263 Q0.33997 1.02999 -0.28784 1.18516 Q-1.15206 1.39876 -2.93447 2.16371 Q-4.71689 2.92866 -6.45342 5.88252 Q-6.76965 6.42043 -7.20213 7.3444 Q-7.6346 8.26838 -7.6346 11.48802 Q-7.6346 11.60765 -7.65853 13.735 Q-7.68246 15.86235 -5.76649 19.11773 Q-5.65294 19.31066 -4.55146 20.7654 Q-3.44998 22.22015 -2.69208 22.82573 Q-2.59784 22.90103 -1.57622 23.72452 Q-0.55461 24.54802 2.19179 24.72246 Q5.63244 24.941 6.77729 24.49851 Q7.92213 24.05603 8.18983 23.97928 zM0.53312 20.12507 Q-1.95578 19.01644 -2.42838 17.52101 Q-2.90097 16.02558 -3.33712 14.49949 Q-3.98018 12.24942 -2.32744 13.0963 Q-0.67471 13.94318 -0.47214 14.04426 Q1.65601 15.10621 1.77431 15.14431 Q1.89262 15.18241 2.28394 15.35672 Q3.08539 15.71371 4.27989 16.1927 Q5.47439 16.67169 8.2736 18.78537 Q7.93188 20.25312 5.29597 20.66279 Q2.66005 21.07246 0.53312 20.12507 z" />
<glyph unicode="f" horiz-adv-x="27" d="M5.51015 33.94601 Q5.50955 33.93263 5.69322 32.74837 Q5.87689 31.5641 3.05726 31.49574 Q2.62172 31.48518 0.65393 30.93512 Q-1.31387 30.38506 -1.98949 27.413 Q-2.1134 26.86792 -2.50968 25.22607 Q-2.90595 23.58421 -0.83353 23.71833 Q-0.35559 23.74926 1.58094 23.97816 Q3.51746 24.20706 4.42938 23.224 Q5.2691 22.31877 5.29328 21.48922 Q5.31745 20.65967 4.07225 20.32978 Q4.06689 20.32836 4.04795 20.28841 Q4.02901 20.24847 -0.19446 20.03361 Q-1.42402 19.97106 -2.05918 19.90936 Q-2.69434 19.84766 -2.69434 17.96872 Q-2.69434 15.37841 -2.65205 13.90728 Q-2.60976 12.43614 -2.60976 7.39583 Q-2.60976 6.50552 -2.64634 3.73722 Q-2.68292 0.96892 -4.63974 0.46225 Q-6.98514 0.72829 -6.81503 2.01799 Q-6.64493 3.30769 -6.61332 4.1296 Q-6.58706 4.81248 -6.54381 5.80482 Q-6.50055 6.79716 -6.50055 9.93747 Q-6.50055 19.12778 -6.67441 19.30701 Q-6.84828 19.48625 -6.83888 19.49564 Q-8.99536 19.3711 -10.04026 19.1812 Q-11.08516 18.9913 -11.57549 21.0232 Q-11.56344 21.10974 -11.29718 22.12905 Q-11.03091 23.14835 -7.65651 23.27453 Q-5.92433 23.3393 -6.02097 24.0997 Q-6.1176 24.8601 -5.99305 26.17675 Q-5.91068 27.04748 -5.72453 29.38397 Q-5.53837 31.72045 -2.83531 33.673 Q-2.40063 33.98699 -2.00525 34.29867 Q-1.60987 34.61035 1.4502 35.21909 Q3.9098 35.70838 4.26205 35.56543 Q4.6143 35.42248 5.51015 33.94601 z" />
<glyph unicode="g" horiz-adv-x="24" d="M0.81478 23.26934 Q1.59042 22.51185 2.71024 22.27067 Q3.83007 22.02948 3.83007 20.21357 Q3.83007 17.17395 3.42057 14.97251 Q3.01106 12.77107 2.86556 10.55999 Q2.83087 10.03284 2.78242 9.78852 Q2.73398 9.54419 2.5659 6.30892 Q2.38273 2.78318 2.17994 0.41256 Q1.97715 -1.95807 1.08635 -4.34611 Q0.24847 -6.59229 -1.55186 -8.22943 Q-3.3522 -9.86658 -7.04183 -9.86287 Q-7.13145 -9.86278 -7.21734 -9.86271 Q-7.30323 -9.86264 -11.59285 -9.85831 Q-12.68248 -9.85721 -14.67162 -9.81204 Q-16.66076 -9.76687 -16.98666 -7.74594 Q-16.96308 -7.50423 -16.75347 -6.40098 Q-16.54386 -5.29773 -13.09113 -5.96127 Q-12.63733 -6.04848 -10.50009 -6.4536 Q-8.36285 -6.85872 -6.39569 -6.12718 Q-3.86749 -5.187 -2.8453 -2.4178 Q-1.8231 0.3514 -1.76975 1.37831 Q-1.66959 3.30621 -1.49668 4.74808 Q-1.32377 6.18994 -2.28478 4.92788 Q-3.15428 3.78599 -3.52676 3.20613 Q-3.89924 2.62627 -5.41245 1.99064 Q-6.79054 1.41177 -6.98485 1.3468 Q-7.17915 1.28184 -9.34543 1.48892 Q-10.26527 1.57685 -12.4681 2.39203 Q-14.67093 3.20721 -16.18134 6.79594 Q-17.20732 9.23367 -17.09699 9.77675 Q-16.98666 10.31983 -16.98666 12.05946 Q-16.98666 13.29909 -17.28237 13.73192 Q-17.57808 14.16476 -15.47902 18.13535 Q-15.4602 18.17095 -14.69151 19.81964 Q-13.92281 21.46832 -11.11528 22.86928 Q-9.82564 23.51281 -9.80521 23.66335 Q-9.78478 23.81388 -6.64853 24.46609 Q-5.80634 24.64123 -5.73133 24.59929 Q-5.65632 24.55735 -5.27198 24.60517 Q-5.25229 24.60762 -3.19741 24.89425 Q-1.14252 25.18087 0.81478 23.26934 zM-5.63719 20.08261 Q-7.47502 19.83095 -8.14083 19.48279 Q-8.80663 19.13462 -9.88856 18.2702 Q-10.11046 18.09291 -11.17497 16.82784 Q-12.23948 15.56277 -12.68847 11.97087 Q-12.7055 11.83463 -12.41757 9.7351 Q-12.12964 7.63557 -10.53469 6.53744 Q-9.22393 5.63498 -8.57284 5.56808 Q-7.92175 5.50117 -5.74019 6.36408 Q-4.21579 6.96705 -3.16813 8.48355 Q-2.12048 10.00005 -2.00386 10.20904 Q-1.34975 11.38125 -0.9464 14.38728 Q-0.54306 17.39331 -0.51494 17.82068 Q-0.42445 19.196 -1.00767 19.41282 Q-1.5909 19.62964 -1.62929 19.64783 Q-3.66296 20.61124 -4.0047 20.43529 Q-4.34645 20.25934 -5.63719 20.08261 z" />
<glyph unicode="h" horiz-adv-x="3" d="M-8.25361 30.85919 Q-7.86807 27.77441 -8.179 26.44885 Q-8.48993 25.1233 -8.48993 22.74606 Q-8.48993 21.66883 -8.50885 20.04643 Q-8.52778 18.42404 -7.25585 19.93529 Q-6.65975 20.64355 -4.89511 21.90101 Q-3.13047 23.15846 -0.45532 23.05278 Q2.66305 22.92959 3.59703 21.31126 Q4.53101 19.69293 4.55974 19.55539 Q5.28566 16.08061 5.29543 13.29254 Q5.3052 10.50447 5.32119 10.39095 Q5.92178 6.12612 6.3292 3.79418 Q6.73662 1.46224 5.68004 0.84182 Q5.4391 0.70034 4.09432 0.38943 Q2.74954 0.07853 1.98657 3.43635 Q1.61031 5.09227 1.54114 5.70846 Q1.47198 6.32466 1.19886 9.73882 Q1.09403 11.04927 1.14644 11.0624 Q1.19886 11.07553 1.19886 15.25276 Q1.19886 18.98 -0.82547 18.70576 Q-2.8498 18.43152 -3.10727 18.30305 Q-4.25444 17.73065 -4.45857 17.8381 Q-4.6627 17.94555 -6.10055 15.62796 Q-6.72193 14.62639 -7.52716 13.31103 Q-8.33239 11.99567 -8.33239 10.77276 Q-8.33239 9.79553 -8.36281 9.16665 Q-8.39323 8.53777 -8.62996 3.98129 Q-8.66725 3.26356 -9.25152 1.85232 Q-9.83579 0.44108 -11.38694 1.2622 Q-11.67967 1.41716 -12.36607 1.71182 Q-13.05246 2.00647 -12.7873 3.88935 Q-12.77937 3.94566 -12.6433 4.51551 Q-12.50723 5.08536 -12.50723 7.8626 Q-12.50723 9.38983 -12.46785 9.60892 Q-12.42846 9.828 -12.42846 13.45523 Q-12.42846 19.48246 -12.42846 19.59278 Q-12.42846 19.7031 -12.42846 23.38033 Q-12.42846 25.40757 -12.24439 26.66361 Q-12.06032 27.91965 -12.55974 31.44133 Q-12.56071 31.44817 -12.6196 32.93645 Q-12.6785 34.42473 -10.85305 34.8792 Q-10.48316 34.97129 -9.60767 34.82974 Q-8.73218 34.68819 -8.25361 30.85919 z" />
<glyph unicode="i" horiz-adv-x="43" d="M14.06048 18.35933 Q14.06048 16.02906 13.8007 14.89531 Q13.54092 13.76155 13.74 8.5851 Q13.86581 5.3138 13.73119 3.55388 Q13.59657 1.79396 12.25334 1.74087 Q12.18857 1.73831 10.92124 1.86584 Q9.65392 1.99338 9.65392 4.82365 Q9.65392 5.20392 9.5738 5.7029 Q9.49368 6.20189 9.49368 10.43216 Q9.49368 11.76243 9.48482 12.18857 Q9.47596 12.6147 9.65392 16.04034 Q9.88591 20.50591 9.85256 21.73243 Q9.81921 22.95895 10.74888 23.59715 Q11.14426 23.86857 11.16333 23.88015 Q11.1824 23.89172 11.57678 23.9702 Q12.36347 24.12674 13.21198 23.64974 Q14.06048 23.17275 14.06048 18.35933 zM13.26317 29.01717 Q12.99506 28.74905 12.61808 28.5929 Q12.2411 28.43675 11.86193 28.43675 Q11.48276 28.43675 11.10578 28.5929 Q10.72881 28.74905 10.46069 29.01717 Q10.19258 29.28528 10.03643 29.66226 Q9.88028 30.03923 9.88028 30.41841 Q9.88028 30.79758 10.03643 31.17455 Q10.19258 31.55153 10.46069 31.81964 Q10.72881 32.08776 11.10578 32.24391 Q11.48276 32.40006 11.86193 32.40006 Q12.2411 32.40006 12.61807 32.2439 Q12.99505 32.08775 13.26317 31.81964 Q13.53129 31.55153 13.68744 31.17455 Q13.84358 30.79758 13.84358 30.41841 Q13.84358 30.03923 13.68744 29.66226 Q13.53129 29.28528 13.26317 29.01717 z" />
<glyph unicode="j" horiz-adv-x="11" d="M-14.11042 29.47445 Q-16.45042 28.02608 -17.62108 29.47899 Q-18.79174 30.93189 -17.88377 32.3213 Q-17.36343 33.11754 -16.97851 33.34319 Q-16.59358 33.56883 -16.13666 33.64274 Q-13.95247 33.99604 -13.3307 32.16898 Q-12.70893 30.34192 -14.11042 29.47445 zM-13.05595 22.11274 Q-12.72484 19.09101 -12.56776 14.1961 Q-12.41069 9.30119 -12.29094 7.80423 Q-12.08406 5.21802 -12.13535 4.27955 Q-12.18663 3.34108 -12.13587 2.9349 Q-12.08781 2.55033 -11.63329 -0.36529 Q-11.17877 -3.28091 -12.69412 -5.99651 Q-14.74257 -9.66746 -17.50219 -9.73918 Q-20.26181 -9.8109 -21.12989 -9.21319 Q-21.66576 -8.84422 -21.92245 -8.82013 Q-22.17915 -8.79605 -23.67302 -6.72944 Q-25.78201 -3.81189 -26.06472 -2.63941 Q-26.34743 -1.46693 -24.69648 -0.30852 Q-24.68425 -0.30642 -23.90393 -0.01153 Q-23.12361 0.28336 -21.64678 -2.10015 Q-20.72395 -3.58954 -20.42834 -4.37914 Q-20.13273 -5.16875 -18.36965 -5.99062 Q-16.49593 -5.54028 -16.23322 -2.9348 Q-15.97051 -0.32932 -16.04362 1.07812 Q-16.21996 4.47283 -16.42905 6.92791 Q-16.63813 9.38299 -16.69491 10.47599 Q-16.86606 13.77083 -17.01767 16.90679 Q-17.16929 20.04274 -17.17045 20.04942 Q-17.70684 23.13417 -16.72276 23.65817 Q-15.73868 24.18217 -15.39233 24.24478 Q-14.6182 24.38473 -13.93209 24.11578 Q-13.24597 23.84683 -13.05595 22.11274 z" />
<glyph unicode="k" horiz-adv-x="24" d="M-11.6507 30.15421 Q-11.6507 15.23535 -11.63013 15.10388 Q-11.60956 14.9724 -11.27545 14.84355 Q-6.50348 18.78067 -5.71529 19.71421 Q-4.92711 20.64775 -4.05394 21.49887 Q-4.04008 21.51238 -4.00756 21.56878 Q-3.97505 21.62518 -2.02758 23.52313 Q0.24216 25.73516 1.12905 23.96063 Q2.01593 22.1861 1.91673 21.97635 Q1.90528 21.95214 1.758 21.4774 Q1.61071 21.00266 -1.16033 18.30207 Q-4.54011 15.00822 -4.63617 14.85179 Q-4.73222 14.69535 -4.67102 14.23631 Q-4.39305 13.89953 -4.37013 13.85067 Q-4.34721 13.80181 -2.76141 11.71597 Q-0.93331 9.31143 1.07992 6.31897 Q3.09314 3.32652 2.82567 2.45398 Q2.33178 0.84283 1.01896 0.77532 Q-0.29386 0.70782 -1.54393 2.72535 Q-2.58294 4.40225 -2.78867 4.65649 Q-2.9944 4.91074 -5.4382 8.29145 Q-6.94437 10.37506 -7.38806 11.24897 Q-7.83175 12.12287 -9.37418 11.06405 Q-11.57657 9.55219 -11.77899 9.19339 Q-11.98142 8.83459 -12.1427 5.73 Q-12.27555 3.17272 -12.06963 2.51354 Q-11.86371 1.85436 -13.00161 1.18618 Q-14.57388 0.26294 -15.3434 1.16264 Q-16.11292 2.06234 -16.20376 2.64047 Q-16.52936 4.71279 -16.26649 6.87275 Q-16.00362 9.03271 -16.00362 10.34543 Q-16.00362 14.01429 -15.92857 14.12166 Q-15.85352 14.22903 -15.85352 14.24789 Q-15.85352 15.56676 -15.77847 19.90275 Q-15.70342 24.23874 -15.70342 28.9576 Q-15.70342 29.17647 -16.08235 31.88082 Q-16.46129 34.58517 -14.35252 35.11033 Q-14.27747 35.12902 -12.96408 35.05104 Q-11.6507 34.97307 -11.6507 30.15421 z" />
<glyph unicode="l" horiz-adv-x="17" d="M-10.17805 29.18641 Q-10.17805 22.52722 -10.28418 22.49142 Q-10.3903 22.45563 -10.3903 21.75777 Q-10.3903 21.74858 -10.25203 19.03021 Q-10.11376 16.31185 -10.54752 11.72702 Q-10.70256 10.08827 -10.61389 9.76914 Q-10.52522 9.45 -10.85411 3.1193 Q-10.98908 0.52128 -12.24928 0.46213 Q-13.50948 0.40299 -14.35236 0.60731 Q-15.1064 1.50926 -14.977 3.92499 Q-14.84761 6.34072 -14.84761 7.39991 Q-14.84761 7.5591 -14.78537 10.46316 Q-14.72313 13.36722 -14.70611 13.62585 Q-14.35161 19.01388 -14.45811 19.265 Q-14.56461 19.51612 -14.56461 21.12531 Q-14.56461 31.7845 -14.28623 33.13142 Q-14.00786 34.47834 -13.95929 34.52807 Q-13.60121 34.89474 -13.48635 34.9847 Q-13.3715 35.07466 -13.25965 35.10122 Q-11.69313 35.47327 -10.93559 34.78444 Q-10.17805 34.0956 -10.17805 29.18641 z" />
<glyph unicode="m" horiz-adv-x="24" d="M-14.87628 20.80577 Q-14.93131 19.96941 -14.56267 19.51556 Q-14.19402 19.06171 -13.72244 19.65067 Q-12.40707 21.29344 -12.48219 21.57534 Q-12.55731 21.85724 -9.87629 22.85402 Q-7.98836 23.55594 -6.88864 22.85591 Q-5.78891 22.15589 -5.58748 21.92773 Q-5.12143 21.39985 -4.84363 20.82522 Q-4.56582 20.25058 -3.92565 20.81562 Q-2.42315 22.14178 -2.29474 22.52998 Q-2.16633 22.91818 1.02354 22.91472 Q2.57049 22.91304 3.03058 22.78702 Q3.49066 22.66099 4.47056 21.65553 Q6.28799 19.79069 6.19667 18.8477 Q6.10535 17.90471 6.38638 15.33996 Q6.47714 14.51167 6.79904 12.125 Q7.12094 9.73833 7.42411 6.97164 Q7.60746 5.29841 7.84168 3.50416 Q8.07589 1.70992 6.76373 1.3628 Q4.90748 0.87175 4.59989 1.83519 Q4.29229 2.79863 3.79567 5.17589 Q3.6987 5.64007 3.4104 7.70628 Q3.1221 9.77249 2.91759 13.70368 Q2.91292 13.79345 2.69711 15.5595 Q2.4813 17.32555 1.21948 18.99579 Q0.75042 19.08468 0.2191 19.15054 Q-0.31222 19.2164 -3.46121 16.82383 Q-3.94279 16.45793 -4.08614 16.37135 Q-4.22949 16.28477 -4.20141 14.03799 Q-4.15523 10.34313 -3.9149 9.48561 Q-3.67456 8.6281 -3.59183 7.59322 Q-3.58892 7.55682 -3.43799 5.44511 Q-3.28705 3.3334 -3.28705 3.19521 Q-3.28705 2.29826 -3.51503 1.33861 Q-3.74301 0.37896 -5.37703 0.58501 Q-5.8549 0.64527 -6.49767 0.97495 Q-7.14045 1.30463 -7.14045 4.70158 Q-7.14045 6.84854 -7.31815 7.50624 Q-7.49585 8.16394 -7.82985 14.59346 Q-7.93827 16.68054 -8.06447 17.86575 Q-8.19066 19.05097 -8.90387 19.07213 Q-10.73172 17.91094 -11.06705 17.55021 Q-11.40239 17.18948 -13.3596 14.97684 Q-13.95858 14.29969 -14.29124 14.26995 Q-14.62389 14.24021 -14.76743 10.50813 Q-14.78248 10.11682 -14.99789 8.77621 Q-15.2133 7.4356 -14.83274 5.24697 Q-14.26278 1.96907 -16.18384 2.24335 Q-18.1049 2.51762 -18.29428 3.09544 Q-18.92232 5.01165 -18.86471 6.52715 Q-18.8071 8.04265 -18.76597 8.37171 Q-18.73724 8.60154 -18.32444 11.00179 Q-17.91164 13.40205 -18.57004 17.1886 Q-19.09717 20.2202 -18.63026 21.75041 Q-18.16334 23.28061 -18.01851 23.42892 Q-17.94594 23.50323 -16.28712 24.03895 Q-14.62831 24.57466 -14.87628 20.80577 z" />
<glyph unicode="n" horiz-adv-x="2" d="M-4.13217 20.46642 Q-3.76528 20.46604 -3.81526 20.6139 Q-3.86524 20.76177 -2.58511 21.89172 Q-2.01706 22.39313 -1.88038 23.28332 Q-1.74371 24.17352 2.0711 24.53043 Q3.85286 24.69713 5.13119 24.36504 Q6.40953 24.03296 7.34313 22.60241 Q8.46894 20.87734 8.69083 17.37509 Q8.91272 13.87285 8.91272 13.22078 Q8.91272 12.7687 8.87973 11.10843 Q8.84674 9.44815 9.22814 7.45276 Q10.02228 3.29797 9.50854 2.11796 Q8.9948 0.93795 8.25184 0.76986 Q7.05504 0.4991 6.40934 0.71796 Q5.76363 0.93682 5.33044 3.69428 Q5.31755 3.77633 5.31224 3.84177 Q5.30693 3.90721 4.8498 8.08062 Q4.84023 8.16799 4.7018 8.65956 Q4.56337 9.15113 4.65454 12.75205 Q4.69879 14.49986 4.9333 16.04132 Q5.16782 17.58278 4.26402 19.39131 Q3.40868 21.10288 1.59728 20.01931 Q-0.21412 18.93574 -0.40721 18.7653 Q-1.68748 17.63522 -2.33788 16.38141 Q-2.98829 15.1276 -3.32109 14.38247 Q-4.32638 12.13167 -4.24364 12.07854 Q-4.16089 12.0254 -4.71795 8.48105 Q-4.93268 7.1148 -4.59603 4.90412 Q-4.25938 2.69344 -4.96578 1.97012 Q-6.43825 0.46236 -7.48406 1.13259 Q-8.52987 1.80282 -8.61565 2.8751 Q-9.24888 10.79109 -9.02646 10.81519 Q-8.80403 10.83929 -8.79589 10.94104 Q-8.49353 14.72022 -8.44194 14.83479 Q-8.39035 14.94936 -8.39035 19.05143 Q-8.39035 23.00351 -8.5045 23.36748 Q-8.61866 23.73146 -7.87967 24.48816 Q-6.79148 25.60243 -5.65712 24.49933 Q-4.52276 23.39624 -4.13217 20.46642 z" />
<glyph unicode="o" horiz-adv-x="56" d="M30.68718 23.82436 Q30.72371 23.80047 31.45144 23.60859 Q32.17917 23.41671 33.56601 20.48198 Q33.62896 20.34877 33.96792 19.81815 Q34.30687 19.28752 34.78792 16.52075 Q34.89276 15.91776 35.23613 15.08536 Q35.57951 14.25295 34.80071 10.82705 Q34.62155 10.03893 34.45858 9.04524 Q34.29561 8.05155 33.20776 6.20335 Q33.03297 5.90639 32.77019 5.13436 Q32.5074 4.36234 30.32893 2.86685 Q29.55139 2.33308 28.74594 1.82069 Q27.94049 1.30831 25.67162 1.31063 Q25.24207 1.31107 23.76165 1.32383 Q22.28123 1.33659 20.09949 2.99883 Q19.66797 3.3276 18.55854 4.29799 Q17.4491 5.26838 16.65769 7.85157 Q16.51013 8.33321 16.25444 8.56443 Q15.99875 8.79565 15.99875 12.3752 Q15.99875 13.05475 15.82381 13.49011 Q15.64887 13.92547 16.6321 16.92311 Q16.67967 17.06814 16.75324 17.58991 Q16.82681 18.11168 18.32741 20.40796 Q19.08974 21.57451 20.25872 22.62946 Q21.42771 23.68441 22.84397 24.17782 Q22.84552 24.17836 23.72712 24.49066 Q24.60872 24.80296 25.32616 24.80223 Q27.46972 24.80005 27.97204 25.03589 Q28.47436 25.27173 30.68718 23.82436 zM22.92074 19.20696 Q20.7904 17.3265 20.64413 16.00862 Q20.49786 14.69074 20.43215 14.44344 Q19.62084 11.38993 20.16682 10.17974 Q20.7128 8.96954 20.71364 8.96698 Q21.49222 6.59149 21.79925 6.65781 Q22.10628 6.72414 23.11906 6.18805 Q25.23661 5.06719 26.99804 5.92304 Q28.75948 6.77889 29.6636 7.96625 Q31.14395 9.91035 31.0851 11.32565 Q31.02624 12.74094 31.02624 12.82049 Q31.02624 16.35004 30.85554 16.74996 Q30.68485 17.14989 30.1498 18.16321 Q29.35824 19.66233 27.29844 20.45765 Q25.23864 21.25297 22.92074 19.20696 z" />
<glyph unicode="p" horiz-adv-x="26" d="M-7.80422 21.16248 Q-7.42726 21.35057 -4.49859 22.47826 Q-1.56993 23.60595 -0.09041 23.15096 Q-0.05812 23.14103 1.41996 22.94137 Q2.89805 22.74171 4.49662 19.71415 Q4.74114 19.25105 5.12297 19.12523 Q5.50479 18.99941 6.05588 14.58924 Q6.07444 14.44071 6.13164 13.91809 Q6.18884 13.39546 6.15488 10.6786 Q6.13532 9.11371 5.96123 7.64466 Q5.78715 6.17561 3.57261 3.908 Q2.26741 2.57152 2.25678 2.30414 Q2.24616 2.03676 -0.63492 1.43737 Q-0.6752 1.42899 -1.44919 1.23419 Q-2.22318 1.0394 -5.4942 1.41768 Q-5.49567 1.41785 -6.53856 1.75426 Q-7.58146 2.09067 -7.58146 0.2236 Q-7.58146 -5.24346 -7.5423 -7.5716 Q-7.50314 -9.89973 -9.51198 -9.87246 Q-9.67698 -9.87022 -10.70823 -9.84445 Q-11.73949 -9.81868 -11.73949 -6.75161 Q-11.73949 -6.18455 -11.70236 -6.13401 Q-11.66524 -6.08347 -11.66524 -2.81641 Q-11.66524 3.55065 -11.66524 4.12962 Q-11.66524 4.7086 -11.66524 7.87567 Q-11.66524 14.74273 -11.80102 14.75832 Q-11.9368 14.7739 -12.11075 18.1227 Q-12.37578 23.22486 -11.62115 23.8072 Q-10.86651 24.38953 -10.69999 24.43253 Q-8.29932 25.05242 -8.42957 23.28415 Q-8.55981 21.51588 -7.80422 21.16248 zM-2.84593 18.9463 Q-4.2427 18.6106 -4.63954 18.40127 Q-5.03638 18.19193 -5.6922 17.78601 Q-7.53633 16.64457 -7.5589 14.0219 Q-7.58146 11.39923 -7.58146 9.28217 Q-7.58146 8.5151 -7.51019 7.35793 Q-7.43892 6.20076 -5.8407 5.67508 Q-5.37098 5.52058 -2.86675 5.51354 Q-0.36252 5.5065 1.05635 7.4664 Q2.85779 9.95475 2.449 11.92737 Q2.04022 13.89999 1.99685 14.24697 Q1.62569 17.21668 1.08705 17.66808 Q0.54841 18.11949 0.53659 18.13427 Q-0.81723 19.82795 -1.76803 19.4024 Q-2.71883 18.97685 -2.84593 18.9463 z" />
<glyph unicode="q" horiz-adv-x="25" d="M1.66315 23.84848 Q2.82301 24.15537 3.42948 23.96315 Q4.03595 23.77094 4.29667 22.40683 Q4.29792 22.40029 4.28372 22.38736 Q4.26952 22.37444 4.26952 16.84117 Q4.26952 10.50791 4.00806 10.49442 Q3.74659 10.48094 3.69937 8.61541 Q3.65689 6.93716 3.52078 6.15735 Q3.38467 5.37754 3.01158 1.97349 Q2.97169 1.60954 2.90368 1.38537 Q2.83568 1.1612 2.54099 -1.95368 Q2.27556 -4.75931 2.23173 -7.00636 Q2.1879 -9.25341 1.48215 -9.69025 Q0.34867 -10.39184 -1.07078 -9.88359 Q-2.49023 -9.37533 -1.80296 -5.42436 Q-1.77581 -5.26828 -1.82195 -5.23962 Q-1.86809 -5.21096 -1.39572 -1.43378 Q-1.38776 -1.37013 -1.22353 -0.0069 Q-1.05931 1.35633 -2.5903 1.06522 Q-4.65983 0.67171 -6.77487 1.23499 Q-8.8899 1.79828 -9.79402 2.30343 Q-12.87981 4.02753 -13.60025 7.12025 Q-14.32069 10.21297 -14.30087 10.99598 Q-14.27357 12.07442 -14.23197 12.68554 Q-14.19037 13.29665 -13.42303 15.98156 Q-12.98385 17.51824 -12.6885 18.14558 Q-12.39315 18.77292 -10.61756 20.50362 Q-10.56061 20.55913 -9.68718 21.6176 Q-8.81374 22.67606 -6.16501 23.3769 Q-2.44331 24.36164 -1.13279 23.90855 Q0.17773 23.45545 1.66315 23.84848 zM-2.96781 20.42076 Q-5.12066 20.06417 -5.96167 19.29158 Q-6.80269 18.51899 -6.82566 18.49969 Q-9.79641 16.00462 -9.88936 13.70872 Q-9.98231 11.41281 -9.98407 11.39877 Q-10.33554 8.5874 -9.73064 7.82551 Q-9.12575 7.06362 -8.84378 6.67355 Q-7.508 4.82566 -6.32632 4.75673 Q-5.14464 4.68781 -4.97948 4.66954 Q-2.07275 4.348 -1.32464 5.91805 Q-0.57654 7.4881 -0.37308 8.7825 Q-0.33378 9.03253 -0.02764 9.77988 Q0.27851 10.52723 0.27851 20.3476 Q-2.79175 20.54265 -2.85929 20.4851 Q-2.92684 20.42754 -2.96781 20.42076 z" />
<glyph unicode="r" horiz-adv-x="27" d="M3.93353 23.06678 Q3.93481 23.06437 4.3419 22.29451 Q4.74899 21.52465 4.74899 19.44092 Q4.74899 18.10216 4.17652 16.35285 Q3.60406 14.60353 1.35696 15.62067 Q0.89629 16.19698 0.72821 18.16217 Q0.56014 20.12735 0.49353 20.49375 Q0.3174 20.60087 -0.83305 20.46384 Q-1.9835 20.32681 -3.50839 19.56593 Q-4.09303 19.27421 -5.00986 18.99257 Q-5.92668 18.71092 -7.42122 15.71195 Q-7.42273 15.70892 -7.68922 15.37711 Q-7.95572 15.04529 -7.95572 11.80652 Q-7.95572 4.96776 -7.53517 3.23865 Q-7.11462 1.50954 -9.3605 1.00143 Q-11.47304 0.52349 -11.65709 2.62475 Q-11.84114 4.72602 -11.84114 4.96479 Q-11.84114 8.85355 -11.96132 13.22534 Q-12.0815 17.59713 -11.7315 20.39671 Q-11.64165 21.11541 -11.64826 22.71541 Q-11.65487 24.31541 -10.03205 24.24612 Q-9.65894 24.23019 -8.99179 24.05756 Q-8.32464 23.88492 -7.92146 21.95518 Q-7.9077 21.88932 -7.72052 21.50985 Q-7.53334 21.13038 -6.31795 22.00835 Q-4.98097 22.97415 -4.96075 23.23577 Q-4.94053 23.49738 -1.85006 24.19657 Q-1.59069 24.25525 -1.2291 24.35619 Q-0.86751 24.45713 0.00014 24.5647 Q0.37159 24.61075 1.62694 24.83423 Q2.8823 25.0577 3.93353 23.06678 z" />
<glyph unicode="s" horiz-adv-x="20" d="M-1.84914 22.47463 Q-1.66079 20.96762 -1.326 19.99964 Q-0.99121 19.03166 -1.75752 18.24703 Q-2.69634 17.28576 -3.72344 17.52967 Q-4.75054 17.77357 -5.3306 20.05704 Q-5.39672 20.0505 -5.67132 20.13717 Q-5.94591 20.22383 -7.47053 19.72558 Q-8.28322 19.45999 -9.81994 18.95493 Q-11.35665 18.44987 -11.9467 17.84568 Q-12.25668 17.52827 -12.85123 16.68547 Q-13.44578 15.84267 -12.15611 15.59473 Q-9.58982 15.10136 -8.36422 14.89518 Q-7.13862 14.689 -5.03612 13.16578 Q-4.59481 12.84606 -3.74829 12.61135 Q-2.90176 12.37665 -2.30723 9.53087 Q-2.2332 9.17652 -2.00044 7.90272 Q-1.76768 6.62893 -2.37921 5.0875 Q-2.6381 4.43494 -2.58449 4.05643 Q-2.53088 3.67792 -4.93141 2.34171 Q-5.14755 2.2214 -5.1472 2.08958 Q-5.14686 1.95777 -9.09347 1.2075 Q-11.61161 0.72879 -12.11687 1.0065 Q-12.62214 1.2842 -12.98721 1.33601 Q-15.33105 1.66864 -17.10236 2.83633 Q-18.87367 4.00402 -18.49735 5.32073 Q-18.35798 5.80837 -17.78708 6.65645 Q-17.21619 7.50453 -14.79993 6.0039 Q-14.33585 5.71568 -14.32761 5.44071 Q-14.31936 5.16574 -10.33685 5.16147 Q-6.75433 5.15763 -6.26999 6.37509 Q-5.78564 7.59255 -5.90649 7.93797 Q-6.20503 8.79128 -6.82997 9.55256 Q-7.45491 10.31383 -10.21905 11.05104 Q-10.46869 11.11762 -10.52322 11.12867 Q-10.57775 11.13972 -12.77125 11.68201 Q-15.11037 12.2603 -15.93563 13.35194 Q-16.76088 14.44358 -16.89404 14.98466 Q-16.96801 15.28523 -17.43054 15.78268 Q-17.89307 16.28013 -16.21346 19.28995 Q-15.97109 19.72427 -15.67753 20.21197 Q-15.38398 20.69967 -13.41912 21.79335 Q-12.32922 22.40001 -10.88456 22.77295 Q-9.43989 23.14589 -8.6681 23.39811 Q-4.95629 24.61112 -3.56895 24.87297 Q-2.18162 25.13482 -1.84914 22.47463 z" />
<glyph unicode="t" horiz-adv-x="25" d="M-2.39517 29.03911 Q-2.27723 27.24623 -2.34334 26.2084 Q-2.40945 25.17057 -1.33166 25.33887 Q1.42148 25.76877 3.28544 25.40699 Q5.1494 25.04522 5.23439 23.62148 Q5.3434 21.79541 4.29473 21.35302 Q3.24605 20.91063 1.69705 21.05869 Q0.40969 21.18174 -0.98631 21.06923 Q-2.38232 20.95671 -2.1948 18.97406 Q-2.14365 18.43325 -2.06133 16.14481 Q-1.97901 13.85637 -1.97901 10.45032 Q-1.97901 6.94426 -1.93706 5.24062 Q-1.89511 3.53698 -1.97901 3.09819 Q-2.52993 0.21703 -4.42116 0.80429 Q-6.31238 1.39155 -6.33326 2.21626 Q-6.37887 4.01794 -6.26673 5.2296 Q-6.15459 6.44126 -6.31784 9.58378 Q-6.40077 11.18018 -6.4094 12.04933 Q-6.41803 12.91847 -6.41803 16.97453 Q-6.41803 17.28059 -6.35281 18.91402 Q-6.28759 20.54745 -7.6665 20.72119 Q-9.5415 20.95743 -11.28916 21.04148 Q-13.03683 21.12553 -13.46189 22.4224 Q-14.13891 24.488 -12.79917 25.06707 Q-11.45943 25.64614 -10.85705 25.57953 Q-8.82791 25.35515 -7.74131 25.27951 Q-6.65471 25.20386 -6.83419 27.10145 Q-7.149 30.42982 -7.04995 31.27145 Q-6.95089 32.11307 -6.35638 32.58809 Q-4.66812 33.93702 -3.62046 32.83817 Q-2.57281 31.73933 -2.39517 29.03911 z" />
<glyph unicode="u" horiz-adv-x="27" d="M-8.1341 23.20782 Q-7.89081 21.80867 -8.2423 20.91364 Q-8.59379 20.01862 -8.59379 16.07969 Q-8.59379 15.89075 -8.58494 15.83328 Q-8.5761 15.77581 -8.5389 12.80006 Q-8.53156 12.21287 -8.51279 11.4857 Q-8.49403 10.75853 -8.06549 7.71556 Q-7.95072 6.9006 -7.87488 6.48531 Q-7.79904 6.07001 -5.89054 5.44233 Q-5.07345 5.1736 -4.9257 5.24633 Q-4.77794 5.31905 -1.9729 5.62357 Q-1.25119 5.70192 -0.10605 5.83945 Q1.03909 5.97699 1.03909 8.16593 Q1.03909 16.75486 1.02074 18.23837 Q1.00238 19.72188 1.05282 20.25504 Q1.1543 21.32774 1.51357 23.0622 Q1.87285 24.79666 3.24148 24.73305 Q5.30259 24.63726 5.39382 23.11147 Q5.48504 21.58567 5.48504 19.64674 Q5.48504 18.1078 5.36154 17.15516 Q5.23804 16.20252 5.23804 12.11358 Q5.23804 5.42465 5.33998 3.36494 Q5.44192 1.30522 4.59311 0.77983 Q4.0822 0.46359 3.25808 0.24088 Q2.43396 0.01818 1.10084 2.11444 Q0.62465 2.18585 0.41497 2.02376 Q0.20529 1.86166 -2.19245 1.2739 Q-3.1295 1.0442 -5.54494 0.78701 Q-7.96039 0.52982 -10.21299 2.72979 Q-11.60683 4.09106 -11.75824 4.40051 Q-11.90966 4.70995 -12.07233 6.42979 Q-12.2915 8.74695 -12.54211 9.80915 Q-12.79273 10.87135 -12.79273 14.602 Q-12.79273 19.84094 -12.39758 22.01029 Q-12.00243 24.17964 -11.52344 24.44628 Q-11.2595 24.59321 -11.10565 24.67459 Q-10.95179 24.75596 -10.80794 24.77978 Q-10.75141 24.78914 -9.62332 25.03692 Q-8.49523 25.2847 -8.1341 23.20782 z" />
<glyph unicode="v" horiz-adv-x="27" d="M-6.71989 22.4585 Q-6.49389 21.72078 -6.22592 20.79873 Q-5.95795 19.87667 -5.11567 17.98909 Q-4.94657 17.61013 -4.93941 17.58088 Q-4.93226 17.55163 -4.14864 15.31194 Q-3.25064 12.74533 -2.96614 11.91336 Q-2.68164 11.08139 -1.71982 8.69776 Q-1.41832 8.61132 -0.68408 10.04497 Q0.05015 11.47862 0.94138 13.72519 Q3.82386 20.99122 4.20508 22.62293 Q4.5863 24.25464 5.67908 24.77015 Q7.31966 25.54408 8.28485 24.68113 Q9.25004 23.81819 9.02995 22.76532 Q9.02417 22.73767 8.96954 22.2734 Q8.91491 21.80913 7.43322 18.29157 Q5.52492 13.76122 4.68344 11.79596 Q3.84196 9.83069 3.81249 9.77178 Q1.97233 6.09328 1.11728 3.64857 Q0.26223 1.20385 0.25172 1.19197 Q-0.44889 0.39986 -1.71847 0.52736 Q-2.98805 0.65487 -4.27608 3.7152 Q-4.612 4.51334 -6.40314 9.17872 Q-8.19428 13.8441 -8.64645 15.13646 Q-9.62702 17.93904 -10.39209 19.64646 Q-11.15716 21.35387 -11.35264 22.14821 Q-11.82471 24.06646 -11.1827 24.52827 Q-10.54069 24.99007 -9.85444 25.13885 Q-9.84134 25.14169 -8.73762 25.29183 Q-7.63391 25.44197 -6.71989 22.4585 z" />
<glyph unicode="w" horiz-adv-x="31" d="M-6.54761 20.10112 Q-6.47954 18.79067 -6.52158 18.71894 Q-6.56363 18.64721 -6.06796 15.12743 Q-5.79592 13.19564 -5.82424 12.82415 Q-5.85255 12.45267 -5.63039 11.47493 Q-5.47697 10.79972 -5.27168 9.01779 Q-5.06638 7.23585 -4.37657 8.87345 Q-3.70496 10.46783 -3.09833 12.54411 Q-2.4917 14.62038 -1.68381 17.08363 Q-1.25218 18.39966 -1.10515 18.76645 Q-0.95813 19.13325 -0.39633 21.24769 Q0.69226 25.34481 2.44579 24.45045 Q4.19931 23.55609 4.28234 23.34664 Q4.33073 23.22457 4.446 23.23742 Q4.56127 23.25027 5.37628 18.98661 Q5.40363 18.84353 5.45125 18.42252 Q5.49887 18.00152 7.15182 8.49144 Q7.15993 8.44478 7.61094 7.63864 Q8.06196 6.8325 8.30466 7.99379 Q8.60006 9.40722 9.13565 11.34406 Q9.67125 13.28089 9.69311 13.41998 Q9.73178 13.666 9.91255 14.44596 Q10.09331 15.22592 10.94693 18.98094 Q11.24449 20.28989 11.69745 22.4609 Q12.15041 24.63192 13.43774 24.66686 Q14.23686 24.68855 15.18037 24.51494 Q16.12388 24.34132 15.70976 21.02931 Q15.66601 20.67941 15.63679 20.01698 Q15.60757 19.35454 14.36337 15.56101 Q13.86941 14.05494 13.3927 12.19605 Q12.91598 10.33716 11.92306 7.09813 Q11.59 6.01165 10.57188 3.61445 Q9.55375 1.21726 8.58235 0.89976 Q7.02825 0.39181 6.37149 0.93147 Q5.71474 1.47113 4.76199 3.37763 Q4.32522 4.25163 4.07495 4.96949 Q3.82469 5.68735 3.15475 9.95129 Q2.7979 12.22252 2.6926 12.44456 Q2.5873 12.6666 2.40583 15.26185 Q2.28527 15.24992 1.91878 15.07108 Q1.55229 14.89223 1.01737 13.62236 Q0.57868 12.58093 -0.3083 10.17475 Q-1.19527 7.76857 -1.2294 7.69216 Q-2.24034 5.42869 -2.21696 4.62445 Q-2.19357 3.82021 -3.72021 2.00624 Q-3.76585 1.95201 -4.56132 0.50233 Q-5.35678 -0.94735 -7.02726 1.74875 Q-7.25048 2.10902 -7.79566 3.03645 Q-8.34085 3.96387 -8.82804 6.76585 Q-8.86185 6.9603 -9.01606 7.67683 Q-9.17027 8.39336 -10.29223 14.84563 Q-10.36887 15.28638 -10.38819 15.33991 Q-10.40752 15.39344 -11.05799 19.5335 Q-11.6787 23.48413 -11.00731 24.0417 Q-10.33592 24.59928 -9.83062 24.70861 Q-7.60482 25.19021 -7.07991 22.71677 Q-6.555 20.24334 -6.54761 20.10112 z" />
<glyph unicode="x" horiz-adv-x="34" d="M13.19258 19.93186 Q12.19714 19.09581 11.81283 18.75046 Q11.42853 18.40511 9.1012 16.13695 Q8.27792 15.3346 7.0786 14.48015 Q5.87929 13.62571 7.09726 11.85282 Q7.32454 11.52199 7.36461 11.44519 Q7.40468 11.36839 9.53956 8.65651 Q9.53993 8.65604 9.73856 8.41866 Q9.93718 8.18127 11.99578 5.47411 Q12.02641 5.43383 13.35474 4.03891 Q14.68307 2.64399 12.6568 1.18026 Q11.64283 0.44779 10.90049 0.83053 Q10.15815 1.21327 8.69067 3.04914 Q4.72567 8.00949 4.38104 8.5581 Q4.03642 9.10671 3.77128 9.407 Q3.07641 10.19401 2.60807 9.66479 Q2.13972 9.13557 0.77928 7.80972 Q0.27827 7.32145 -0.00634 6.98192 Q-0.29095 6.6424 -2.63716 4.46639 Q-2.71022 4.39863 -4.13433 2.91601 Q-5.55845 1.43338 -6.63808 1.88907 Q-7.65853 2.31978 -8.06223 3.26345 Q-8.46593 4.20711 -6.79812 6.00149 Q-6.18564 6.66045 -5.81645 6.90987 Q-5.44725 7.15929 -2.23359 10.44997 Q-0.94131 11.77322 -0.55775 12.19416 Q-0.17419 12.6151 -0.02786 12.75083 Q0.74171 13.46463 0.04915 14.42036 Q-0.64341 15.37608 -0.7028 15.45824 Q-0.73265 15.49953 -1.29346 16.28523 Q-1.85428 17.07092 -4.13316 19.92194 Q-4.50797 20.39085 -5.62848 21.25827 Q-6.749 22.1257 -5.58741 23.57646 Q-5.05602 24.24014 -4.30588 24.60385 Q-3.55575 24.96755 -2.01789 23.53798 Q-1.32227 22.89134 -1.25117 22.90877 Q-1.18006 22.92621 0.5775 20.4946 Q0.72451 20.29121 0.84468 20.14162 Q0.96485 19.99202 2.95718 17.23573 Q3.0749 17.07287 3.42608 16.66405 Q3.77725 16.25523 4.87066 17.4912 Q4.90364 17.52848 4.90874 17.55512 Q4.91385 17.58176 6.63802 19.10366 Q7.98734 20.29468 8.8572 21.08339 Q9.72707 21.87209 11.09123 23.66359 Q11.48531 24.18112 11.69224 24.39856 Q11.89916 24.616 12.29498 24.71302 Q14.59336 25.2764 14.58201 23.18284 Q14.57067 21.08928 13.19258 19.93186 z" />
<glyph unicode="y" horiz-adv-x="20" d="M-15.20877 14.7202 Q-14.91452 14.24527 -14.35831 13.41871 Q-13.8021 12.59216 -12.18772 9.36153 Q-11.3109 7.60688 -10.65603 6.11388 Q-10.00115 4.62088 -9.31439 6.35192 Q-8.99534 7.15611 -8.64612 8.02525 Q-8.29689 8.89438 -5.98311 13.7862 Q-5.05857 15.74087 -4.09391 16.49878 Q-3.12924 17.25669 -2.2825 16.19728 Q-1.90385 15.72353 -1.75531 15.33366 Q-1.60677 14.9438 -2.65921 12.7187 Q-3.6265 10.67363 -4.46355 8.81188 Q-5.30059 6.95013 -7.59335 2.10272 Q-8.53926 0.10285 -9.07464 -0.96114 Q-9.61003 -2.02512 -10.54054 -4.5195 Q-11.40253 -6.83019 -11.99382 -8.85786 Q-12.58511 -10.88553 -14.16728 -10.43183 Q-14.23556 -10.41225 -15.06711 -10.06139 Q-15.89866 -9.71053 -14.50706 -5.46775 Q-13.7689 -3.21721 -13.60987 -3.016 Q-13.45084 -2.81479 -13.11841 -2.0716 Q-13.11302 -2.05955 -12.38121 -0.62273 Q-11.64939 0.81409 -12.89681 2.93615 Q-14.04175 4.88388 -15.20232 7.36674 Q-16.36288 9.8496 -17.83834 12.35959 Q-19.81944 15.72976 -18.85447 16.18682 Q-17.88951 16.64389 -17.70539 16.6805 Q-17.52421 16.71653 -16.97444 16.69965 Q-16.42468 16.68276 -15.20877 14.7202 z" />
<glyph unicode="z" horiz-adv-x="24" d="M-9.63046 25.02697 Q-6.90056 24.72503 -6.86474 24.79077 Q-6.82892 24.85652 -3.47696 24.85312 Q-1.36534 24.85098 0.87158 25.23943 Q3.10849 25.62787 4.3526 24.34237 Q4.35598 24.32715 4.49702 23.2046 Q4.63805 22.08205 3.24321 20.42473 Q-0.59755 15.86122 -1.01033 14.98664 Q-1.42311 14.11206 -1.69715 13.73351 Q-5.95776 7.84816 -6.5856 6.9427 Q-7.21344 6.03725 -5.77554 6.03579 Q-2.41392 6.03238 0.20604 5.66288 Q2.826 5.29338 3.29908 4.75758 Q3.93749 4.03452 3.77293 2.36853 Q3.60838 0.70255 0.45777 1.20084 Q-0.32392 1.32447 -2.80259 1.49786 Q-5.28125 1.67124 -7.9145 1.42482 Q-10.30237 1.20136 -12.59571 0.79957 Q-14.88906 0.39777 -15.28913 1.70366 Q-15.81036 3.40503 -14.61232 4.44285 Q-13.41427 5.48067 -13.20604 5.71609 Q-12.60019 6.40104 -12.14866 6.76741 Q-11.69713 7.13379 -10.12529 9.097 Q-9.30346 10.12346 -7.42597 12.60696 Q-5.54849 15.09047 -5.12906 15.73229 Q-4.32671 16.96008 -2.96132 18.71481 Q-1.59594 20.46953 -3.69245 20.47166 Q-12.05406 20.48014 -13.07804 20.94506 Q-14.10202 21.40998 -14.22763 21.58375 Q-15.02777 22.69063 -14.65225 23.72836 Q-14.27673 24.76609 -13.55721 25.03095 Q-13.44572 25.07199 -13.27322 25.24138 Q-13.10071 25.41078 -9.63046 25.02697 z" />
<glyph unicode="" horiz-adv-x="56" d="M20.31607 14.1181 Q20.40674 14.11795 20.69179 14.11756 Q20.97683 14.11717 24.81749 14.11082 Q24.90816 14.11067 25.19321 14.11028 Q25.47825 14.10989 29.31891 14.10354 Q29.40958 14.10339 29.69462 14.103 Q29.97966 14.10261 33.82033 14.09626 Q33.911 14.09611 34.19604 14.09568 Q34.48108 14.09526 38.32175 14.08898 Q38.46242 14.08875 39.34111 13.99721 Q40.21981 13.90567 39.88474 12.39842 Q39.69163 12.19939 39.53309 12.04932 Q39.37454 11.89925 37.13387 11.90271 Q37.0432 11.90285 36.75816 11.90324 Q36.47312 11.90364 32.63245 11.90999 Q32.54178 11.91014 32.25674 11.91053 Q31.9717 11.91092 28.13104 11.91727 Q28.04037 11.91742 27.75532 11.91781 Q27.47028 11.9182 23.62962 11.92455 Q23.53895 11.9247 23.2539 11.92515 Q22.96886 11.92561 19.1282 11.93183 Q17.38753 11.93465 16.19706 12.09317 Q15.0066 12.25169 15.43954 13.68835 Q15.8433 14.01071 15.86012 14.0136 Q15.87694 14.0165 15.96649 14.03582 Q16.75345 14.20563 16.96443 14.16441 Q17.17541 14.12318 20.31607 14.1181 z" />
<glyph unicode="" horiz-adv-x="56" d="M19.88881 17.19294 Q21.04905 17.19109 21.53459 17.1903 Q22.02013 17.18952 25.18036 17.18448 Q26.3406 17.18263 26.82613 17.18185 Q27.31167 17.18107 30.47191 17.17602 Q33.43215 17.17129 34.91628 17.17759 Q36.4004 17.18389 36.4004 16.03964 Q36.4004 12.4294 36.03078 12.15804 Q35.66116 11.88667 35.26806 11.88225 Q35.25917 11.88215 35.11664 11.87972 Q34.97411 11.87728 30.86388 11.88385 Q27.25364 11.88962 26.87714 11.89023 Q26.50064 11.89083 24.6904 11.89372 Q23.53017 11.89557 23.04463 11.89635 Q22.55909 11.89713 19.39886 11.90218 Q17.03862 11.90595 16.3324 11.9364 Q15.62618 11.96684 15.62618 13.42708 Q15.62618 14.23732 15.63167 15.603 Q15.63716 16.96868 16.35567 17.10604 Q17.14881 17.25767 17.16369 17.22747 Q17.17858 17.19728 19.88881 17.19294 zM19.88881 17.19294 Q21.04905 17.19109 21.53459 17.1903 Q22.02013 17.18952 25.18036 17.18448 Q26.3406 17.18263 26.82613 17.18185 Q27.31167 17.18107 30.47191 17.17602 Q33.43215 17.17129 34.91628 17.17759 Q36.4004 17.18389 36.4004 16.03964 Q36.4004 12.4294 36.03078 12.15804 Q35.66116 11.88667 35.26806 11.88225 Q35.25917 11.88215 35.11664 11.87972 Q34.97411 11.87728 30.86388 11.88385 Q27.25364 11.88962 26.87714 11.89023 Q26.50064 11.89083 24.6904 11.89372 Q23.53017 11.89557 23.04463 11.89635 Q22.55909 11.89713 19.39886 11.90218 Q17.03862 11.90595 16.3324 11.9364 Q15.62618 11.96684 15.62618 13.42708 Q15.62618 14.23732 15.63167 15.603 Q15.63716 16.96868 16.35567 17.10604 Q17.14881 17.25767 17.16369 17.22747 Q17.17858 17.19728 19.88881 17.19294 z" />
<glyph unicode="" horiz-adv-x="56" d="" />
<glyph unicode="" horiz-adv-x="56" d="M22.39664 21.34161 Q23.94204 21.33917 24.39799 21.33845 Q24.85394 21.33773 25.44934 21.33679 Q26.99474 21.33434 27.45069 21.33362 Q27.90664 21.3329 28.50204 21.33196 Q30.04743 21.32952 30.50339 21.3288 Q30.95934 21.32808 31.55474 21.32714 Q33.10013 21.3247 33.55609 21.32398 Q34.01204 21.32326 34.60743 21.32232 Q36.15283 21.31988 36.60879 21.31921 Q37.06474 21.31855 37.66013 21.3175 Q37.70553 21.31742 38.00082 21.31288 Q38.29611 21.30834 38.29611 19.66295 Q38.29611 18.06755 38.31661 17.63775 Q38.33712 17.20796 38.25371 16.82231 Q38.11592 16.82253 38.07137 16.8226 Q38.02681 16.82267 35.03142 16.8274 Q33.48603 16.82984 33.03007 16.83056 Q32.57412 16.83128 31.97872 16.83222 Q30.43333 16.83466 29.97737 16.83538 Q29.52142 16.8361 28.92602 16.83704 Q27.38063 16.83948 26.92467 16.8402 Q26.46872 16.84093 25.87333 16.84187 Q24.32793 16.84431 23.87197 16.84503 Q23.41602 16.84575 22.82063 16.84669 Q21.27523 16.84913 20.81928 16.84985 Q20.36333 16.85057 19.76793 16.85151 Q18.22253 16.85395 17.76658 16.85467 Q17.31063 16.85539 16.71523 16.85633 Q16.06984 16.85735 15.52337 16.89928 Q14.97689 16.94121 14.97689 18.93661 Q14.97689 18.98201 14.97689 19.02907 Q14.97689 19.07613 14.97689 21.35333 Q16.41929 21.35105 17.61027 21.34917 Q18.80125 21.34729 22.39664 21.34161 z" />
<glyph unicode="" horiz-adv-x="56" d="M30.01796 26.66275 Q45.96937 26.63909 47.46171 26.63688 Q48.95405 26.63467 49.35548 26.63407 Q49.65691 26.63362 50.98337 26.74235 Q52.30982 26.85108 52.30982 24.74965 Q52.30982 19.44821 52.53099 18.29376 Q52.75217 17.13932 50.25074 17.14303 Q34.29932 17.16669 32.80698 17.1689 Q31.31464 17.17111 30.91321 17.17171 Q14.9618 17.19537 13.46946 17.19758 Q11.97712 17.19979 11.57569 17.20039 Q9.92426 17.20284 6.49751 17.11412 Q3.07076 17.0254 3.07076 18.37684 Q3.07076 24.17827 3.07076 24.6562 Q3.07076 25.13414 3.07076 26.70272 Q27.66026 26.66624 28.58839 26.66486 Q29.51652 26.66349 30.01796 26.66275 z" />
<glyph unicode="" horiz-adv-x="56" d="M41.24224 39.45444 Q41.35539 39.02854 41.19971 38.46579 Q41.04402 37.90304 40.83688 34.75426 Q40.67249 32.25535 40.45672 31.37363 Q40.24095 30.4919 39.99331 30.27289 Q38.77336 29.19396 37.77014 29.85784 Q36.76692 30.52173 36.76692 31.72229 Q36.76692 35.08322 36.68958 35.74138 Q36.61224 36.39955 36.56972 36.84933 Q36.56014 36.95066 36.42501 38.87913 Q36.28988 40.80761 37.93368 41.50086 Q40.26919 42.48583 40.74419 41.01349 Q41.2192 39.54114 41.24224 39.45444 z" />
<glyph unicode="" horiz-adv-x="56" d="M12.25536 43.5595 Q12.29002 43.28213 11.57646 43.01559 Q10.86291 42.74905 8.62227 40.67209 Q7.51862 39.64906 7.41446 39.66054 Q7.3103 39.67202 6.01465 37.35087 Q5.05985 35.64035 4.86703 35.27482 Q4.67422 34.90929 4.67422 32.69448 Q6.3491 33.47794 7.56966 33.32016 Q8.79023 33.16238 9.45729 32.78929 Q11.99625 31.36923 12.03211 28.50404 Q12.06797 25.63885 12.02096 25.53363 Q10.89426 23.01163 10.12721 22.83846 Q9.36015 22.66528 9.06908 22.55722 Q6.80485 21.71659 4.97976 22.42869 Q3.15467 23.1408 2.68188 23.51977 Q2.63849 23.55455 1.83057 24.21469 Q1.02265 24.87483 0.30133 27.07613 Q0.20243 27.37795 0.06963 30.11823 Q-0.06318 32.8585 0.14751 33.86644 Q0.50052 35.55524 0.97715 37.00123 Q1.45378 38.44722 3.58283 41.10508 Q4.96165 42.82637 4.90978 43.03039 Q4.85792 43.23442 7.88247 45.10477 Q8.99465 45.79253 9.54396 46.08009 Q10.09327 46.36766 10.14582 46.3976 Q10.46416 46.57899 10.61624 46.30964 Q10.76832 46.0403 12.25536 43.5595 zM28.04755 42.70627 Q28.04105 42.70225 27.10183 42.24245 Q26.16261 41.78266 24.19473 39.44566 Q23.7083 38.86799 21.65138 35.52686 Q19.59446 32.18572 22.07787 32.99596 Q22.56984 33.15647 24.86915 33.31819 Q27.16847 33.47992 28.51634 30.4585 Q30.21211 26.65723 27.61739 24.46743 Q25.02266 22.27763 24.90523 22.25328 Q24.39087 22.14663 23.37149 21.8135 Q22.35211 21.48038 20.08553 22.96425 Q18.3225 24.11846 17.69323 25.36312 Q17.06396 26.60778 16.95053 26.95399 Q16.92948 27.01824 16.48356 28.03949 Q16.03764 29.06074 16.48907 32.26519 Q16.75848 34.17758 16.68629 34.29874 Q16.61411 34.41991 17.74161 36.94369 Q19.48016 40.83523 19.96421 41.08994 Q20.44826 41.34466 20.45177 41.34882 Q20.84158 41.81175 21.37491 42.48467 Q21.90824 43.1576 24.14345 44.77085 Q24.3106 44.89149 24.65338 45.22771 Q24.99617 45.56393 27.28578 46.56766 Q27.36385 45.94298 28.3474 44.72144 Q29.33095 43.4999 28.04755 42.70627 z" />
<glyph unicode="" horiz-adv-x="56" d="M36.9324 45.34009 Q37.63546 45.0067 38.58383 44.50568 Q39.5322 44.00467 39.97065 40.89115 Q40.16476 39.51274 40.10496 39.04772 Q40.04516 38.58271 39.50876 37.30957 Q38.97322 36.03847 39.11383 35.81146 Q39.25444 35.58444 37.16848 33.8334 Q36.99714 33.68957 36.5743 33.05149 Q36.15147 32.41341 34.07378 31.94418 Q34.03787 31.93607 33.55333 31.83796 Q33.0688 31.73986 33.00629 32.32039 Q33.00647 32.32161 33.00349 32.5034 Q33.00051 32.68519 34.32013 33.54505 Q36.01677 34.65057 36.21437 34.85631 Q36.41196 35.06205 36.87082 35.97909 Q37.26344 36.76375 37.48307 38.59543 Q37.7027 40.4271 35.71095 39.81966 Q33.28796 39.0807 32.41475 40.9617 Q31.54154 42.8427 31.908 43.53582 Q32.31785 44.311 32.29173 44.67223 Q32.26562 45.03346 34.08404 45.51364 Q34.11782 45.52256 35.46695 45.4589 Q36.81609 45.39524 36.9324 45.34009 zM47.94938 42.66959 Q48.36717 41.78521 48.58638 40.75988 Q48.8056 39.73455 48.28298 37.76787 Q48.15844 37.29921 47.55748 36.09155 Q46.95652 34.88389 45.72202 33.68129 Q45.41871 33.38582 44.15368 32.52778 Q42.88864 31.66975 41.60088 31.61909 Q41.80027 32.71544 42.24873 32.92465 Q42.69719 33.13386 43.32529 33.58731 Q45.04772 34.83078 45.54907 36.29113 Q46.05042 37.75148 45.98889 38.4025 Q45.98462 38.44768 46.00724 39.31658 Q46.02986 40.18548 44.23882 39.60088 Q42.02161 38.87718 41.13068 40.53456 Q40.23974 42.19194 40.33323 42.6808 Q40.52835 43.70111 41.35667 44.48137 Q42.18499 45.26162 43.35609 45.4272 Q44.82313 45.63462 46.35925 44.20927 Q47.89538 42.78392 47.94938 42.66959 z" />
</font>
</svg>
